<svg viewBox="0 0 867.97 421.65" xmlns="http://www.w3.org/2000/svg" xmlns:xlink="http://www.w3.org/1999/xlink"><clipPath id="a"><path d="m380.53 123.94-27.85 1.7c-1.44.09-2.88.3-4.27.71-7.98 2.35-11.95 9.07-11.95 17.73v68.47c0 9.62 6.56 17.83 14.8 18.35l29.27 1.8"/></clipPath><clipPath id="b"><path d="m380.67 222.58c-2.72 0-4.85-3.12-4.85-7.1v-74.33c0-3.98 2.13-7.1 4.85-7.1.14 0 .28 0 .42.02l86.67 9c.7.56 2.06 2.75 2.06 5.94v58.59c0 3.19-1.36 5.38-2.06 5.94l-86.68 9c-.14.01-.28.02-.42.02z"/></clipPath><pattern id="c" height="5.67" patternTransform="matrix(.87 0 0 .87 -31.54 -1084.04)" patternUnits="userSpaceOnUse" viewBox="0 0 8.5 5.67" width="8.5"><path d="m0 0h8.5v5.67h-8.5z" fill="none"/><circle cx="4.25" cy="2.83" fill="#c05a88" r="1.9"/></pattern><clipPath id="d"><path d="m353.45 158.24c.22 8.22-7.7 13.12-15.01 11.24-5.41-1.39-8.68-6.24-8.46-11.02s3.71-9.15 8.87-10.47c6.83-1.75 14.39 2.42 14.6 10.25z"/></clipPath><clipPath id="e"><path d="m346.56 158.02c.11 4.72-3.96 7.52-7.71 6.45-2.78-.8-4.46-3.58-4.35-6.32.11-2.66 1.91-5.25 4.56-6.01 3.51-1 7.4 1.39 7.5 5.88z"/></clipPath><ellipse cx="412.88" cy="233.09" fill="#1d1d1b" rx="80.42" ry="6.16"/><path d="m380.53 123.94-27.85 1.7c-1.44.09-2.88.3-4.27.71-7.98 2.35-11.95 9.07-11.95 17.73v68.47c0 9.62 6.56 17.83 14.8 18.35l29.27 1.8" fill="#ffe84b"/><g clip-path="url(#a)" fill="#cbb73e"><path d="m382.52 127.9s-40.64.97-44.12 38.83-21.29-1.65-21.29-1.65l5.13-45.02 20.9-11.21h41.66l-2.28 19.06z"/><path d="m380.53 227.46s-28.35 5.64-42.62-20.61c-18.15-33.4-19.92 7.71-19.92 7.71l17.86 41.65 23.24 4.73 39.9-11.98-18.46-21.49z"/></g><path d="m380.53 123.94-27.85 1.7c-1.44.09-2.88.3-4.27.71-7.98 2.35-11.95 9.07-11.95 17.73v68.47c0 9.62 6.56 17.83 14.8 18.35l29.27 1.8" fill="none" stroke="#1d1d1b" stroke-miterlimit="10" stroke-width="3.48"/><path d="m469.15 223.65-87.01 9.03c-8.99.93-16.5-6.75-16.5-17.2v-74.33c0-10.44 7.52-18.13 16.5-17.2l87.01 9.03c6.06.63 10.85 7.8 10.85 16.03v58.59c0 8.23-4.79 15.4-10.85 16.03z" fill="#ffe84b" stroke="#1d1d1b" stroke-miterlimit="10" stroke-width="3.48"/><path d="m380.67 222.58c-2.72 0-4.85-3.12-4.85-7.1v-74.33c0-3.98 2.13-7.1 4.85-7.1.14 0 .28 0 .42.02l86.67 9c.7.56 2.06 2.75 2.06 5.94v58.59c0 3.19-1.36 5.38-2.06 5.94l-86.68 9c-.14.01-.28.02-.42.02z" fill="#ed6da6"/><g clip-path="url(#b)"><path d="m375.82 160.2c4.97 8.33 13.26 19.9 26.39 30.56 20.54 16.67 41.84 22.11 52.96 24.1-26.19 2.57-52.39 5.14-78.58 7.71-.26-20.56-.51-41.11-.77-61.67" fill="url(#c)"/><g fill="#be5986"><path d="m404.1 138.42s-26.16-1.07-28.29 12.51-5.59-12.24-5.59-12.24l6.66-11.05 27.22 10.79z"/><path d="m467.69 172.44s-2.22-27.8-15.92-28.91 11.79-6.48 11.79-6.48l11.52 5.82z"/><path d="m446.6 217.89s25.46-11.39 21.92-24.67 10.05 8.95 10.05 8.95l-1.63 12.8z"/></g></g><path d="m380.67 222.58c-2.72 0-4.85-3.12-4.85-7.1v-74.33c0-3.98 2.13-7.1 4.85-7.1.14 0 .28 0 .42.02l86.67 9c.7.56 2.06 2.75 2.06 5.94v58.59c0 3.19-1.36 5.38-2.06 5.94l-86.68 9c-.14.01-.28.02-.42.02z" fill="none" stroke="#1d1d1b" stroke-miterlimit="10" stroke-width="3.14"/><path d="m375.82 214.34 94-8.13" fill="none" stroke="#1d1d1b" stroke-miterlimit="10" stroke-width="3.14"/><path d="m375.82 206.94 94-7.01" fill="none" stroke="#1d1d1b" stroke-miterlimit="10" stroke-width="3.14"/><path d="m439.36 166.56c-.22.12-.29 1.22-.86 1.6-2.88 1.9-6.71 2.64-9.65.25-.31-2.39 4.19-.54 6.76-1.16 6.45-1.56 2.63-13.6-4.5-10.07-2.68 1.33-5.23 6.69-9.12 7.52-.61-3 3.8-3.31 4.11-5.61.76-5.61-15.32-4.61-18.75-2.61l-.94 8.44c12.48 10.24 31.37 14.33 46.19 6.91-6.42 5.69-14.74 6.48-9.5 17.65l5.28 1.45c-16.85 4.91-44.61-1.48-44.03-23.04-6.53 1.39-12.98.35-12.78-7.51 2.49.95 2.38 4.71 5.13 5.71 10.93 3.97 12.11-13.48 1.43-11.93-2.4.35-3.17 2.78-5.03 1.87l8.82-7.75c.25-.4-4.57-4.24-.17-8.43 5.33-5.07 13.49 2.52 19.71 1.28 2.25-.89 3.17-11.83 12.66-14.54 18.59-5.3 28.84 27.04 11.65 37.18-1.96 1.16-4.22 1.62-6.43 2.8zm-3.2-38.65c-4.25-.47-13.59 9.77-10.85 13.07l5.34 1.44c-1.05-6.14 2.04-10.09 5.51-14.51zm6.79 15.47 2.28-6.15c-.68-.99-3.68-3.98-4.82-3.06l-2.45 4.41zm-41.41 9.52c2.27 3.32 10.09.2 13.45.03 4.52-.23 16.7 4.34 16.06-4.43-.49-6.74-8.61-4.86-12.63-5.59-5.87-1.06-13.51-6.73-16.68.38l1.93 3.51c6.88-1.16 14.22-2.71 20.8.3.6.27 3.6.66 2 2.2-.54.52-10.81-2.89-14.66-2.56-2.54.22-12.71 2.59-10.27 6.15zm39.14 10.41c8.47-.53 12.97-11.17 11.76-18.75-1.63.46-.98 3.4-1.72 5.07-2.65 6.02-6.87 8.08-13.4 6.41 2.26 2.3 3.72 3.7 3.37 7.27zm-5.53 26.73c-1.19-10.38-13.99-14.07-22.27-8.67.09 5.52 20.68 10.49 22.27 8.67z"/><path d="m418.17 124.99c-6.49-3.71-8.9-3.08-15.72-1.71-1.83.37-1.37-.11-1.46-1.7 6.13-2.11 13.95-5.22 17.17 3.41z"/><path d="m455.16 118.03c-5.21-3.74-11.13-2.83-17.13-2.95 4.38-3.41 15.19-3.11 17.13 2.95z"/><path d="m435.15 190.04c-1.59 1.83-22.18-3.15-22.27-8.67 8.29-5.4 21.09-1.72 22.27 8.67z" fill="#fff"/><path d="m440.68 163.31c.35-3.57-1.1-4.97-3.37-7.27 6.53 1.68 10.75-.38 13.4-6.41.73-1.67.09-4.61 1.72-5.07 1.21 7.58-3.29 18.22-11.76 18.75z" fill="#fff"/><path d="m436.16 127.91c-3.47 4.42-6.56 8.37-5.51 14.51l-5.34-1.44c-2.74-3.3 6.6-13.54 10.85-13.07z" fill="#fff"/><path d="m442.95 143.38-4.99-4.8 2.45-4.41c1.14-.92 4.14 2.07 4.82 3.06z" fill="#fff"/><path d="m358.47 157.39c.01.16.02.32.02.49.29 10.28-10.29 16.41-20.05 14.07-7.23-1.74-11.6-7.81-11.31-13.78s4.96-11.45 11.85-13.1c3.9-.94 7.99-.52 11.41 1.04 0-.14 0-.17 0-.17v-65.5l125.34 15.14v38.5l-7.87-2.63-.22-28.69-109.15-13.19v69.53l-.23 1.83" fill="#fffad0" stroke="#1d1d1b" stroke-miterlimit="10"/><path d="m353.45 158.24c.22 8.22-7.7 13.12-15.01 11.24-5.41-1.39-8.68-6.24-8.46-11.02s3.71-9.15 8.87-10.47c6.83-1.75 14.39 2.42 14.6 10.25z" fill="#fffad0"/><g clip-path="url(#d)"><path d="m329.38 162.09s20.42-6.66 22.35-8.98 2.09 15.33 2.09 15.33l-22.76 4-1.68-10.36z" fill="#ccc8a8"/></g><path d="m353.45 158.24c.22 8.22-7.7 13.12-15.01 11.24-5.41-1.39-8.68-6.24-8.46-11.02s3.71-9.15 8.87-10.47c6.83-1.75 14.39 2.42 14.6 10.25z" fill="none" stroke="#1d1d1b" stroke-miterlimit="10" stroke-width=".77"/><path d="m346.56 158.02c.11 4.72-3.96 7.52-7.71 6.45-2.78-.8-4.46-3.58-4.35-6.32.11-2.66 1.91-5.25 4.56-6.01 3.51-1 7.4 1.39 7.5 5.88z" fill="#fffad0"/><g clip-path="url(#e)"><path d="m347.21 155.57s-12.79 5.3-13.18 5.23 2.91 3.9 2.91 3.9l9.62.37.65-9.49z" fill="#ccc8a8"/></g><path d="m346.56 158.02c.11 4.72-3.96 7.52-7.71 6.45-2.78-.8-4.46-3.58-4.35-6.32.11-2.66 1.91-5.25 4.56-6.01 3.51-1 7.4 1.39 7.5 5.88z" fill="none" stroke="#1d1d1b" stroke-miterlimit="10" stroke-width=".42"/><path d="m296.22 300.26c2.4-15.74 5.86-32.43 8.87-48.35 3.63-.24 7.39-.31 11.21-.37s7.8-.07 11.72 0c.45 0 .89.38.97.85 3.12 16.58 6.99 34.31 9.42 51.19-2.61.13-4.44.2-7.19.21s-5.26 0-8.07-.18c-.45-.03-.88-.39-.97-.87-.53-2.85-1.03-5.74-1.49-8.66l-7.6.03c-.45 3.2-.96 6.37-1.56 9.51-2.61.13-4.04.2-6.74.2s-5.56-.08-8.29-.18c-.4 0-.68-.31-.68-.71 0-.2.26-1.82.39-2.69zm22.84-17.41c-.87-6.46-1.67-12.96-2.52-19.39-.75 6.41-1.35 12.92-2.07 19.42z" fill="#1d1d1b"/><path d="m345.18 287.3c5.83 1.89 11.01 2.98 14.8 2.96 3.14-.02 4.46-1.74 4.46-3.12 0-1.76-2.42-2.46-5.62-3.39-6.29-1.82-15.59-4.51-15.59-17.92 0-14.13 8.32-15.26 19.79-15.45 4.88-.08 10.62.59 16.27 1.67l-1.9 14.65c-3.95-1.8-9.96-3.44-15.19-3.38-2.54.03-4.21.89-4.21 2.51 0 1.52 2.58 2.3 6.02 3.34 6.93 2.09 17.4 5.24 17.4 17.51 0 14.02-9.3 17.3-20.66 17.31-5.69 0-11.79-.32-17.61-.93z" fill="#1d1d1b"/><path d="m384.88 250.65c2.7-.17 16.91-.47 19.76-.51s14.88-.14 17.82-.08c.48 0 .86.39.87.88.05 2.52.08 5.02.08 7.57 0 2.17-.02 4.38-.08 6.67-1.43.09-6.01.19-10.47.28.06 3.58.09 7.26.09 11.39 0 8.88-.13 17.76-.34 26.64-2.74.14-4.66.21-7.52.21s-5.89-.09-8.79-.19c-.47 0-.85-.4-.85-.88-.17-8.31-.34-16.79-.34-25.62 0-4.07.03-7.76.08-11.42-3.89-.04-7.92-.09-9.45-.13-.47 0-.85-.39-.85-.87-.05-2.54-.08-4.88-.08-7.23 0-2.17.03-4.34.08-6.69z" fill="#1d1d1b"/><path d="m430.19 250.82c5.83-1.01 13.01-1.72 17.93-1.8 13.14-.21 22.19.68 22.19 15.3 0 6.64-3.6 11.71-9.41 14.53 2.04.71 3.71 2.21 4.91 4.28 3.49 6.94 5.48 13.42 7.05 20.25-2.98.36-6.13.51-9.29.52-2.37 0-4.76-.08-7.1-.22-.5-.03-1.18-.36-1.35-.9-2.47-7.63-4.88-15.31-6.67-21.41-.38 0-.76 0-1.15 0 .11 7.32.36 15.04.39 22.05-2.56.12-5.12.17-7.68.17-2.98 0-5.96-.05-8.93-.14-.5 0-.87-.4-.87-.89 0-8.39-.17-18.11-.17-27.03s.17-15.79.17-24.71zm18.55 19.52c2.8-.03 4.67-1.6 4.67-3.94 0-2.77-.88-4.31-4.01-4.27-.71 0-1.45.05-2.09.1-.02 2.62-.03 5.22-.04 8.12l1.48-.02z" fill="#1d1d1b"/><path d="m497.8 248.22c17.25-.28 25.43 6.5 25.43 27.63 0 17.96-8.12 27.38-20.91 28.03-17.11.02-24.97-6.72-24.97-27.63 0-17.73 7.78-27.19 20.46-28.03zm2.44 39.86c2.44-.01 3.98-1.22 3.98-12.06s-1.81-11.96-4.25-11.93-3.88 1.21-3.88 12 1.71 12 4.15 11.99z" fill="#1d1d1b"/><path d="m296.28 295.4c2.4-15.74 5.86-32.43 8.87-48.35 3.63-.24 7.39-.31 11.21-.37s7.8-.07 11.72 0c.45 0 .89.38.97.85 3.12 16.58 6.99 34.31 9.42 51.19-2.61.13-4.44.2-7.19.21s-5.26 0-8.07-.18c-.45-.03-.88-.39-.97-.87-.53-2.85-1.03-5.74-1.49-8.66l-7.6.03c-.45 3.2-.96 6.37-1.56 9.51-2.61.13-4.04.2-6.74.2s-5.56-.08-8.29-.18c-.4 0-.68-.31-.68-.71 0-.2.26-1.82.39-2.69zm22.85-17.41c-.87-6.46-1.67-12.96-2.52-19.39-.75 6.41-1.35 12.92-2.07 19.42z" fill="#ffe84b" stroke="#1d1d1b" stroke-miterlimit="10"/><path d="m345.24 282.44c5.83 1.89 11.01 2.98 14.8 2.96 3.14-.02 4.46-1.74 4.46-3.12 0-1.76-2.42-2.46-5.62-3.39-6.29-1.82-15.59-4.51-15.59-17.92 0-14.13 8.32-15.26 19.79-15.45 4.88-.08 10.62.59 16.27 1.67l-1.9 14.65c-3.95-1.8-9.96-3.44-15.19-3.38-2.54.03-4.21.89-4.21 2.51 0 1.52 2.58 2.3 6.02 3.34 6.93 2.09 17.4 5.24 17.4 17.51 0 14.02-9.3 17.3-20.66 17.31-5.69 0-11.79-.32-17.61-.93z" fill="#ffe84b" stroke="#1d1d1b" stroke-miterlimit="10"/><path d="m384.94 245.79c2.7-.17 16.91-.47 19.76-.51s14.88-.14 17.82-.08c.48 0 .86.39.87.88.05 2.52.08 5.02.08 7.57 0 2.17-.02 4.38-.08 6.67-1.43.09-6.01.19-10.47.28.06 3.58.09 7.26.09 11.39 0 8.88-.13 17.76-.34 26.64-2.74.14-4.66.21-7.52.21s-5.89-.09-8.79-.19c-.47 0-.85-.4-.85-.88-.17-8.31-.34-16.79-.34-25.62 0-4.07.03-7.76.08-11.42-3.89-.04-7.92-.09-9.45-.13-.47 0-.85-.39-.85-.87-.05-2.54-.08-4.88-.08-7.23 0-2.17.03-4.34.08-6.69z" fill="#ffe84b" stroke="#1d1d1b" stroke-miterlimit="10"/><path d="m430.26 245.97c5.83-1.01 13.01-1.72 17.93-1.8 13.14-.21 22.19.68 22.19 15.3 0 6.64-3.6 11.71-9.41 14.53 2.04.71 3.71 2.21 4.91 4.28 3.49 6.94 5.48 13.42 7.05 20.25-2.98.36-6.13.51-9.29.52-2.37 0-4.76-.08-7.1-.22-.5-.03-1.18-.36-1.35-.9-2.47-7.63-4.88-15.31-6.67-21.41-.38 0-.76 0-1.15 0 .11 7.32.36 15.04.39 22.05-2.56.12-5.12.17-7.68.17-2.98 0-5.96-.05-8.93-.14-.5 0-.87-.4-.87-.89 0-8.39-.17-18.11-.17-27.03s.17-15.79.17-24.71zm18.54 19.52c2.8-.03 4.67-1.6 4.67-3.94 0-2.77-.88-4.31-4.01-4.27-.71 0-1.45.05-2.09.1-.02 2.62-.03 5.22-.04 8.12l1.48-.02z" fill="#ffe84b" stroke="#1d1d1b" stroke-miterlimit="10"/><path d="m497.86 243.37c17.25-.28 25.43 6.5 25.43 27.63 0 17.96-8.12 27.38-20.91 28.03-17.11.02-24.97-6.72-24.97-27.63 0-17.73 7.78-27.19 20.46-28.03zm2.44 39.85c2.44-.01 3.98-1.22 3.98-12.06s-1.81-11.96-4.25-11.93-3.88 1.21-3.88 12 1.71 12 4.15 11.99z" fill="#ffe84b" stroke="#1d1d1b" stroke-miterlimit="10"/><path d="m375.49 311.28c1.77-.29 3.68-.47 5.17-.47 3.71 0 6.45.34 6.45 4.92 0 1.51-.57 2.75-1.56 3.65 1.5.87 2.36 2.14 2.36 3.49 0 4.51-2.9 5.23-6.51 5.17-1.81-.03-3.8-.17-5.65-.4-.15-.04-.26-.19-.26-.34 0-2.63-.05-5.46-.05-8.27s.05-4.96.05-7.76zm5.35 5.9c.82 0 1.52-.39 1.52-1.18s-.69-1.13-1.37-1.14c-.11 0-.27 0-.33.01 0 .72-.02 1.44-.03 2.31h.2zm-.12 6.44h.44c1 .02 1.39-.39 1.39-1.12 0-.66-.5-1.13-1.21-1.14h-.68c.02.74.03 1.5.05 2.26z" fill="#1d1d1b"/><path d="m390.16 311.03c.86-.04 4.73-.06 5.64-.06s3.85.04 4.79.07c.15 0 .27.13.28.29.02.87.03 1.67.03 2.47 0 .68 0 1.37-.03 2.11-.87.04-3.46.04-4.36.03-.21 0-.58 0-1.04-.02 0 .49-.01.99-.01 1.5 1.09.02 2.57.05 3.27.08.15 0 .27.13.27.29.01.78.02 1.46.02 2.15 0 .61 0 1.22-.02 1.91l-3.55-.04c0 .5 0 .99.01 1.48h.33c.93.01 3.92.07 4.85.12.15 0 .27.13.28.29.01.87.03 1.67.03 2.47 0 .68 0 1.37-.03 2.11-.87.03-3.79 0-4.7-.01s-4.86-.17-5.78-.21c-.15 0-.27-.13-.27-.29-.05-2.67-.11-5.39-.11-8.23s.04-5.67.11-8.51z" fill="#1d1d1b"/><path d="m402.49 327.11c.82-5.23 2-10.77 3.03-16.06 1.24-.06 2.52-.06 3.83-.06s2.66.02 4 .07c.16 0 .3.13.33.29 1.06 5.55 2.39 11.48 3.22 17.12-.89.03-1.52.04-2.45.03s-1.8-.03-2.75-.11c-.15-.01-.3-.13-.33-.29-.18-.95-.35-1.92-.51-2.89l-2.59-.03c-.15 1.06-.33 2.12-.53 3.16-.89.03-1.38.04-2.3.03s-1.9-.06-2.83-.11c-.14 0-.23-.11-.23-.24 0-.07.09-.61.13-.89zm7.8-5.67c-.3-2.16-.57-4.33-.86-6.48-.25 2.13-.46 4.3-.7 6.46l1.57.02z" fill="#1d1d1b"/><path d="m417.38 311.07c.9-.04 5.63-.06 6.58-.06s4.96.04 5.94.08c.16 0 .29.13.29.29.02.83.03 1.65.03 2.49 0 .71 0 1.44-.03 2.2-.48.02-2 .03-3.49.03.02 1.18.03 2.39.03 3.75 0 2.92-.04 5.85-.12 8.77-.91.03-1.55.04-2.51.03s-1.96-.06-2.93-.11c-.16 0-.28-.14-.28-.3-.06-2.74-.11-5.53-.11-8.44 0-1.34 0-2.56.03-3.76-1.3-.03-2.64-.08-3.15-.1-.16 0-.28-.13-.28-.29-.02-.84-.03-1.61-.03-2.38 0-.71 0-1.43.03-2.2z" fill="#1d1d1b"/><path d="m431.89 311.09c.92-.04 5.36-.06 6.33-.06s4.13.04 5.13.07c.16 0 .3.13.3.3v2.96c-1.05 2.06-3.28 6.31-5.2 9.42 1.19.02 4.03.08 4.96.13.16 0 .29.14.3.3.02.89.03 1.71.03 2.55 0 .71 0 1.43-.03 2.19-.94.03-4.07 0-5.04-.01s-5.5-.18-6.49-.23c-.16 0-.29-.14-.29-.3-.01-.63-.02-1.22-.02-1.8 0-.54 0-1.08.02-1.66 1.49-2.95 3.31-5.79 5.08-8.8-1.79-.04-4.14-.1-4.79-.13-.16 0-.29-.13-.29-.3-.02-.85-.03-1.63-.03-2.41 0-.72 0-1.45.03-2.23z" fill="#1d1d1b"/><path d="m513.97 142.4-4.02-1.41c-.91-.32-1.9-.32-2.81 0l-4.02 1.41.1-4.25c.02-.96-.28-1.9-.87-2.67l-2.58-3.39 4.08-1.22c.92-.28 1.72-.86 2.27-1.65l2.42-3.5 2.42 3.5c.55.79 1.35 1.37 2.27 1.65l4.08 1.22-2.58 3.39c-.58.77-.89 1.71-.87 2.67l.1 4.25z" fill="#ffe84b" stroke="#1d1d1b" stroke-miterlimit="10" stroke-width=".69"/><path d="m331.99 84.99-7-2.77c-.92-.36-1.93-.39-2.87-.09l-6.72 2.17-.14-7.63c-.02-.9-.32-1.77-.86-2.49l-4.78-6.3 6.75-1.82c1.01-.27 1.88-.91 2.45-1.78l3.82-5.85 4.52 6.49c.51.74 1.25 1.29 2.1 1.59l7.21 2.5-4.14 5.72c-.58.8-.86 1.77-.8 2.75l.47 7.51z" fill="#ffe84b" stroke="#1d1d1b" stroke-miterlimit="10" stroke-width="1.07"/><path d="m402.42 156.26s3.59 2.86 1.23 6.01" fill="#dadada"/><path d="m431.77 158.04s1.99.39 3.29 1.82c.12.13 1.19 1.27 1.2 1.27.03 0 .19-1.62-.62-3.06-.17-.3-.82-.59-.95-.71-.18-.12-.56-.24-1.27-.19-.97.07-1.55.74-1.66.87z" fill="#dadada"/><g fill="#1d1d1b"><path d="m457.65 311.05h5.84v5.84h-5.84z" transform="matrix(-1 0 -0 -1 921.13 627.93)"/><path d="m463.48 316.75h5.84v5.84h-5.84z" transform="matrix(-1 0 -0 -1 932.81 639.33)"/><path d="m457.65 322.58h5.84v5.84h-5.84z" transform="matrix(-1 0 -0 -1 921.13 651.01)"/><path d="m469.32 310.98h5.84v5.84h-5.84z" transform="matrix(-1 0 -0 -1 944.49 627.79)"/><path d="m475.16 316.68h5.84v5.84h-5.84z" transform="matrix(-1 0 -0 -1 956.16 639.19)"/><path d="m469.32 322.51h5.84v5.84h-5.84z" transform="matrix(-1 0 -0 -1 944.49 650.87)"/><path d="m481 310.91h5.84v5.84h-5.84z" transform="matrix(-1 0 -0 -1 967.84 627.65)"/><path d="m486.84 316.61h5.84v5.84h-5.84z" transform="matrix(-1 0 -0 -1 979.52 639.05)"/><path d="m481 322.44h5.84v5.84h-5.84z" transform="matrix(-1 0 -0 -1 967.84 650.73)"/><path d="m492.68 310.84h5.84v5.84h-5.84z" transform="matrix(-1 0 -0 -1 991.2 627.51)"/><path d="m498.52 316.54h5.84v5.84h-5.84z" transform="matrix(-1 0 -0 -1 1002.87 638.91)"/><path d="m451.81 316.92h5.84v5.84h-5.84z" transform="matrix(-1 0 -0 -1 909.45 639.67)"/><path d="m492.68 322.38h5.84v5.84h-5.84z" transform="matrix(-1 0 -0 -1 991.2 650.59)"/><path d="m319.06 310.85h5.84v5.84h-5.84z" transform="matrix(-1 0 -0 -1 643.97 627.54)"/><path d="m324.9 316.55h5.84v5.84h-5.84z" transform="matrix(-1 0 -0 -1 655.64 638.94)"/><path d="m319.06 322.39h5.84v5.84h-5.84z" transform="matrix(-1 0 -0 -1 643.97 650.61)"/><path d="m330.74 310.78h5.84v5.84h-5.84z" transform="matrix(-1 0 -0 -1 667.32 627.4)"/><path d="m336.58 316.48h5.84v5.84h-5.84z" transform="matrix(-1 0 -0 -1 679 638.8)"/><path d="m330.74 322.32h5.84v5.84h-5.84z" transform="matrix(-1 0 -0 -1 667.32 650.47)"/><path d="m342.42 310.71h5.84v5.84h-5.84z" transform="matrix(-1 0 -0 -1 690.68 627.26)"/><path d="m348.26 316.41h5.84v5.84h-5.84z" transform="matrix(-1 0 -0 -1 702.35 638.66)"/><path d="m342.42 322.25h5.84v5.84h-5.84z" transform="matrix(-1 0 -0 -1 690.68 650.33)"/><path d="m354.1 310.64h5.84v5.84h-5.84z" transform="matrix(-1 0 -0 -1 714.03 627.12)"/><path d="m359.94 316.34h5.84v5.84h-5.84z" transform="matrix(-1 0 -0 -1 725.71 638.52)"/><path d="m313.22 316.51h5.84v5.84h-5.84z" transform="matrix(-1 0 -0 -1 632.29 638.87)"/><path d="m354.1 322.18h5.84v5.84h-5.84z" transform="matrix(-1 0 -0 -1 714.03 650.2)"/></g></svg>