<svg viewBox="0 0 1770.66 1113.13" xmlns="http://www.w3.org/2000/svg" xmlns:xlink="http://www.w3.org/1999/xlink"><clipPath id="a"><path d="m801.53 376.9-53.38 3.26c-2.76.17-5.51.58-8.19 1.37-15.29 4.5-22.9 17.38-22.9 33.98v131.22c0 18.44 12.57 34.18 28.37 35.18l56.1 3.44"/></clipPath><clipPath id="b"><path d="m801.79 565.94c-5.21 0-9.3-5.97-9.3-13.6v-142.45c0-7.63 4.08-13.6 9.3-13.6.26 0 .53.01.81.04l166.11 17.25c1.34 1.07 3.94 5.27 3.94 11.39v112.29c0 6.12-2.61 10.32-3.94 11.39l-166.11 17.25c-.27.03-.55.04-.81.04z"/></clipPath><pattern id="c" height="5.67" patternTransform="matrix(.87 0 0 .87 1739.56 -1020.08)" patternUnits="userSpaceOnUse" viewBox="0 0 8.5 5.67" width="8.5"><path d="m0 0h8.5v5.67h-8.5z" fill="none"/><circle cx="4.25" cy="2.83" fill="#bf5a86" r="1.9"/></pattern><clipPath id="d"><path d="m749.63 442.63c.42 15.76-14.76 25.14-28.76 21.55-10.36-2.66-16.63-11.97-16.22-21.11s7.12-17.54 16.99-20.07c13.08-3.36 27.58 4.64 27.98 19.64z"/></clipPath><clipPath id="e"><path d="m736.41 442.2c.22 9.04-7.59 14.42-14.78 12.36-5.33-1.52-8.55-6.86-8.33-12.11.21-5.1 3.66-10.06 8.73-11.51 6.72-1.92 14.17 2.66 14.38 11.26z"/></clipPath><ellipse cx="863.53" cy="586.09" fill="#1d1d1b" rx="154.13" ry="11.8"/><path d="m801.53 376.9-53.38 3.26c-2.76.17-5.51.58-8.19 1.37-15.29 4.5-22.9 17.38-22.9 33.98v131.22c0 18.44 12.57 34.18 28.37 35.18l56.1 3.44" fill="#ffe84b"/><g clip-path="url(#a)" fill="#cab73e"><path d="m805.34 384.48s-77.88 1.86-84.55 74.42c-6.67 72.55-40.8-3.17-40.8-3.17l9.83-86.29 40.05-21.48h79.84l-4.36 36.53z"/><path d="m801.53 575.28s-54.34 10.8-81.68-39.51c-34.79-64.02-38.17 14.77-38.17 14.77l34.23 79.82 44.53 9.06 76.47-22.96-35.38-41.19z"/></g><path d="m801.53 376.9-53.38 3.26c-2.76.17-5.51.58-8.19 1.37-15.29 4.5-22.9 17.38-22.9 33.98v131.22c0 18.44 12.57 34.18 28.37 35.18l56.1 3.44" fill="none" stroke="#1d1d1b" stroke-miterlimit="10" stroke-width="6.68"/><path d="m971.37 567.99-166.76 17.31c-17.23 1.79-31.63-12.94-31.63-32.96v-142.45c0-20.02 14.4-34.75 31.63-32.96l166.76 17.31c11.61 1.21 20.79 14.95 20.79 30.73v112.29c0 15.78-9.18 29.52-20.79 30.73z" fill="#ffe84b" stroke="#1d1d1b" stroke-miterlimit="10" stroke-width="6.68"/><path d="m801.79 565.94c-5.21 0-9.3-5.97-9.3-13.6v-142.45c0-7.63 4.08-13.6 9.3-13.6.26 0 .53.01.81.04l166.11 17.25c1.34 1.07 3.94 5.27 3.94 11.39v112.29c0 6.12-2.61 10.32-3.94 11.39l-166.11 17.25c-.27.03-.55.04-.81.04z" fill="#ec6da5"/><g clip-path="url(#b)"><path d="m792.49 446.39c9.52 15.97 25.41 38.14 50.58 58.57 39.37 31.95 80.19 42.36 101.49 46.2-50.2 4.93-100.4 9.85-150.6 14.78-.49-39.4-.98-78.8-1.48-118.2" fill="url(#c)"/><g fill="#bd5985"><path d="m846.71 404.65s-50.14-2.05-54.21 23.98-10.7-23.46-10.7-23.46l12.76-21.19 52.16 20.67z"/><path d="m968.57 469.85s-4.25-53.27-30.51-55.4c-26.26-2.12 22.6-12.42 22.6-12.42l22.08 11.15z"/><path d="m928.15 556.94s48.79-21.82 42.01-47.28 19.26 17.15 19.26 17.15l-3.12 24.53-58.14 5.6z"/></g></g><path d="m801.79 565.94c-5.21 0-9.3-5.97-9.3-13.6v-142.45c0-7.63 4.08-13.6 9.3-13.6.26 0 .53.01.81.04l166.11 17.25c1.34 1.07 3.94 5.27 3.94 11.39v112.29c0 6.12-2.61 10.32-3.94 11.39l-166.11 17.25c-.27.03-.55.04-.81.04z" fill="none" stroke="#1d1d1b" stroke-miterlimit="10" stroke-width="6.02"/><path d="m792.49 550.15 180.16-15.59" fill="none" stroke="#1d1d1b" stroke-miterlimit="10" stroke-width="6.02"/><path d="m792.49 535.96 180.16-13.43" fill="none" stroke="#1d1d1b" stroke-miterlimit="10" stroke-width="6.02"/><path d="m914.26 458.58c-.43.23-.56 2.34-1.65 3.06-5.51 3.65-12.85 5.06-18.5.47-.59-4.58 8.03-1.04 12.95-2.23 12.35-2.99 5.05-26.07-8.62-19.29-5.13 2.54-10.02 12.82-17.48 14.42-1.16-5.75 7.29-6.34 7.88-10.75 1.45-10.75-29.36-8.83-35.93-5.01l-1.8 16.18c23.92 19.63 60.12 27.45 88.52 13.25-12.3 10.9-28.25 12.42-18.21 33.83l10.12 2.78c-32.29 9.41-85.5-2.83-84.38-44.16-12.51 2.66-24.87.67-24.49-14.39 4.76 1.82 4.55 9.02 9.83 10.94 20.94 7.6 23.2-25.83 2.75-22.86-4.6.67-6.08 5.33-9.63 3.57l16.9-14.85c.48-.76-8.76-8.12-.32-16.15 10.22-9.73 25.86 4.83 37.78 2.46 4.32-1.71 6.08-22.68 24.27-27.87 35.62-10.16 55.28 51.83 22.34 71.25-3.76 2.21-8.08 3.1-12.33 5.37zm-6.12-74.07c-8.15-.91-26.04 18.71-20.8 25.04l10.24 2.76c-2.02-11.76 3.91-19.33 10.55-27.8zm13.01 29.65 4.37-11.78c-1.31-1.9-7.06-7.63-9.24-5.87l-4.7 8.45 9.56 9.2zm-79.36 18.25c4.36 6.36 19.33.38 25.79.05 8.66-.44 32 8.31 30.77-8.48-.94-12.91-16.5-9.32-24.21-10.71-11.25-2.03-25.9-12.9-31.97.74l3.7 6.72c13.19-2.23 27.25-5.2 39.87.58 1.15.52 6.9 1.27 3.83 4.22-1.03.99-20.71-5.54-28.09-4.91-4.86.42-24.36 4.97-19.68 11.79zm75.02 19.94c16.23-1.02 24.85-21.4 22.53-35.93-3.13.88-1.89 6.52-3.29 9.72-5.08 11.54-13.17 15.49-25.69 12.28 4.34 4.4 7.13 7.08 6.45 13.93zm-10.6 51.23c-2.27-19.9-26.81-26.96-42.69-16.61.18 10.58 39.64 20.11 42.69 16.61z"/><path d="m873.67 378.9c-12.44-7.12-17.06-5.9-30.12-3.28-3.51.7-2.62-.2-2.79-3.25 11.75-4.04 26.74-10 32.91 6.54z"/><path d="m944.56 365.56c-9.99-7.17-21.33-5.43-32.84-5.65 8.39-6.54 29.11-5.96 32.84 5.65z"/><path d="m906.21 503.58c-3.05 3.5-42.51-6.03-42.69-16.61 15.88-10.35 40.41-3.29 42.69 16.61z" fill="#fff"/><path d="m916.81 452.35c.68-6.85-2.11-9.53-6.45-13.93 12.52 3.22 20.6-.73 25.69-12.28 1.41-3.2.17-8.84 3.29-9.72 2.32 14.53-6.3 34.91-22.53 35.93z" fill="#fff"/><path d="m908.14 384.51c-6.65 8.47-12.58 16.04-10.55 27.8l-10.24-2.76c-5.24-6.33 12.64-25.95 20.8-25.04z" fill="#fff"/><path d="m921.15 414.16-9.56-9.2 4.7-8.45c2.18-1.77 7.93 3.97 9.24 5.87l-4.37 11.78z" fill="#fff"/><path d="m759.25 441c.02.31.03.62.04.94.56 19.71-19.73 31.45-38.43 26.96-13.85-3.33-22.23-14.97-21.67-26.41.54-11.11 9.51-21.94 22.71-25.11 7.48-1.8 15.31-.99 21.86 1.99 0-.27 0-.32 0-.32v-125.54l240.22 29.02v73.79l-15.08-5.03-.43-54.99-209.19-25.28v133.26l-.44 3.51" fill="#fff9cf" stroke="#1d1d1b" stroke-miterlimit="10" stroke-width="1.92"/><path d="m749.63 442.63c.42 15.76-14.76 25.14-28.76 21.55-10.36-2.66-16.63-11.97-16.22-21.11s7.12-17.54 16.99-20.07c13.08-3.36 27.58 4.64 27.98 19.64z" fill="#fff9cf"/><g clip-path="url(#d)"><path d="m703.49 450s39.14-12.76 42.83-17.2 4.01 29.39 4.01 29.39l-43.62 7.66z" fill="#cbc7a7"/></g><path d="m749.63 442.63c.42 15.76-14.76 25.14-28.76 21.55-10.36-2.66-16.63-11.97-16.22-21.11s7.12-17.54 16.99-20.07c13.08-3.36 27.58 4.64 27.98 19.64z" fill="none" stroke="#1d1d1b" stroke-miterlimit="10" stroke-width="1.48"/><path d="m736.41 442.2c.22 9.04-7.59 14.42-14.78 12.36-5.33-1.52-8.55-6.86-8.33-12.11.21-5.1 3.66-10.06 8.73-11.51 6.72-1.92 14.17 2.66 14.38 11.26z" fill="#fff9cf"/><g clip-path="url(#e)"><path d="m737.66 437.5s-24.51 10.15-25.25 10.03 5.57 7.47 5.57 7.47l18.44.7z" fill="#cbc7a7"/></g><path d="m736.41 442.2c.22 9.04-7.59 14.42-14.78 12.36-5.33-1.52-8.55-6.86-8.33-12.11.21-5.1 3.66-10.06 8.73-11.51 6.72-1.92 14.17 2.66 14.38 11.26z" fill="none" stroke="#1d1d1b" stroke-miterlimit="10" stroke-width=".8"/><path d="m843.47 438.84s6.89 5.48 2.36 11.51" fill="#d9d9d9"/><path d="m899.72 442.25s3.81.74 6.31 3.49c.23.26 2.28 2.44 2.3 2.43.06 0 .36-3.11-1.18-5.86-.32-.58-1.56-1.13-1.82-1.36-.35-.22-1.07-.46-2.44-.37-1.87.13-2.97 1.42-3.18 1.66z" fill="#d9d9d9"/><path d="m1057.26 260.89-7.7-2.69c-1.74-.61-3.64-.61-5.38 0l-7.7 2.69.18-8.15c.04-1.84-.54-3.65-1.66-5.11l-4.94-6.49 7.81-2.34c1.77-.53 3.3-1.64 4.35-3.16l4.64-6.7 4.64 6.7c1.05 1.52 2.58 2.63 4.35 3.16l7.81 2.34-4.94 6.49c-1.12 1.47-1.7 3.27-1.66 5.11l.18 8.15z" fill="#ffe84b" stroke="#1d1d1b" stroke-miterlimit="10" stroke-width="1.32"/><path d="m689.7 244.84-13.42-5.31c-1.75-.69-3.7-.76-5.49-.18l-12.89 4.15-.28-14.63c-.03-1.72-.61-3.39-1.65-4.77l-9.16-12.08 12.93-3.49c1.93-.52 3.6-1.74 4.7-3.41l7.31-11.22 8.65 12.44c.98 1.42 2.39 2.48 4.02 3.04l13.83 4.78-7.93 10.97c-1.11 1.53-1.65 3.39-1.53 5.28l.9 14.4z" fill="#ffe84b" stroke="#1d1d1b" stroke-miterlimit="10" stroke-width="2.05"/><g fill="#fff"><path d="m949.32 735.48h11.19v11.19h-11.19z" transform="matrix(-1 0 -0 -1 1909.83 1482.16)"/><path d="m960.51 746.41h11.19v11.19h-11.19z" transform="matrix(-1 0 -0 -1 1932.21 1504.01)"/><path d="m949.32 757.6h11.19v11.19h-11.19z" transform="matrix(-1 0 -0 -1 1909.83 1526.39)"/><path d="m971.7 735.35h11.19v11.19h-11.19z" transform="matrix(-1 0 -0 -1 1954.59 1481.89)"/><path d="m982.89 746.27h11.19v11.19h-11.19z" transform="matrix(-1 0 -0 -1 1976.97 1503.74)"/><path d="m971.7 757.46h11.19v11.19h-11.19z" transform="matrix(-1 0 -0 -1 1954.59 1526.12)"/><path d="m994.08 735.22h11.19v11.19h-11.19z" transform="matrix(-1 0 -0 -1 1999.35 1481.63)"/><path d="m1005.27 746.14h11.19v11.19h-11.19z" transform="matrix(-1 0 -0 -1 2021.73 1503.47)"/><path d="m994.08 757.33h11.19v11.19h-11.19z" transform="matrix(-1 0 -0 -1 1999.35 1525.85)"/><path d="m1016.46 735.08h11.19v11.19h-11.19z" transform="matrix(-1 0 -0 -1 2044.11 1481.36)"/><path d="m1027.65 746.01h11.19v11.19h-11.19z" transform="matrix(-1 0 -0 -1 2066.49 1503.21)"/><path d="m938.13 746.74h11.19v11.19h-11.19z" transform="matrix(-1 0 -0 -1 1887.45 1504.67)"/><path d="m1016.46 757.2h11.19v11.19h-11.19z" transform="matrix(-1 0 -0 -1 2044.11 1525.59)"/><path d="m683.72 735.11h11.19v11.19h-11.19z" transform="matrix(-1 0 -0 -1 1378.64 1481.4)"/><path d="m694.91 746.03h11.19v11.19h-11.19z" transform="matrix(-1 0 -0 -1 1401.02 1503.25)"/><path d="m683.72 757.22h11.19v11.19h-11.19z" transform="matrix(-1 0 -0 -1 1378.64 1525.63)"/><path d="m706.1 734.97h11.19v11.19h-11.19z" transform="matrix(-1 0 -0 -1 1423.4 1481.14)"/><path d="m717.29 745.9h11.19v11.19h-11.19z" transform="matrix(-1 0 -0 -1 1445.78 1502.98)"/><path d="m706.1 757.09h11.19v11.19h-11.19z" transform="matrix(-1 0 -0 -1 1423.4 1525.36)"/><path d="m728.48 734.84h11.19v11.19h-11.19z" transform="matrix(-1 0 -0 -1 1468.16 1480.87)"/><path d="m739.67 745.76h11.19v11.19h-11.19z" transform="matrix(-1 0 -0 -1 1490.54 1502.72)"/><path d="m728.48 756.95h11.19v11.19h-11.19z" transform="matrix(-1 0 -0 -1 1468.16 1525.1)"/><path d="m750.86 734.71h11.19v11.19h-11.19z" transform="matrix(-1 0 -0 -1 1512.92 1480.6)"/><path d="m762.05 745.63h11.19v11.19h-11.19z" transform="matrix(-1 0 -0 -1 1535.3 1502.45)"/><path d="m672.53 745.96h11.19v11.19h-11.19z" transform="matrix(-1 0 -0 -1 1356.26 1503.12)"/><path d="m750.86 756.82h11.19v11.19h-11.19z" transform="matrix(-1 0 -0 -1 1512.92 1524.83)"/><path d="m791.87 735.94c3.38-.55 7.05-.9 9.9-.9 7.11.01 12.36.64 12.36 9.44 0 2.89-1.1 5.27-2.98 6.99 2.87 1.67 4.53 4.09 4.53 6.7 0 8.64-5.56 10.02-12.48 9.91-3.47-.06-7.28-.32-10.83-.76-.29-.09-.51-.36-.51-.65 0-5.05-.1-10.47-.1-15.84s.1-9.51.1-14.87zm10.25 11.29c1.57.01 2.92-.74 2.92-2.27s-1.33-2.17-2.63-2.18c-.22 0-.52.01-.63.02-.02 1.39-.04 2.75-.05 4.42h.39zm-.23 12.36h.84c1.91.03 2.67-.74 2.67-2.14 0-1.27-.96-2.17-2.31-2.19h-1.3c.03 1.41.07 2.88.1 4.33z"/><path d="m819.97 735.45c1.65-.08 9.06-.11 10.8-.11s7.38.07 9.17.14c.29 0 .52.25.53.55.03 1.67.05 3.2.05 4.74 0 1.31-.01 2.62-.05 4.04-1.67.07-6.63.07-8.36.06-.4 0-1.11-.01-1.99-.03-.01.94-.02 1.89-.03 2.87 2.09.03 4.93.09 6.27.14.29 0 .52.25.53.55.03 1.49.05 2.8.05 4.12 0 1.17-.01 2.34-.05 3.66l-6.8-.07c0 .96.02 1.9.03 2.84h.63c1.78.03 7.51.14 9.3.23.29 0 .52.25.53.56.03 1.67.05 3.2.05 4.74 0 1.31-.01 2.62-.05 4.04-1.67.06-7.27 0-9.01-.02s-9.32-.32-11.08-.41c-.29 0-.52-.25-.52-.55-.1-5.11-.21-10.33-.21-15.77s.08-10.87.21-16.31z"/><path d="m843.62 766.27c1.57-10.03 3.83-20.65 5.8-30.78 2.38-.11 4.83-.12 7.33-.11 2.6 0 5.1.04 7.66.14.3 0 .58.25.63.56 2.04 10.63 4.57 22 6.16 32.81-1.71.06-2.91.08-4.7.05s-3.44-.06-5.28-.21c-.3-.02-.57-.26-.63-.56-.35-1.83-.67-3.68-.97-5.55l-4.97-.07c-.29 2.04-.63 4.06-1.02 6.06-1.71.06-2.64.08-4.41.05s-3.64-.12-5.42-.21c-.26 0-.44-.2-.44-.46 0-.13.17-1.16.26-1.71zm14.94-10.86c-.57-4.13-1.09-8.3-1.65-12.41-.49 4.09-.89 8.24-1.35 12.38z"/><path d="m872.14 735.53c1.72-.08 10.79-.11 12.62-.11 1.86 0 9.5.08 11.38.14.31 0 .55.25.55.56.03 1.59.05 3.17.05 4.78 0 1.37-.02 2.76-.05 4.21-.91.04-3.84.05-6.69.06.04 2.26.06 4.58.06 7.19 0 5.6-.08 11.21-.22 16.81-1.75.06-2.98.08-4.8.05-1.86-.03-3.76-.12-5.61-.21-.3 0-.55-.26-.55-.57-.11-5.24-.22-10.6-.22-16.18 0-2.57.02-4.9.05-7.21-2.48-.07-5.06-.15-6.03-.19-.3 0-.54-.25-.54-.56-.03-1.61-.05-3.08-.05-4.56 0-1.37.02-2.74.05-4.22z"/><path d="m899.96 735.58c1.76-.08 10.27-.11 12.13-.11s7.92.07 9.84.14c.31 0 .57.26.57.57v5.68c-2.01 3.95-6.28 12.09-9.96 18.05 2.28.03 7.72.16 9.5.24.31 0 .56.26.57.58.03 1.7.05 3.29.05 4.89 0 1.36-.02 2.73-.05 4.2-1.8.06-7.79 0-9.66-.03s-10.55-.34-12.43-.44c-.31 0-.56-.26-.56-.57-.03-1.21-.04-2.33-.04-3.45 0-1.03.01-2.07.04-3.19 2.85-5.65 6.34-11.1 9.75-16.86-3.43-.08-7.93-.19-9.19-.24-.31 0-.56-.26-.56-.57-.03-1.62-.05-3.12-.05-4.62 0-1.38.02-2.77.05-4.27z"/></g><path d="m639.94 714.81c4.6-30.17 11.22-62.15 17-92.65 6.96-.46 14.16-.6 21.49-.71 7.63-.12 14.95-.13 22.45.02.87-.01 1.7.72 1.86 1.63 5.98 31.78 13.4 65.76 18.06 98.11-4.99.26-8.52.39-13.78.4-5.36 0-10.08 0-15.46-.35-.87-.06-1.68-.75-1.85-1.66-1.03-5.47-1.97-11.01-2.85-16.59l-14.57.06c-.86 6.12-1.84 12.21-2.98 18.22-5 .26-7.74.38-12.92.39-5.29 0-10.66-.16-15.89-.35-.76 0-1.3-.59-1.3-1.36 0-.38.5-3.49.75-5.16zm43.78-33.36c-1.67-12.38-3.2-24.84-4.83-37.15-1.43 12.29-2.6 24.77-3.96 37.22l8.79-.06z" fill="#1d1d1b"/><path d="m640.05 705.5c4.6-30.17 11.22-62.15 17-92.65 6.96-.46 14.16-.6 21.49-.71 7.63-.12 14.95-.13 22.45.02.87-.01 1.7.72 1.86 1.63 5.98 31.78 13.4 65.76 18.06 98.11-4.99.26-8.52.39-13.78.4-5.36 0-10.08 0-15.46-.35-.87-.06-1.68-.75-1.85-1.66-1.03-5.47-1.97-11.01-2.85-16.59l-14.57.06c-.86 6.12-1.84 12.21-2.98 18.22-5 .26-7.74.38-12.92.39-5.29 0-10.66-.16-15.89-.35-.76 0-1.3-.59-1.3-1.36 0-.38.5-3.49.75-5.16zm43.79-33.36c-1.67-12.38-3.2-24.84-4.83-37.15-1.43 12.29-2.6 24.77-3.96 37.22l8.79-.06z" fill="#ffe84b" stroke="#1d1d1b" stroke-miterlimit="10" stroke-width="1.92"/><path d="m733.77 689.97c11.17 3.61 21.09 5.71 28.36 5.68 6.01-.03 8.55-3.33 8.55-5.99 0-3.38-4.64-4.72-10.78-6.49-12.06-3.48-29.88-8.64-29.88-34.34 0-27.08 15.95-29.26 37.92-29.61 9.34-.15 20.35 1.13 31.19 3.21l-3.65 28.07c-7.58-3.46-19.08-6.6-29.12-6.47-4.86.06-8.06 1.7-8.06 4.8 0 2.92 4.94 4.42 11.54 6.41 13.28 4.01 33.35 10.04 33.35 33.55 0 26.87-17.83 33.15-39.59 33.18-10.91.02-22.59-.61-33.74-1.79l3.9-30.21z" fill="#1d1d1b"/><path d="m733.89 680.67c11.17 3.61 21.09 5.71 28.36 5.68 6.01-.03 8.55-3.33 8.55-5.99 0-3.38-4.64-4.72-10.78-6.49-12.06-3.48-29.88-8.64-29.88-34.34 0-27.08 15.95-29.26 37.92-29.61 9.34-.15 20.35 1.13 31.19 3.21l-3.65 28.07c-7.58-3.46-19.08-6.6-29.12-6.47-4.86.06-8.06 1.7-8.06 4.8 0 2.92 4.94 4.42 11.54 6.41 13.28 4.01 33.35 10.04 33.35 33.55 0 26.87-17.83 33.15-39.59 33.18-10.91.02-22.59-.61-33.74-1.79l3.9-30.21z" fill="#ffe84b" stroke="#1d1d1b" stroke-miterlimit="10" stroke-width="1.92"/><path d="m809.86 619.73c5.17-.34 32.4-.9 37.87-.98 5.59-.09 28.52-.27 34.16-.16.92-.01 1.64.74 1.66 1.68.09 4.82.15 9.61.15 14.51 0 4.15-.05 8.39-.15 12.79-2.74.17-11.52.37-20.07.53.11 6.87.18 13.91.18 21.83 0 17.02-.25 34.03-.66 51.05-5.24.26-8.93.4-14.41.4-5.58 0-11.28-.17-16.85-.36-.9 0-1.64-.76-1.64-1.69-.33-15.92-.66-32.18-.66-49.11 0-7.8.05-14.88.15-21.9-7.46-.07-15.18-.18-18.11-.24-.9.01-1.63-.74-1.63-1.67-.1-4.87-.16-9.36-.16-13.86 0-4.15.05-8.32.16-12.82z" fill="#1d1d1b"/><path d="m809.98 610.42c5.17-.34 32.4-.9 37.87-.98 5.59-.09 28.52-.27 34.16-.16.92-.01 1.64.74 1.66 1.68.09 4.82.15 9.61.15 14.51 0 4.15-.05 8.39-.15 12.79-2.74.17-11.52.37-20.07.53.11 6.87.18 13.91.18 21.83 0 17.02-.25 34.03-.66 51.05-5.24.26-8.93.4-14.41.4s-11.28-.17-16.85-.36c-.9 0-1.64-.76-1.64-1.69-.33-15.92-.66-32.18-.66-49.11 0-7.8.05-14.88.15-21.9-7.46-.07-15.18-.18-18.11-.24-.9.01-1.63-.74-1.63-1.67-.1-4.87-.16-9.36-.16-13.86 0-4.15.05-8.32.16-12.82z" fill="#ffe84b" stroke="#1d1d1b" stroke-miterlimit="10" stroke-width="1.92"/><path d="m896.71 620.07c11.17-1.94 24.94-3.31 34.36-3.46 25.18-.4 42.52 1.31 42.52 29.33 0 12.72-6.9 22.44-18.03 27.86 3.91 1.35 7.12 4.24 9.41 8.2 6.68 13.31 10.5 25.71 13.51 38.81-5.72.69-11.74.98-17.81.99-4.55 0-9.13-.15-13.62-.43-.95-.06-2.25-.69-2.59-1.72-4.74-14.62-9.36-29.34-12.78-41.03-.73 0-1.46 0-2.21 0 .2 14.03.68 28.82.75 42.26-4.91.22-9.82.32-14.73.33-5.71 0-11.42-.1-17.12-.28-.97 0-1.67-.76-1.67-1.71 0-16.07-.33-34.7-.33-51.8s.33-30.27.33-47.36zm35.54 37.41c5.36-.06 8.94-3.08 8.94-7.55 0-5.31-1.69-8.26-7.69-8.18-1.35.02-2.77.1-4.01.19-.03 5.03-.07 10-.09 15.57z" fill="#1d1d1b"/><path d="m896.83 610.76c11.17-1.94 24.94-3.31 34.36-3.46 25.18-.4 42.52 1.31 42.52 29.33 0 12.72-6.9 22.44-18.03 27.86 3.91 1.35 7.12 4.24 9.41 8.2 6.68 13.31 10.5 25.71 13.51 38.81-5.72.69-11.74.98-17.81.99-4.55 0-9.13-.15-13.62-.43-.95-.06-2.25-.69-2.59-1.72-4.74-14.62-9.36-29.34-12.78-41.03-.73 0-1.46 0-2.21 0 .2 14.03.68 28.82.75 42.26-4.91.22-9.82.32-14.73.33-5.71 0-11.42-.1-17.12-.28-.97 0-1.67-.76-1.67-1.71 0-16.07-.33-34.7-.33-51.8s.33-30.27.33-47.36zm35.53 37.41c5.36-.06 8.94-3.08 8.94-7.55 0-5.31-1.69-8.26-7.69-8.18-1.35.02-2.77.1-4.01.19-.03 5.03-.07 10-.09 15.57z" fill="#ffe84b" stroke="#1d1d1b" stroke-miterlimit="10" stroke-width="1.92"/><path d="m1026.28 615.09c33.06-.53 48.73 12.46 48.73 52.95 0 34.42-15.56 52.47-40.08 53.73-32.79.05-47.86-12.88-47.86-52.96 0-33.97 14.91-52.11 39.21-53.71zm4.67 76.37c4.68-.03 7.63-2.34 7.63-23.11s-3.47-22.91-8.15-22.86c-4.67.06-7.44 2.33-7.44 22.99s3.28 23 7.96 22.98z" fill="#1d1d1b"/><path d="m1026.4 605.78c33.06-.53 48.73 12.46 48.73 52.95 0 34.42-15.56 52.47-40.08 53.73-32.79.05-47.86-12.88-47.86-52.96 0-33.97 14.91-52.11 39.21-53.71zm4.67 76.37c4.68-.03 7.63-2.34 7.63-23.11s-3.47-22.91-8.15-22.86c-4.67.06-7.44 2.33-7.44 22.99s3.28 23 7.96 22.98z" fill="#ffe84b" stroke="#1d1d1b" stroke-miterlimit="10" stroke-width="1.92"/></svg>