<svg viewBox="0 0 531.13 250.48" xmlns="http://www.w3.org/2000/svg"><path d="m393.76 110.24-29.82 30.2c-3.45 3.51-8.05 5.73-12.96 6.24l-147.49 15.69c-.08 0-.15.02-.23.03-1.06.11-2.12.16-3.17.16-.15 0-.3 0-.45 0-4.23 3.14-13.88 7.12-19.2 7.57-1.01.09-2.02.13-3.02.13-18.76 0-35.14-14.92-37.25-34.57-1.11-10.33 1.82-20.31 8.24-28.1 6.09-7.39 14.67-11.91 24.14-12.72 5.93-.5 11.94.5 17.44 2.91.23-.04.46-.07.68-.11l55.21-7.52 99.97-13.8.02.13c.8-.11.91-.13 1.09-.13h.36c.85 0 1.7.21 2.45.61 5.53 2.88 11.08 5.77 16.24 8.45l.4.21c.68.35 1.34.7 1.99 1.03.82.44 1.63.85 2.43 1.27l21.25 11.05c1.9.99 3.25 2.9 3.59 5.11.36 2.27-.36 4.57-1.92 6.15z" fill="#f9b233"/><path d="m368.99 90.67v38.93l-.11.08-14.41 11.26c-1.13-.58-19.85-10.55-21.45-31.29-1.19-15.44 7.92-26.14 9.74-28.19 7.13 2.5 14.26 5 21.39 7.51.86.3 1.71.6 2.57.91.76.26 1.51.53 2.26.79z" fill="#fff"/><path d="m185.61 158.12c-6.27-2.74-11.74-8.91-14.93-16.63 1.01 2.68 2.34 5.24 3.94 7.62 3.26 4.81 7.74 8.5 12.88 10.78.42-.17.82-.34 1.23-.52-1.14-.44-2.22-.87-3.11-1.26z" fill="#1d1d1b"/><path d="m188.72 159.37c-.4.17-.81.35-1.23.52-2.72 1.11-5.61 2.05-7.75 2.23-15.67 1.34-29.85-10.9-31.6-27.29-.87-8.16 1.42-16.02 6.45-22.14 4.71-5.71 11.32-9.21 18.62-9.83.77-.07 1.54-.1 2.32-.1 1.08 0 2.16.07 3.24.19-2.07 1.62-3.86 3.47-5.3 5.53-5.61 7.97-7.2 18.38-4.34 28.56.41 1.48.91 2.93 1.49 4.33 0 .03.02.07.04.11 3.19 7.72 8.66 13.89 14.93 16.63.89.38 1.97.82 3.11 1.26z" fill="#e94e1b"/><g fill="#1d1d1b"><path d="m178.13 138.51c.14.37.28.74.44 1.1h.04c-.17-.36-.32-.73-.48-1.1zm6.51-29.89c1.09-.76 2.29-1.45 3.58-2.05-1.29.51-2.49 1.2-3.58 2.05zm4.18 42.13c-1.81-.79-3.55-2.05-5.15-3.68l-.42.05c3.98 4.39 9.54 7.02 15.51 7.37-1.68-.59-7.05-2.47-9.93-3.74z"/><path d="m395.67 104.09c-.34-2.21-1.69-4.12-3.59-5.11l-21.25-11.05c-.8-.41-1.6-.83-2.43-1.27-.66-.34-1.32-.68-1.99-1.03l-.4-.21c-5.16-2.68-10.71-5.57-16.24-8.45-.75-.4-1.59-.61-2.45-.61-.14 0-.28 0-.36 0-.18 0-.3.01-1.09.13l-.02-.13-99.97 13.8-55.21 7.52c-.23.03-.46.07-.68.11-5.51-2.41-11.51-3.41-17.44-2.91-9.47.81-18.05 5.33-24.14 12.72-6.42 7.79-9.35 17.77-8.24 28.1 2.1 19.65 18.49 34.57 37.25 34.57 1 0 2.01-.04 3.02-.13 5.32-.46 14.97-4.43 19.2-7.57h.45c1.05 0 2.11-.05 3.17-.16.08 0 .15-.02.23-.03l147.49-15.69c4.9-.52 9.5-2.74 12.96-6.24l29.82-30.2c1.56-1.58 2.27-3.88 1.92-6.15zm-37.45 30.72c-.84.84-1.78 1.57-2.8 2.16-13.7-6.49-20.44-16.28-20.61-29.92-.15-12.57 7.1-19.76 10.35-22.35l1.62-.23c5.3 2.76 10.58 5.51 15.51 8.07l.41.21c.66.34 1.32.69 1.96 1.02.04.02.09.05.13.07.8.42 1.58.82 2.33 1.21l1.86.97 18.18 9.46-18.18 18.42-2.34 2.37-8.43 8.54zm-176.97-22.5c.92-1.43 2.07-2.68 3.39-3.69 1.09-.85 2.29-1.54 3.58-2.05 1.12-.46 2.31-.77 3.54-.94l55.22-7.52 85.97-11.86c-1.75 2.58-3.39 5.71-4.53 9.42l-44.14 5.9v.03s-27.31 3.8-27.31 3.8l-43.68 5.85-19.84 2.79-.02-.13-14.22 2.09c.65-1.39 1.36-2.62 2.05-3.68zm104.4-2.82 41.23-5.51c-.07 1.02-.11 2.08-.09 3.17.06 4.94.84 9.51 2.33 13.69l-150.51 18.76h-.04c-.15-.36-.3-.72-.44-1.09-.88-2.35-1.46-4.79-1.7-7.28-.23-2.38-.15-4.62.16-6.71l37.78-5.32 43.67-5.84 27.62-3.84v-.03zm-98.15 50.4c-2.72 1.11-5.61 2.05-7.75 2.23-15.67 1.34-29.85-10.9-31.6-27.29-.87-8.16 1.42-16.02 6.45-22.14 4.71-5.71 11.32-9.21 18.62-9.83.77-.07 1.54-.1 2.32-.1 1.08 0 2.16.07 3.24.19-2.07 1.62-3.86 3.47-5.3 5.53-5.61 7.97-7.2 18.38-4.34 28.56.41 1.48.91 2.93 1.49 4.33 0 .03.02.07.04.11 3.19 7.72 8.66 13.89 14.93 16.63.89.38 1.97.82 3.11 1.26-.4.17-.81.35-1.23.52zm15.09-5.49c-.07 0-.13.01-.2.02-1.23.12-2.44.15-3.64.07-5.96-.34-11.53-2.98-15.51-7.37l.42-.05 149.21-18.6c2.7 4.14 6.28 7.78 10.74 10.93l-141.04 15z"/><path d="m390.9 107.42-21.9 22.18-.09.1s-.01-.01-.02-.02c-3.49-4.79-6.4-10.96-6.99-18.59-.67-8.69 1.92-15.89 4.65-20.88.06-.11.12-.22.19-.34.76.26 1.51.53 2.26.79v.82c12.2 6.35 21.24 11.05 21.24 11.05 1.7.88 2.05 3.47.67 4.88z"/></g></svg>