<svg viewBox="0 0 980.33 734.12" xmlns="http://www.w3.org/2000/svg"><path d="m569.26 451.11c0 6.33-32.63 11.46-72.88 11.46s-72.88-5.13-72.88-11.46 32.63-11.45 72.88-11.45 72.88 5.13 72.88 11.45z" fill="#f9b233"/><path d="m681.82 346.99-32.08 32.5-.14.14-11.45 11.6c-4.13 4.19-9.58 6.81-15.42 7.43l-216.2 23s-.07 0-.1 0c-2.42.25-4.83.28-7.21.09.03.01.09.04.12.1.57 1.22-16.54 10.29-26.32 11.13-26.16 2.24-49.73-18.01-52.64-45.22-2.92-27.2 15.92-51.07 42.08-53.31 8.44-.72 16.6.9 23.89 4.34-1.38.5-2.66 1.03-3.86 1.58 2.17-.9 4.46-1.52 6.82-1.85l30.19-4.1c-5.04-.93-9.85-3.01-14.01-6.23-2.37-1.84-4.6-4.06-6.41-6.75-2.29-2.89-3.96-6.38-4.53-10.57-30.06 4.92-46.26-6.2-46.26-6.2s-39.46-20.66-22.93-63.5c1.93-5 3.25-9.59 4.07-13.8-.37-30.1-12.82-39.87-14-40.74-.03-.02-.06-.04-.09-.06-.54-.34-.35-1.16.29-1.22 16.1-1.49 28.51.08 38.02 3.79 2 .64 4.06 1.36 6.16 2.19 15.56 6.12 20.56 21.6 21.21 32.23 2.81 14.08 1.27 29.65-.98 42.41-4.13 23.45 8.04 32.26 15.01 35.33.36-2.44.97-5.04 1.89-7.82 2.1-7.72 3.79-10.59 5.04-11.3 17.57-31.05 55.83-38.45 55.83-38.45-24.51-4.62-41.09-17.49-45.75-21.48-.54-.46-.29-1.34.41-1.45 7.04-1.08 32.28-5.17 21.12-6.19-8.43-.76-15.62-9.1-19.58-14.78-1.29-1.83.08-4.39 2.32-4.28 7.01.32 18.94-2.21 26.06-20.81.05-.13.1-.25.15-.38-14.68-12.1-19.36-43.32-20.57-54.15-.25-2.21 1.28-4.26 3.49-4.6 20.69-3.12 41.45 15.46 50.97 25.47 2.9-1.4 5.9-2.64 8.96-3.68-4.08-10.34-10.3-28.98-5.19-35.8.93-1.24 2.32-1.83 4.05-1.88.74-1.3 1.45-1.73 1.45-1.73 11.83.47 24.85 14.19 34.01 26.15 2.87 3.36 5.29 6.71 6.99 9.79 1.11 1.66 2.05 3.12 2.81 4.33 17.62 8.26 25.67 26.35 26.91 48.07.19 3.35 3.4 5.68 6.66 4.85 3.63-.92 7.56-2.08 11.66-3.56.35-1.35.82-2.71 1.41-4.05 4.64-10.57 15-16.25 23.14-12.67 8.13 3.57 10.97 15.04 6.32 25.61-2.53 5.75-6.75 10.06-11.38 12.2-1.67 3.88-4.89 7.49-8.91 10.77-8.11 8.47-18.75 14.23-30.41 16.19-2.3.87-4.26 1.56-5.7 2.05-.21.7-.43 1.41-.66 2.11-6.56 20.54-16.44 28.03-24.85 30.29 9.3 18.78 32.89 30.03 32.89 30.03s18.51-5.89 23.04 6.33c1.36 3.67.64 6.07-1.03 7.62l9.79-2.67s29.17-4.07 29.18-4.07h.38c.31-.01.61.06.88.2 8.14 4.24 16.26 8.47 23.83 12.4 1.25.44 2.51.88 3.76 1.33 1.11.38 2.21.77 3.32 1.16v1.2c17.86 9.3 31.1 16.19 31.1 16.19 2.5 1.29 3.01 5.08.98 7.14z" fill="#f9b233"/><path d="m649.74 322.46v57.03l-.16.12-21.11 16.5s-.07-.03-.1-.05c-2.41-1.26-29.01-15.87-31.31-45.79-1.75-22.61 11.6-38.29 14.26-41.3 10.45 3.67 20.89 7.33 31.34 11 1.25.44 2.51.88 3.76 1.33 1.11.38 2.21.77 3.32 1.16z" fill="#fff"/><path d="m522.19 321.69 15.78-2.27 5.73-.82 4.95-.72" fill="none" stroke="#1d1d1b" stroke-miterlimit="10" stroke-width="11.76"/><path d="m578.6 314.11 9.79-2.67s29.17-4.07 29.18-4.07h.38c.31 0 .61.06.88.2 8.14 4.24 16.26 8.47 23.83 12.4 1.18.62 2.35 1.22 3.49 1.82 1.21.64 2.41 1.26 3.59 1.87 17.86 9.3 31.1 16.19 31.1 16.19 2.5 1.29 3.01 5.08.98 7.14l-32.08 32.5-.14.14-11.45 11.6c-4.13 4.19-9.58 6.81-15.42 7.43l-216.2 23s-.07.01-.1.01c-2.42.25-4.83.28-7.21.09 0 0-.01 0-.03-.01-11.69-.92-22.54-6.99-29.32-16.99-.93-1.37-1.78-2.8-2.56-4.26-1.09-2.03-2.04-4.14-2.83-6.32 0 0-.01 0 0-.01-1.37-3.74-2.28-7.67-2.68-11.73-1.3-13.28 3.2-24.08 7.96-31.47 1.77-2.75 3.98-5.12 6.52-7.03.06-.05.12-.09.18-.13 1.86-1.4 3.88-2.55 6.03-3.43 2.17-.9 4.46-1.52 6.82-1.85l30.19-4.1.73-.1 1.43-.19 11.63-1.59 9.35-1.27 18.28-2.49 9.01-1.23.25-.03" fill="none" stroke="#1d1d1b" stroke-miterlimit="10" stroke-width="11.76"/><path d="m394.65 361.89-30.68 4.51 59.74-8.4 29.86-4 34.08-4.56" fill="none" stroke="#1d1d1b" stroke-miterlimit="10" stroke-width="11.76"/><path d="m526.4 344.26 68.95-9.23 1.7-.23" fill="none" stroke="#1d1d1b" stroke-miterlimit="10" stroke-width="11.76"/><path d="m602.62 371.16-235.32 29.34" fill="none" stroke="#1d1d1b" stroke-miterlimit="10" stroke-width="11.76"/><path d="m611.32 308.97c-2.47 1.95-17.82 13.92-17.53 37.53.32 25.71 15.07 40.64 34.68 49.6" fill="none" stroke="#1d1d1b" stroke-miterlimit="10" stroke-width="11.76"/><path d="m490.25 258.57s0 0 .01 0c3.59 4.28 16.08 9.87 17.2 10.46.04.02.06.04.08.05s.03.02.03.02c-1.66 6.28-4.01 11.99-6.88 17.19-2.4 4.39-5.18 8.41-8.21 12.1 1.87 3.62 3.55 6.87 4.81 9.29 1.39 2.69 3.86 4.66 6.8 5.42 4.86 1.25 12.64 3.85 18.1 8.58h.01c4.21 3.64 7.04 8.55 6.09 15.07-.48 3.26-1.13 5.7-1.89 7.5-2.62 6.19-6.51 4.84-8.72 3.35-.9-.61-2.12-.37-2.69.55 0 .01-.02.03-.03.04-5 8.38-12.5 3.74-12.5 3.74-.14.13-.28.26-.41.39-7.59 6.98-12.06 2.03-14.4-2.89-1.12-2.34-1.75-4.66-2.01-5.71-5.79-2.85-11.07-8.84-15.71-16.17-1.43-2.22-2.78-4.57-4.07-6.99-1.65.97-3.3 1.88-4.93 2.73-6.5 3.42-12.79 6.03-18.29 7.98-2.48.88-4.8 1.63-6.9 2.26-3.18.95-6.44 1.44-9.69 1.46-2.2.03-4.4-.16-6.55-.57-5.04-.93-9.85-3.01-14.01-6.23-2.37-1.84-4.6-4.06-6.41-6.75-2-2.96-3.5-6.47-4.11-10.64-.43-2.85-.45-6.01.08-9.5.36-2.44.97-5.04 1.89-7.82.27-.8.55-1.61.87-2.44 1.2-3.15 2.6-6.1 4.17-8.86 17.57-31.05 55.83-38.45 55.83-38.45" fill="none" stroke="#1d1d1b" stroke-miterlimit="10" stroke-width="12.94"/><path d="m378.39 234.15c-3.94-3.61-11.32-11.46-11.32-11.46 3.07 11.7-1.41 21.05-1.41 21.05 0-2.85-12.91-15.75-12.91-15.75 0 4.65-4.65 20.48-4.65 20.48l-6.2-15.83-13.95 15.83c1.13-7.94 1.56-14.94 1.48-21.09-.37-30.1-12.82-39.87-14-40.74-.03-.02-.06-.04-.09-.06 0 0 15.63-4.61 38.31 2.57 2 .64 4.06 1.36 6.16 2.19 15.56 6.12 20.56 21.6 21.21 32.23.44 7.09-1.05 12.03-2.63 10.58z" fill="#fff"/><path d="m394.97 310.81c-.14.02-.28.05-.42.07-30.06 4.92-46.26-6.2-46.26-6.2s-39.46-20.66-22.93-63.5c1.93-5 3.25-9.59 4.07-13.8 5.1-26.06-8.78-37.46-14-40.74-.03-.02-.06-.04-.09-.06-.54-.34-.35-1.16.29-1.22 16.1-1.49 28.51.08 38.02 3.79 16.71 6.52 24.43 19.65 27.37 34.42 2.81 14.08 1.27 29.65-.98 42.41-4.13 23.45 8.04 32.26 15.01 35.33-.53 3.49-.51 6.65-.08 9.5z" fill="none" stroke="#1d1d1b" stroke-miterlimit="10" stroke-width="12.94"/><path d="m500.67 263.81c-.16.19-.31.37-.47.55" fill="none" stroke="#1d1d1b" stroke-miterlimit="10" stroke-width="12.94"/><path d="m531.67 141.8c-17.09-7.34-39.9-1.56-39.9-1.56-11.95-26.52-9.6-36.88-7.52-40.51.74-1.3 1.45-1.73 1.45-1.73 11.83.47 24.85 14.19 34.01 26.15 2.71 3.55 5.09 6.95 6.99 9.79 1.11 1.66 2.05 3.12 2.81 4.33 1.39 2.2 2.16 3.53 2.16 3.53z" fill="#f9b233"/><path d="m500.69 286.3 2.01 3.06s22.18 21.52 35.27 30.07c.37.24.73.47 1.08.69 1.79 1.11 3.96.2 4.65-1.52.2-.49.28-1.04.2-1.63-.1-.8-.19-1.49-.25-2.11-.11-.92 1.08-1.4 1.64-.66 4.06 5.33 14.15 14.11 20.41 2.62h.05c.73.06 9.14.75 12.85-2.72 1.67-1.55 2.39-3.95 1.03-7.62-4.53-12.22-23.04-6.33-23.04-6.33s-23.59-11.25-32.89-30.03" fill="none" stroke="#1d1d1b" stroke-miterlimit="10" stroke-width="12.94"/><path d="m595.3 205.11c-.2 1.23-.56 2.43-1.07 3.61-1.67 3.88-4.89 7.49-8.91 10.77-9 7.34-21.99 13-30.41 16.19-2.3.87-4.26 1.56-5.7 2.05-1.69.57-2.68.87-2.68.87-6.54 24.42-22.54 29.07-29.42 30.1-6.87 1.03-33.19-16.51-37.66-17.37s-22.7-19.26-21.64-22.36 7.09-6.28 7.09-6.28c-12.32-3.53-9.7-11.5-9.7-11.5s.34-8.02 15.65-14.38c11.33-4.71 22.87-.38 28.11 2.19 1.29.63 2.2 1.16 2.63 1.41-.75-.6-2.66-2.94-1.83-11.06.12-1.22.3-2.57.56-4.06.36-2.07.87-4.41 1.55-7.06 1.24-4.8 2.8-7.09 4.46-7.78h.01c.73-.3 1.48-.29 2.22-.06 4.78 1.48 9.61 12.22 9.61 12.22 6.64 17.37-2.42 21.24-2.42 21.24 37.17 16.56 54.69-.36 58.69-5.16.62-.74.92-1.19.92-1.19s1.13-.59 2.87-1.3c6.08-2.48 19.54-6.39 17.07 8.91z" fill="#fff"/><path d="m543.34 166.25s6.83 1.18 8.11 6.44 3.5 20.65 3.5 20.65h-16.03s-3.34-28.07 4.42-27.09z" fill="#fff"/><path d="m507.57 269.11s7.25 3.42 16.13 1.02c8.41-2.26 18.29-9.75 24.85-30.29.23-.7.45-1.41.66-2.11.15-.48.29-.95.43-1.43.61-.04 1.21-.09 1.81-.16 1.16-.11 2.31-.27 3.46-.46 11.66-1.96 22.3-7.72 30.41-16.19 2.96-3.08 5.58-6.53 7.78-10.28.79-1.33 1.52-2.7 2.2-4.1-3.24 1.02-6.58.96-9.6-.36-3.58-1.57-6.13-4.67-7.47-8.55-.99-2.85-1.32-6.13-.92-9.52-.86.33-1.72.65-2.57.95-4.1 1.48-8.03 2.64-11.66 3.56-3.26.83-6.47-1.5-6.66-4.85-1.24-21.72-9.29-39.81-26.91-48.07-.34-.17-.68-.33-1.03-.48-.44-1.22-1.04-2.51-1.78-3.85-1.7-3.08-4.12-6.43-6.99-9.79-10.53-12.3-27.03-24.71-35.46-24.42-1.73.05-3.12.64-4.05 1.88-5.11 6.82 1.11 25.46 5.19 35.8-3.06 1.04-6.06 2.28-8.96 3.68-9.52-10.01-30.28-28.59-50.97-25.47-2.21.34-3.74 2.39-3.49 4.6 1.21 10.83 5.89 42.05 20.57 54.15-.05.13-.1.25-.15.38-7.12 18.6-19.05 21.13-26.06 20.81-2.24-.11-3.61 2.45-2.32 4.28 3.96 5.68 11.15 14.02 19.58 14.78 11.16 1.02-14.08 5.11-21.12 6.19-.7.11-.95.99-.41 1.45 4.66 3.99 21.24 16.86 45.75 21.48 12.38 4.43 23.72 10.02 32.44 14.83h.01c3.88 2.14 7.25 4.13 9.95 5.78 4.14 2.56 6.73 4.32 7.25 4.68.04.02.06.04.08.05s.03.02.03.02" fill="none" stroke="#1d1d1b" stroke-miterlimit="10" stroke-width="11.76"/><path d="m605.61 196.52c-2.53 5.75-6.75 10.06-11.38 12.2-.37.18-.75.34-1.13.49-.35.13-.69.25-1.04.36-3.23 1.01-6.57.96-9.59-.37-4.16-1.82-6.94-5.72-8.03-10.51-.54-2.35-.67-4.92-.36-7.56.13-1.16.35-2.33.66-3.5.35-1.35.82-2.71 1.41-4.05 4.64-10.57 15-16.25 23.14-12.67 8.13 3.57 10.97 15.04 6.32 25.61z" fill="#1d1d1b"/><path d="m515.63 192.27c0 6.39-3.81 11.57-8.52 11.57-9.03 0-8.52-5.18-8.52-11.57s3.81-11.57 8.52-11.57 8.52 5.18 8.52 11.57z" fill="#1d1d1b"/><path d="m517.79 178.51c-2.75-2.45-7.2-6.34-10.79-4.69-1.83.44-3.42 2.17-4.27 3.84-2.33 6.22 1.71 13.87 5.44 18.84 0 0-7.87 5.16-7.87 5.16-1.1-2.06-1.92-4.04-2.72-6.2-2.37-6.5-3.86-13.91-.78-20.56 4.24-8.83 12.82-10.86 18.81-2.59 1.31 1.81 2.26 3.71 2.94 5.74l-.76.45z" fill="#1d1d1b"/><path d="m546.73 169.74c-3.76-1.63-5.83-2.62-7.93 1.51-.28 5.65 1.23 12.38 3.65 17.63.44.9 1.04 1.72 1.29 1.88.05.03.07.03-.02-.03-.04-.03-.1-.06-.19-.1-.08-.02 0 0 .02 0 6.38.74 13.06-.64 19.58-1.33 0 0 1.43 8.11 1.43 8.11-5.29 1.06-10.45 1.78-16.02 1.93-2.51.01-5.2.03-7.76-.84-4.43-1.81-5.94-6.55-7.06-10.44-1.04-4.16-1.58-8.21-1.53-12.45.14-2.58.01-4.74 1.41-7.38 2.34-4.18 7.63-6.62 11.53-2.88 1.16 1.12 1.9 2.42 2.27 3.88l-.68.51z" fill="#1d1d1b"/><path d="m536.52 176.85s2.49-4.43 7.4-1.11c2.83 1.91 4.66 10.95 5.11 16.52.46 5.57-10.68 0-10.68 0l-1.83-15.42z" fill="#1d1d1b"/><path d="m533.88 234.8s.46 27.32-15.71 25.37-25.28-30.05-23.44-40.78c0 0 31.77 14.48 39.15 15.41z" fill="#1d1d1b"/><path d="m504.5 216.1s-.03-.11-.04-.15l.04.07c.47.98 1.14 1.84 1.87 2.66 1.65 1.78 3.72 3.32 5.86 4.51 0 0 1.35.78 1.35.78l1.45.67c2.82 1.38 6.21 2.43 9.26 3.25 6.59 1.68 13.47 2.44 20.26 2.78 0 0 6.94.18 6.94.18s-.08 10.59-.08 10.59c-9.56-.21-19.54-1.07-28.81-3.39-3.29-.92-6.99-2.08-10.11-3.44-1.61-.77-3.83-1.79-5.35-2.75-4.66-2.73-9.04-6.49-11.49-11.41-.23-.47-.46-1.07-.62-1.57 0 0 9.48-2.78 9.48-2.78z" fill="#1d1d1b"/><path d="m511.14 155.33c-5.56.04-8.95-.57-13.31 1.45-4.51 2.32-6.92 5.44-11.77 8.6-3.46-8.86 3.44-19.86 13.24-19.41 5.55.21 10.58 3.97 11.84 9.37z" fill="#1d1d1b"/><path d="m530.27 156.08c-5.3-5.09-.09-13.41 6.61-11.78 2.11.51 3.67 2.13 4.16 4.54-1.87 1.77-2.78 2.8-3.13 3.72-.36.88-.25 1.18-.57 1.43-2.01.97-3.83 1.24-7.08 2.1z" fill="#1d1d1b"/><path d="m453.93 163.32s6.13-6.69 10.96-7.24c0 0-6.82-15.46-23.77-18.57 0 0 1.11 18.39 12.82 25.82z" fill="#fff"/><path d="m485.8 391.85s-23.75 14.51-49.15 5.94c-5.08-1.72-9.12-3.17-12.33-4.4-12.83-4.89-12.41-6.16-12.41-6.16s3.3-16.16 8.25-20.12c1.53-1.22 2.69-4.78 3.55-9.11 1.92-9.61 2.39-22.99 2.39-22.99s-.02 0-.05-.01c-.32-.04-1.98-.28-4.39-.86-5.95-1.45-16.47-4.97-22.58-12.69-2.29-2.89-3.96-6.38-4.53-10.57-.39-2.85-.27-6.03.5-9.57.66-3.04 1.3-5.63 1.89-7.82 2.1-7.72 3.79-10.59 5.04-11.3 1.77-1 2.68 2.31 2.68 2.31s-3.01 11.83 19.91 15.26c22.92 3.44 30.76 12.37 30.76 12.37s4.82 2.17 5.6 11.17c.14 1.6.16 3.42 0 5.49-.31 3.84-1.24 8.52-3.11 14.22-1.38 4.19-2.81 7.84-4.24 11-5.61 12.41-11.25 17.49-13.69 19.24 5.53-3.37 27.97-15.84 38.33-3.17 5.55 6.78 7.56 11.97 8.14 15.58.67 4.13-.55 6.19-.55 6.19z" fill="#1d1d1b"/><path d="m489.99 395.98c-.68.69-1.6 1.17-2.42 1.67-2.7 1.56-5.53 2.89-8.41 4.06-15 5.99-31.91 7-47.03.86-7.11-2.71-14.46-5.21-20.9-9.46-.99-.69-2.17-1.52-2.97-2.55-1.06-1.44-1.52-2.96-.95-4.84 0 0-.14.54-.14.54.72-2.43 1.49-4.62 2.35-6.9 2.1-5.3 4.08-11 8.34-15.13 2.31-4.82 2.37-10.67 4.23-15.83 1.45-4.36 3.17-8.88 2.41-13.45l1.61 1.67c-.19 0-.38-.03-.56-.08l.31.07c-2.61.25-5.29 1.14-7.93.64-4.25-.93-8.31-2.28-12.3-4.3-13.11-6.38-19.6-19.2-16.05-33.57 0 0 1.13-4.84 1.13-4.84 1.48-5.77 3.69-17.21 10.78-18.36 4.48-.8 7.91 2.9 8.9 6.74 0 0 .03 3.04.03 3.04.02-.07.04-.14.05-.2s0-.02.01-.04c0 0 0-.02 0-.03v.07c0 .18.03.38.05.57.87 3.29 5.16 4.92 8.37 6.02 3.09.88 6.44 1.39 9.63 1.92 9.55 1.71 19.36 4.66 27.5 10.36 1.38.98 2.81 2.12 3.98 3.4 0 0-2.12-1.56-2.12-1.56s.34.16.34.16l.17.09c3.93 2.14 6.54 6.44 7.74 10.49 2.79 9.86.16 20.11-2.8 29.04-4.16 11.71-9.59 24.16-19.81 32.07 0 0-6.89-10.4-6.89-10.4 5.19-3.11 10.47-5.67 16.28-7.49 12.46-3.85 24.54-3.11 32.34 8.88 4.85 6.82 9.46 16.13 6.03 24.71-.28.66-.72 1.36-1.3 1.96zm-8.38-8.26c-.43.39-.93 1.18-1.09 1.55.48-3.45-1.22-6.69-3.06-9.88-1.15-1.89-2.55-3.78-3.98-5.5-4.23-4.64-10.4-3.5-16.83-1.6-4.57 1.5-9.25 3.71-13.52 6.3 0 0-6.89-10.4-6.89-10.4 7.82-6.52 11.8-16.44 15.23-25.96 2.23-6.75 5.74-19.06.95-24.59-.1-.08.05.03.09.04 0 0 .27.13.27.13l-2.12-1.56.06.07s-.01-.01-.02-.02c-6.74-5.85-15.62-8.31-24.35-10.05-3.94-.7-8.32-1.39-12.11-2.74-8.23-2.6-16.66-9.44-15.57-19.23 0 0 .07-.5.07-.5s.05-.28.05-.28l.1-.44.03 3.04c.05.16.02.07.02.08l-.02-.04s-.02-.06-.01-.04c1.25 2.06 4.9 2.5 6.66.75.25-.29-.07.08-.28.51-2.14 4.32-3.23 9.85-4.46 14.56-3.76 13.48 5.22 21.91 17.21 26.89 1.42.57 2.82 1.06 4.11 1.97 1.42.91 2.82 2.25 4.4 2.71-.15-.05-.31-.07-.46-.06l1.61 1.67c-1.2 4.64-.04 9.32.36 14 .4 4.84-.33 9.67-1.77 14.31-.73 2.09-1.5 4.27-3.3 6.09-1.87 1.43-2.84 3.77-3.64 6.04-1.53 4.15-2.15 8.9-2.87 13.23.21-.48.26-1.52.24-1.62.01-1.11-.54-2.29-1.22-3.07.88.36 1.69.74 2.67 1.09 5.67 2.1 12.14 4.08 17.88 6.05 3.95 1.38 8.65 2.55 12.81 2.81 10.86.93 22.14-1.71 32.05-6.3.34-.16 1.29-.62 1.6-.78-.34.21-.66.48-.92.78z" fill="#1d1d1b"/><path d="m450.31 274.99c4.78 6.2 6.77 13.62 10.07 20.53 3.04 6.76 6.55 13.23 9.9 19.83 0 0-9.94 6.29-9.94 6.29-4.89-6.59-8.48-14.07-11.04-21.85-2.38-7.9-4.93-16.35-1.97-24.5 0 0 2.97-.3 2.97-.3z" fill="#1d1d1b"/><path d="m475.66 263.69c3.28 1.79 5.17 4.24 6.77 6.82 1.65 2.57 3.22 5.16 4.77 7.76 2.67 4.48 5.14 9.06 7.52 13.66.2.35.36.68.54 1.03-.13-.21-.31-.38-.54-.49 0 0-7.94 8.68-7.94 8.68-2.58-2.7-4.15-6.26-5.82-9.54-2.69-5.53-4.92-11.22-6.97-17-1.06-2.87-1.8-5.89-1.15-9.58l2.82-1.35z" fill="#1d1d1b"/><path d="m499.95 333.36c6.88 5.54 9.14 15.08 7.44 23.53 0 0-12.14-4.47-12.14-4.47 1.57-2.26 2.74-4.75 3.09-7.53.41-2.84-.17-6.02-1.41-8.63 0 0 3.02-2.89 3.02-2.89z" fill="#1d1d1b"/><path d="m512.93 328.97c6.88 5.54 9.14 15.08 7.44 23.53 0 0-12.14-4.47-12.14-4.47 1.57-2.26 2.74-4.75 3.09-7.53.41-2.84-.17-6.02-1.41-8.63 0 0 3.02-2.89 3.02-2.89z" fill="#1d1d1b"/><path d="m558.74 307.92c5.83-.22 11.01 3.66 13.73 8.65 0 0-12.49 3.37-12.49 3.37 1.03-2.86.19-5.87-2.03-7.92 0 0 .79-4.1.79-4.1z" fill="#1d1d1b"/><path d="m373.02 432.99c-26.16 2.24-49.73-18.01-52.64-45.22-2.92-27.2 15.92-51.07 42.08-53.31 8.44-.72 16.6.9 23.89 4.34-1.38.5-2.66 1.03-3.86 1.58-2.32 1.08-4.31 2.24-6.03 3.43-.06.04-.12.08-.18.13-4.23 2.95-6.73 6-8.13 8-9.22 13.1-8.93 29.24-3.67 42.23-.01.01 0 .01 0 .01.88 2.2 1.91 4.3 3.06 6.29 4.1 7.11 9.74 12.7 15.91 15.39 5.15 2.25 15.12 5.68 15.74 5.89.02.01.03.01.03.01.03.01.09.04.12.1.57 1.22-16.54 10.29-26.32 11.13z" fill="#e94e1b" stroke="#1d1d1b" stroke-miterlimit="10" stroke-width="11.76"/><path d="m681.82 346.99-32.08 32.5-.14.14s-.02-.01-.02-.02c-5.12-7.01-9.38-16.05-10.24-27.23-.98-12.74 2.82-23.28 6.81-30.59.09-.17.18-.33.27-.49 1.11.38 2.21.77 3.32 1.16v1.2c17.86 9.3 31.1 16.19 31.1 16.19 2.5 1.29 3.01 5.08.98 7.14z" fill="#1d1d1b"/><path d="m569.26 451.11c0 6.33-32.63 11.46-72.88 11.46s-72.88-5.13-72.88-11.46 32.63-11.45 72.88-11.45 72.88 5.13 72.88 11.45z" fill="#1d1d1b"/><path d="m274.43 361.95c-20.91 2.07-41.83 4.14-62.74 6.22-8.96.89-9.05 15.01 0 14.11 20.91-2.07 41.83-4.14 62.74-6.22 8.96-.89 9.05-15.01 0-14.11z" fill="#1d1d1b"/><path d="m239.15 431.38c7.4-.87 14.8-1.75 22.2-2.62 3.78-.45 7.06-2.92 7.06-7.06 0-3.47-3.25-7.51-7.06-7.06-7.4.87-14.8 1.75-22.2 2.62-3.78.45-7.06 2.92-7.06 7.06 0 3.47 3.25 7.51 7.06 7.06z" fill="#1d1d1b"/><path d="m245.66 405.04 39.9-4.71c3.82-.45 7.01-2.92 7.06-7.06.04-3.47-3.27-7.5-7.06-7.06-13.3 1.57-26.6 3.14-39.9 4.71-3.82.45-7.01 2.92-7.06 7.06-.04 3.47 3.27 7.5 7.06 7.06z" fill="#1d1d1b"/><path d="m501.86 236.14s16.45 5.27 18.87 18.65c.18.99-2.23.69-3.05.3-5.67-2.68-5.3-2.63-11.26-10.15-2.2-2.77-4.55-8.8-4.55-8.8z" fill="#f9b233"/><path d="m488.68 221.88s12.09-4.84 20.08-5.68c.16-.02.25-.18.17-.32-.32-.63-1.47-2.16-5.4-3.26-5.28-1.47-10.59-.63-15.1 4.71-.84 1-1.16 2.38-.73 3.61.19.53.49.95.98.95z" fill="#1d1d1b" stroke="#1d1d1b" stroke-miterlimit="10" stroke-width="3.53"/><path d="m814.29 581.23c8-.63 14.19 6.74 12.15 14.5-2.12 8.06-12.2 11.23-18.64 5.87-7.95-6.63-3.8-19.55 6.49-20.37zm-.42 2.38c-3.52.39-6.78 3.41-7.61 6.81-1.94 7.93 6.43 14.32 13.57 10.32 8.69-4.86 4.48-18.3-5.96-17.13z"/><path d="m821.47 591.12h-3.01c-2.17-3.88-8-1.37-6.58 2.79 1.05 3.09 5.27 3.07 6.72.28h3.01c-1.21 4.75-6.99 6.66-10.73 3.36-2.94-2.6-2.85-7.39.23-9.85 3.65-2.92 9.33-1.17 10.36 3.41z"/><g fill="#1d1d1b"><path d="m289.79 500.75c4.41 0 6.31-.04 10.14-.68v9.5l-21.01.04c.42-4.37.53-5.66.53-9.61v-9.42c0-4.48.08-5.62-.53-10.14h11.21c-.19 2.36-.3 3.95-.3 6.12l-.04 14.21z"/><path d="m310.88 498.81c0 2.2.19 3.23 1.14 3.23 1.03 0 1.25-1.03 1.25-3.19v-11.29h9.99c-.15 2.32-.3 4.52-.3 7.14v8.81c0 2.17.15 4.25.3 6.08h-9.99c.72-2.36 1.03-3.38 1.06-6.19h-1.06c-.19 4.45-2.32 6.73-5.96 6.73-4.86 0-6.12-4.1-6.12-8.82v-6.61c0-3.42 0-4.18-.3-7.14h10.22c-.23 2.93-.23 3.8-.23 7.14v4.1z"/><path d="m337.93 496.42c-1.9 0-3.57.72-3.57 2.24 0 1.67 1.41 2.09 3.53 2.09 2.39 0 3.8-.27 5.66-.84v8.25c-1.94 1.06-4.9 1.98-8.36 1.98-7.49 0-11.21-3.91-11.21-11.59 0-7.03 3.91-11.51 11.44-11.51 3.46 0 5.62.65 7.67 1.56v8.32c-1.44-.27-2.89-.49-5.17-.49z"/><path d="m354.12 494.75c-2.05 0-5.17.84-7.83 1.98v-7.11c2.81-1.41 5.85-2.51 10.18-2.51 4.64 0 10.79 1.48 10.79 10.22v4.98c0 2.74.11 4.64.42 7.29h-10.52c.72-2.47.99-3.69.99-6.19h-1.03c-.23 4.14-2.51 6.73-6.5 6.73-3.34 0-6.16-2.09-6.16-6.12 0-5.7 5.43-7.56 12.65-7.67-.08-1.29-1.18-1.6-3-1.6zm1.33 7.52c1.22 0 1.67-.87 1.67-1.94v-1.75c-1.75.11-3.12.65-3.12 2.13 0 1.03.57 1.56 1.44 1.56z"/><path d="m389.61 502.91c0 4.94-4.48 7.22-11.28 7.22-4.07 0-7.41-.84-10.18-2.13v-7.9c3.61 1.41 5.89 2.05 8.59 2.05 1.67 0 2.58-.27 2.58-.99 0-.61-.61-.99-2.2-1.22-5.28-.8-9.04-2.09-9.04-6.42s4.45-6.42 9.92-6.42c3.95 0 7.33.8 9.8 2.01v7.03c-2.62-.95-5.58-1.44-7.56-1.44s-2.85.34-2.85 1.03c0 .76.72.99 2.24 1.18 5.39.72 9.99 1.18 9.99 6z"/><path d="m397.33 509.6c.42-4.37.53-5.66.53-9.61l.04-9.42c0-4.45-.15-5.7-.57-10.14h14.89c7.07 0 10.22 4.18 10.22 9.54 0 5.97-3.12 9.58-8.59 9.58h-5.58l-.04 3.5c0 2.62.08 3.99.3 6.57h-11.21zm10.9-20.97v3.99h2.7c1.48 0 2.39-.49 2.39-1.98s-.84-2.01-2.32-2.01z"/><path d="m444.41 498.39c0 5.55-2.81 11.74-11.47 11.74s-11.47-4.94-11.47-11.74c0-7.22 4.18-11.36 11.47-11.36 8.13 0 11.47 4.37 11.47 11.36zm-13.26-.03c0 2.77.38 4.22 1.82 4.22s1.71-1.41 1.71-4.22c0-3.08-.46-4.26-1.71-4.26-1.33 0-1.82 1.18-1.82 4.26z"/><path d="m456.57 482.85v4.71h4.45v6.99h-4.45v4.37c0 1.79 1.03 2.28 2.28 2.28 1.14 0 1.98-.23 2.92-.61v7.87c-1.79 1.03-4.1 1.71-7.26 1.71-4.98 0-8.05-2.13-8.05-7.64v-7.98h-2.01v-6.99h2.47c1.86-.76 2.77-2.89 2.77-4.71z"/><path d="m475.19 498.36c0-2.2-.19-3.23-1.1-3.23-1.06 0-1.29 1.03-1.29 3.19v11.28h-10.11c.15-2.32.3-7.1.3-7.14v-16.79c0-2.17-.15-4.25-.3-6.08h10.11v7.98c-.72 2.36-1.03 3.38-1.06 6.19h1.06c.19-4.45 2.39-6.72 6.04-6.72 4.86 0 6.31 4.1 6.31 8.81v6.61c0 3.42 0 4.18.3 7.14h-10.49c.23-2.93.23-3.8.23-7.14z"/><path d="m486.36 482.09c0-2.85 2.47-4.07 5.85-4.07s5.78 1.14 5.78 4.07c0 3.08-2.36 4.22-5.78 4.22s-5.85-1.18-5.85-4.22zm.34 27.51c.42-4.18.53-6.46.53-9.65v-2.2c0-3.69-.11-6.8-.53-10.18h10.94c-.23 2.17-.3 3.84-.3 6.04v9.88c0 2.62.04 3.95.3 6.12h-10.94z"/><path d="m511.44 498.36c0-2.2-.19-3.23-1.14-3.23-1.03 0-1.25 1.03-1.25 3.19v11.28h-9.99c.15-2.32.3-4.52.3-7.14v-8.82c0-2.17-.15-4.25-.3-6.08h9.99c-.72 2.36-1.03 3.38-1.06 6.19h1.06c.19-4.45 2.32-6.72 5.96-6.72 4.86 0 6.12 4.1 6.12 8.81v6.61c0 3.42 0 4.18.3 7.14h-10.22c.23-2.93.23-3.8.23-7.14v-4.1z"/><path d="m244.81 526.05c-14.78 0-23.74 10.09-23.74 23.59 0 14.92 9.24 23.45 23.17 23.45 11.23 0 18.19-2.84 27-6.4l.29 31.13c-8.96 5.26-19.47 9.38-35.25 9.38-30.13 0-52.02-19.9-52.02-57.56 0-35.39 24.02-57.57 53.73-57.57 13.22 0 22.17 2.56 31.27 6.96v31.55c-7.11-2.42-14.07-4.55-24.45-4.55z"/><path d="m345.16 522.49v31.55c-4.97-1.85-9.81-2.7-15.49-2.7-10.94 0-17.34 4.55-17.34 18.9v33.83h-34.54c.85-8.53 1.42-15.78 1.42-25.58l.14-29.56c0-11.66-.14-18.05-1.56-27.29h34.25c-2.56 9.67-3.41 14.21-3.55 25.16h3.7c.71-17.06 7.96-26.86 21.18-26.86 4.26 0 8.53.85 11.8 2.56z"/><path d="m347.29 562.72c0-26.15 17.2-42.78 43.78-42.78 21.75 0 34.82 10.09 34.82 25.58 0 18.33-15.35 24.3-43.92 24.73 1.56 6.54 6.25 10.09 14.78 10.09 9.24 0 16.92-1.56 27.15-5.83l.14 23.59c-8.39 4.26-19.9 7.96-34.96 7.96-27.01 0-41.79-16.77-41.79-43.35zm34.11-3.27c11.8-.43 18.05-2.84 18.05-9.95 0-4.69-2.13-8.24-7.96-8.24-7.25 0-10.09 7.25-10.09 15.49z"/><path d="m464.12 545.09c-7.96 0-19.19 3.13-29.14 7.53v-23.45c10.09-5.26 21.18-9.24 36.67-9.24 17.62 0 38.66 6.25 38.66 36.96v19.9c0 10.23.43 17.34 1.56 27.29h-34.68c2.27-8.39 3.13-13.08 3.27-21.6h-3.55c-1.56 14.64-10.52 23.59-25.3 23.59-13.36 0-23.74-7.82-23.74-22.88 0-21.89 20.47-28.71 49.18-29.14 0-6.54-4.26-8.95-12.93-8.95zm2.85 34.97c6.96 0 10.09-4.98 10.09-11.66v-4.55c-10.38.43-17.62 2.99-17.62 9.38 0 4.83 2.98 6.82 7.53 6.82z"/><path d="m554.1 504.01v17.62h17.77v23.17h-17.77v23.31c0 6.68 3.7 8.67 8.53 8.67s8.1-1.14 11.94-2.7v25.87c-6.4 3.7-14.78 6.25-25.58 6.25-17.62 0-27.86-7.67-27.86-27.01v-34.4h-9.24v-23.03h10.23c13.3-1.85 23.08-10.94 23.08-17.77h8.9z"/><path d="m581.81 604.08c1.56-15.63 1.85-24.16 1.85-36.1v-8.24c0-13.79-.28-25.44-1.85-38.09h36.1c-.85 8.1-1.14 14.36-1.14 22.6v36.96c0 9.81.14 14.78 1.14 22.88h-36.1z"/><path d="m705.76 562.29c0 20.89-10.23 43.78-41.65 43.78s-41.79-18.19-41.79-43.78c0-27.43 15.21-42.78 41.65-42.78 29.71 0 41.79 16.2 41.79 42.78zm-51.6-.14c0 12.65 2.7 19.05 10.09 19.05s9.52-6.54 9.52-19.05c0-13.79-2.98-19.19-9.52-19.19s-10.09 5.4-10.09 19.19z"/><path d="m757.92 561.01c0-10.09-1.28-14.78-6.96-14.78s-7.82 5.12-7.82 14.92v42.92h-32.98c.57-8.67 1.14-16.91 1.14-26.72v-32.98c0-8.1-.57-15.92-1.14-22.74h32.83c-2.42 8.39-3.41 12.22-3.55 21.6h3.7c1.28-15.63 9.38-23.59 22.88-23.59 18.76 0 23.74 14.78 23.74 32.98v24.73c0 12.79 0 15.63 1 26.72h-33.69c.85-10.94.85-14.21.85-26.72v-16.35z"/><path d="m607.38 512.81-8.32-4.98-8.38 4.9-1.3-9.62-9.05-3.49 6.7-7.02-2.91-9.25 9.67.87 5.42-8.05 5.34 8.1 9.68-.78-3 9.23 6.64 7.08-9.09 3.41z"/></g></svg>