<svg viewBox="0 0 747.78 658.27" xmlns="http://www.w3.org/2000/svg"><path d="m548.69 317.44c-4.05 9.2-10.73 16.11-18.12 19.67-.29.14-.51.37-.65.66-2.75 6.14-7.91 11.87-14.29 17.08-.03.03-.06.06-.09.09-13.17 13.75-30.47 23.11-49.4 26.33-.08.01-.16.04-.24.07-3.36 1.27-6.25 2.3-8.51 3.07-.43.15-.75.48-.89.91-.29.92-.58 1.84-.88 2.76-10.7 33.5-26.8 45.71-40.53 49.38-14.47 3.93-26.3-1.65-26.3-1.65s-.02-.02-.05-.03c-.02-.02-.05-.05-.1-.06-.78-.55-5.02-3.44-11.86-7.65-4.4-2.71-9.9-5.94-16.23-9.42-14.19-7.86-32.66-16.97-52.81-24.19-.07-.02-.14-.04-.21-.06-39.92-7.54-66.92-28.5-74.51-35-.89-.74-.48-2.2.68-2.36 11.46-1.77 52.63-8.44 34.44-10.1-13.76-1.23-25.47-14.83-31.93-24.1-2.09-2.99.13-7.16 3.78-6.98 11.43.52 30.89-3.61 42.51-33.94.06-.22.16-.41.24-.62-23.94-19.73-31.59-70.64-33.55-88.3-.41-3.63 2.09-6.97 5.7-7.5 33.23-5.02 66.6 24.33 82.41 40.8.42.44 1.06.55 1.61.29 4.01-1.89 8.12-3.6 12.31-5.08.76-.27 1.14-1.09.85-1.83-6.64-17.09-16.03-46.2-7.92-57.02.02-.03.05-.06.06-.08 1.05-3.13 2.43-4.73 3.17-5.41.29-.27.68-.42 1.07-.39 9.4.57 19.24 6.21 28.56 14.05.03.02.05.04.08.06 19.02 13.15 39.8 34.98 45.6 50.23.13.34.39.62.73.77 29.54 13.23 42.99 43.04 45.04 78.93.32 5.48 5.54 9.28 10.86 7.93 5.7-1.44 11.88-3.27 18.31-5.56.44-.16.77-.52.89-.96.55-1.97 1.24-3.94 2.1-5.89 7.57-17.24 24.46-26.5 37.74-20.68 13.25 5.83 17.87 24.52 10.31 41.78z" fill="#f9b233"/><path d="m377.7 426.5c-.26.31-.51.61-.77.9" fill="none" stroke="#1d1d1b" stroke-miterlimit="10" stroke-width="21.1"/><path d="m423.05 227.52c-27.86-11.97-65.07-2.53-65.07-2.53-16.91-37.48-16.28-55.18-13.6-63.08 1.5-4.5 3.69-5.83 3.69-5.83 9.58.38 19.63 6.1 29.15 14.11 24.7 20.84 45.83 57.33 45.83 57.33z" fill="#fff"/><path d="m532 330.78c-.32 1.99-.92 3.96-1.74 5.87-2.71 6.33-7.98 12.22-14.53 17.57-14.68 11.97-35.84 21.18-49.57 26.39-3.75 1.42-6.93 2.55-9.29 3.34-2.77.93-4.39 1.42-4.39 1.42-10.66 39.83-36.75 47.4-47.97 49.08-11.21 1.69-54.13-26.92-61.41-28.32-7.3-1.41-37.03-31.41-35.29-36.46 1.73-5.05 11.56-10.24 11.56-10.24-20.09-5.75-15.82-18.76-15.82-18.76s.55-13.06 25.52-23.45c18.48-7.68 37.32-.6 45.85 3.58 2.17 1.06 3.67 1.95 4.34 2.34-1.17-.87-4.43-4.59-3.06-18.1.21-1.98.51-4.18.93-6.62.59-3.36 1.41-7.17 2.52-11.49 2.03-7.88 4.59-11.61 7.33-12.7 1.17-.47 2.37-.47 3.59-.08 7.79 2.41 15.66 19.9 15.66 19.9 10.83 28.34-3.94 34.64-3.94 34.64 60.59 27.01 89.17-.57 95.71-8.41 1.01-1.2 1.5-1.95 1.5-1.95s1.85-.97 4.67-2.12c9.93-4.04 31.87-10.4 27.83 14.55z" fill="#fff"/><path d="m447.29 267.4s11.14 1.93 13.22 10.51 5.71 33.67 5.71 33.67h-26.14s-5.45-45.78 7.21-44.18z" fill="#fff"/><path d="m370.01 165.6c-11.48-6.69-21.41-9.18-25.64-3.69-.02.02-.05.05-.06.08-8.33 11.11 1.8 41.51 8.45 58.37-4.99 1.69-9.88 3.72-14.61 6-15.52-16.32-49.38-46.63-83.1-41.53-3.61.54-6.11 3.88-5.7 7.5 1.96 17.65 9.61 68.57 33.55 88.3-.08.21-.17.4-.24.62-11.62 30.33-31.08 34.47-42.51 33.94-3.66-.17-5.87 3.99-3.78 6.98 6.46 9.26 18.18 22.86 31.93 24.1 18.19 1.66-22.97 8.33-34.44 10.1-1.16.16-1.57 1.61-.68 2.36 7.54 6.46 34.23 27.18 73.7 34.85 20.75 7.3 39.29 16.35 53.83 24.4 6.33 3.48 11.83 6.71 16.23 9.42 6.84 4.21 11.08 7.09 11.86 7.65.05.02.08.05.09.06.03.02.05.03.05.03s11.83 5.57 26.3 1.65c13.73-3.67 29.83-15.88 40.53-49.38.36-1.16.73-2.3 1.09-3.45.24-.78.46-1.55.7-2.33.98-.06 1.96-.14 2.96-.25 1.9-.19 3.77-.44 5.64-.76 19-3.2 36.37-12.59 49.57-26.39 4.84-5.05 9.14-10.67 12.73-16.81 1.27-2.15 2.45-4.37 3.55-6.63-5.27 1.65-10.72 1.57-15.64-.6-5.84-2.55-10.01-7.62-12.19-13.95-1.6-4.64-2.14-9.97-1.49-15.52-1.41.54-2.8 1.06-4.2 1.55-6.68 2.41-13.11 4.32-19.01 5.81-5.32 1.35-10.54-2.45-10.86-7.93-2.06-36.1-15.66-66.05-45.57-79.16-5.51-15.28-26.58-37.49-45.83-50.79-2.44-1.68-4.85-3.23-7.19-4.59z" fill="none" stroke="#1d1d1b" stroke-miterlimit="10" stroke-width="19.18"/><g fill="#1d1d1b"><path d="m548.83 316.77c-4.13 9.39-11 16.39-18.57 19.89-.6.29-1.2.54-1.8.76-.57.24-1.16.44-1.73.62-5.27 1.66-10.7 1.58-15.64-.59-6.79-2.98-11.32-9.33-13.09-17.15-.87-3.83-1.09-8.01-.59-12.32.21-1.88.57-3.8 1.08-5.72.57-2.2 1.33-4.42 2.3-6.6 7.57-17.24 24.46-26.5 37.74-20.68 13.25 5.83 17.87 24.52 10.31 41.78z"/><path d="m402.09 309.84c0 10.42-6.22 18.87-13.89 18.87-14.72 0-13.89-8.45-13.89-18.87s6.22-18.87 13.89-18.87 13.89 8.45 13.89 18.87z"/><path d="m405.61 287.39c-4.02-3.75-9.81-8.34-15.05-8.34-.95 0-1.75.35-2.55.69-1.98.41-3.66 1.86-5.01 3.35-2.6 2.76-3.33 6.33-3.09 10.23.64 8.4 4.88 16.74 10.01 23.41 0 0-12.83 8.42-12.83 8.42-1.75-3.29-3.14-6.63-4.44-10.1-3.85-10.59-6.28-22.71-1.27-33.53 5.28-11.12 16.48-17.64 26.9-8.44 4.11 3.67 6.84 8.56 8.57 13.58 0 0-1.25.74-1.25.74z"/><path d="m452.82 273.09c-3.13-1.23-6.48-3.22-9.43-1.84-1.12.63-2.77 2.78-3.5 4.29-.49 7.61 1.49 16.68 3.99 24.09 1.08 2.73 2.1 5.9 4.11 7.75.09.03-.35-.27-.46-.27 0 0 .13.02.13.02 2.51.42 5.27.25 8.05.05 7.93-.7 16.34-2.17 24.24-3.56l2.94 13.1c-8.61 2.14-17.05 3.67-26.2 4.32-5.47.21-12.6.71-17.17-3.17-9.23-8-11.65-30.72-9.84-42.25.34-1.74.71-3.31 1.75-5.05.69-1.03 1.4-2.08 2.24-3.01 4.1-5.1 11.6-6.49 16.51-1.7 1.93 1.83 3.14 3.97 3.75 6.38l-1.11.84z"/><path d="m436.16 284.7s4.05-7.23 12.07-1.8c4.61 3.12 7.59 17.86 8.34 26.95.75 9.08-17.42 0-17.42 0l-2.99-25.14z"/><path d="m431.85 379.2s.74 44.55-25.62 41.37-41.23-49-38.23-66.5c0 0 51.82 23.61 63.85 25.13z"/><path d="m383.94 348.69c-.02-.08-.05-.18-.07-.24l.06.12c.46.95 1.01 1.81 1.66 2.66.72.98 2.09 2.42 2.98 3.32.69.57 2.06 1.78 2.74 2.31 1.59 1.12 3.5 2.5 5.23 3.4 0 0 2.21 1.27 2.21 1.27l2.37 1.09c1.41.69 3.37 1.56 4.85 2.05 1.49.52 3.52 1.37 5.04 1.78 1.78.47 6.11 1.81 7.87 2.12 2.61.51 5.47 1.2 8.1 1.63 3.22.4 7.84 1.22 11.06 1.44 3.24.21 7.99.75 11.22.82 0 0 11.32.3 11.32.3l-.14 17.26-12.09-.47c-5.7-.36-12.56-.95-18.2-1.84-3.67-.52-8.6-1.34-12.14-2.21-1.05-.22-3.55-.79-4.55-1.01-.92-.28-6.49-1.91-7.54-2.23-2.9-.93-6.12-2.22-8.95-3.37-1.46-.7-4.4-2.1-5.86-2.81-1.66-1.01-4.09-2.34-5.7-3.38-.87-.63-3.28-2.35-4.12-2.98-4.69-3.78-9.13-8.44-11.78-13.92-.37-.81-.75-1.7-1.02-2.57 0 0 15.46-4.53 15.46-4.53z"/><path d="m394.78 249.6c-7 .03-15.54-.85-21.71 2.36-7.04 3.56-12.42 9.79-19.19 14.02-5.53-14.6 5.46-32.29 21.59-31.66 9.03.31 17.3 6.53 19.31 15.28z"/><path d="m425.98 250.81c-4.92-4.63-4.77-12.58.76-16.91 5.58-4.74 15.38-3.17 16.81 5.1-3.05 2.79-4.53 4.61-5.11 6.04-.58 1.41-.39 1.97-.92 2.34-.49.38-1.56.71-3.37 1.26-1.86.55-4.21 1.22-8.17 2.17z"/></g><path d="m301.48 262.63s10-10.9 17.87-11.81c0 0-11.13-25.22-38.77-30.29 0 0 1.82 29.99 20.9 42.1z" fill="#fff"/><path d="m379.64 381.38s26.83 8.59 30.77 30.41c.29 1.62-3.63 1.12-4.97.49-9.24-4.36-8.64-4.29-18.37-16.55-3.59-4.52-7.43-14.35-7.43-14.35z" fill="#f9b233"/><path d="m358.14 358.12s19.72-7.89 32.74-9.27c.25-.03.4-.29.28-.52-.52-1.03-2.4-3.53-8.81-5.32-8.61-2.41-17.27-1.03-24.63 7.68-1.37 1.62-1.89 3.87-1.18 5.88.31.87.8 1.54 1.6 1.55z" fill="#1d1d1b" stroke="#1d1d1b" stroke-miterlimit="10" stroke-width="5.75"/></svg>