<svg fill="none" height="18" viewBox="0 0 18 18" width="18" xmlns="http://www.w3.org/2000/svg"><path d="m15.3368 15.3371h-2.667v-4.1768c0-.996-.0178-2.2781-1.3871-2.2781-1.3891 0-1.60165 1.0852-1.60165 2.2056v4.249h-2.66696v-8.58907h2.56029v1.17379h.03586c.25623-.43811.62646-.79853 1.07136-1.04286.4448-.24434.9476-.36343 1.4548-.34461 2.7032 0 3.2016 1.77806 3.2016 4.09115zm-11.33208-9.76338c-.85479.00014-1.54786-.69272-1.548-1.54751s.69265-1.54786 1.54744-1.548c.85479-.00021 1.54786.69265 1.548 1.54744.00007.41048-.16292.80419-.45312 1.09451-.2902.29031-.68383.45346-1.09432.45356zm1.33355 9.76348h-2.66984v-8.58947h2.66977v8.58937zm11.32823-15.33588994h-15.33823c-.724919-.00815626-1.31941062.57255494-1.32827 1.29747994v15.40221c.00857813.7252.603 1.3065 1.3282 1.2989h15.3383c.7267.009 1.3234-.5723 1.3335-1.2989v-15.40341c-.0103-.726327-.6071-1.30696745-1.3335-1.29747526" fill="#000"/></svg>