<svg fill="none" height="48" viewBox="0 0 48 48" width="48" xmlns="http://www.w3.org/2000/svg" xmlns:xlink="http://www.w3.org/1999/xlink"><clipPath id="a"><path d="m0 0h48v48h-48z"/></clipPath><g clip-path="url(#a)"><path d="m48 23.28c0 13.3766-10.4803 23.28-24 23.28-2.4278 0-4.7578-.3206-6.9475-.9226-.4253-.118-.8775-.0844-1.2816.0932l-4.7635 2.1033c-1.24612.5501-2.65252-.336-2.6938-1.6973l-.13056-4.27c-.01632-.5261-.25248-1.0176-.64512-1.368-4.6704-4.176-7.53792-10.2212-7.53792-17.2186 0-13.37664 10.4803-23.28 24-23.28s24 9.90336 24 23.28z" fill="#000"/><path d="m30.5161 29.9817 8.3558-12.9138c.8399-1.2979-.7162-2.8089-1.9891-1.9305l-8.7225 6.0162c-.2938.2026-.6816.2083-.9811.0144l-7.7423-5.0092c-.6557-.4243-1.5302-.2362-1.9536.4185l-8.35668 12.9138c-.83999 1.2979.71615 2.8089 1.98908 1.9306l8.7244-6.0173c.2937-.2025.6816-.2083.9811-.0144l7.7404 5.0083c.6557.4243 1.5302.2362 1.9545-.4185z" fill="#fff"/></g></svg>