<svg viewBox="0 0 1770.66 1113.13" xmlns="http://www.w3.org/2000/svg" xmlns:xlink="http://www.w3.org/1999/xlink"><clipPath id="a"><path d="m1175.28 485.5 58.34 135.14 29.68 62.8 52.6-17.11-41.19-95.71-5.58-75.74-11.81-38.11"/></clipPath><clipPath id="b"><path d="m1155.32 344.02c-.7 0-1.68.09-2.77.47-1.93.67-3.13 1.88-3.69 2.53l-1.97 1.98c-5.07 4.53-7.28 11.46-5.75 18.09l23.3 101.23 14.23 25.06c1.23 1.97 4.25 1.28 6.37.34l78.27-34.7c-25.98-38.85-51.95-77.71-77.93-116.56.14 1.77.61 9.82-3.94 13.1-5.43 3.91-17.48.67-26.13-11.55z"/></clipPath><path d="m461.65 624.09c-5.59 0-11.05-.89-16.41-2.68-5.35-1.79-10.2-4.42-14.55-7.91-8.77-7.76-13.77-17.41-15.01-28.97-.15-1.4-.23-2.79-.23-4.19 0-5.27 1.05-10.43 3.14-15.48 2.09-5.04 5.27-9.27 9.54-12.68 2.48-2.02 5.27-3.7 8.38-5.06 3.1-1.36 6.28-2.04 9.54-2.04h.23c2.4 0 4.73.58 6.98 1.75 2.25 1.16 3.37 2.87 3.37 5.12 0 .7-.16 1.44-.47 2.21-.16.39-.35.78-.58 1.16-1.4 2.17-2.09 4.5-2.09 6.98 0 2.64.7 5.12 2.09 7.45 1.55 2.41 3.63 4.19 6.23 5.35s5.29 1.75 8.09 1.75c.62 0 1.2-.04 1.75-.12 6.59-.93 11.67-4.27 15.24-10.01 3.96-5.97 7.27-12.35 9.95-19.14s5.06-13.56 7.16-20.31c4.81-15.36 9.08-30.84 12.8-46.43 2.17-9.23 4.89-18.23 8.15-27-3.65.16-7.25.27-10.82.35-7.21-.15-14.7.17-22.46.99-7.76.81-14.47 3.71-20.13 8.67-4.5 4.65-6.75 9.77-6.75 15.36 0 2.95.7 5.76 2.09 8.44 1.4 2.68 3.53 4.91 6.4 6.69 1.47.7 2.85 1.4 4.13 2.09 1.28.7 2.07 1.98 2.39 3.84v.7c0 .85-.08 1.67-.23 2.44-.54 5.43-2.37 10.36-5.47 14.78-2.95 3.88-6.57 6.69-10.88 8.44s-8.83 2.62-13.56 2.62-9.5-.77-14.08-2.33c-7.76-2.71-13.36-7.31-16.81-13.79s-5.18-13.48-5.18-21c0-8.3 1.75-16.21 5.24-23.74 5.82-11.71 14.82-19.94 27-24.67 6.28-2.25 12.76-3.7 19.43-4.36s13.34-.99 20.01-.99h6.75c6.59.16 13.15.51 19.67 1.05s13.03.89 19.55 1.05c1.86-3.18 4.01-6.17 6.46-8.96 2.44-2.79 5.24-5.06 8.38-6.81s6.65-2.62 10.53-2.62h.12c1.32 0 2.81.12 4.48.35s3.12.74 4.36 1.51c2.09 1.01 3.72 2.6 4.89 4.77 1.16 2.17 1.75 4.42 1.75 6.75 0 1.01-.12 2.02-.35 3.03-.62 2.25-1.79 4.13-3.49 5.64-1.71 1.51-3.61 2.73-5.7 3.67-2.72 1.16-5.55 2.06-8.49 2.68v.81l.23 1.63c.08.47.12.78.12.93l.23 1.51c.15 1.01.31 2.02.47 3.03.93 5.28 1.98 10.51 3.14 15.71 5.43 25.91 12.61 51.32 21.53 76.22 1.78 5.04 3.68 10.01 5.7 14.89.15-2.95.31-5.89.47-8.84.85-14.2 2.52-28.28 5-42.24 2.09-12.64 5.24-25.02 9.43-37.12 2.17-6.21 4.85-12.29 8.03-18.27 3.18-5.97 7.17-11.21 11.99-15.71 6.83-5.97 14.43-8.96 22.81-8.96 3.65 0 7.14.78 10.47 2.33 1.94.93 3.7 2.27 5.29 4.01 1.59 1.75 2.39 3.51 2.39 5.29 0 1.94-1.32 3.61-3.96 5-9 4.42-15.98 11.05-20.95 19.9-7.45 13.03-13.11 26.8-16.99 41.31-4.5 16.06-7.95 32.35-10.36 48.87-1.09 6.28-1.63 12.65-1.63 19.08 0 7.37 1.12 14.59 3.37 21.64.23.47.39.93.47 1.4 0 .15.04.27.12.35.23.62.35 1.16.35 1.63 0 1.86-1.01 3.06-3.03 3.61-2.64 2.33-5.63 3.92-8.96 4.77-2.72.7-5.47 1.05-8.26 1.05-4.11 0-8.11-.78-11.99-2.33-6.75-3.26-11.95-8.15-15.59-14.66-3.65-6.52-6.52-13.19-8.61-20.01-4.81-14.74-8.19-29.83-10.12-45.27-1.79-12.49-2.95-25.06-3.49-37.7-3.34 15.44-6.79 30.8-10.36 46.08-1.94 8.3-4.11 16.7-6.52 25.19s-5.66 16.51-9.77 24.03c-5.35 9.31-12.37 17.14-21.06 23.51-8.69 6.36-18.46 9.97-29.32 10.82-1.09.08-2.13.12-3.14.12z" fill="#1d1d1b"/><path d="m673.78 601.74c-1.55 0-3.14-.08-4.77-.23-7.76-1.16-13.98-4.07-18.68-8.73-4.69-4.65-8.11-10.34-10.24-17.05s-3.2-13.56-3.2-20.54c0-7.91 1.24-15.65 3.72-23.21s5.95-14.39 10.41-20.48 9.77-10.96 15.94-14.6c6.17-3.65 12.9-5.47 20.19-5.47 4.73 0 9.23.91 13.5 2.73s8.03 4.6 11.29 8.32c2.17 2.33 4.27 5.86 6.28 10.59 2.25 6.67 3.37 13.61 3.37 20.83 0 4.89-.39 9.74-1.16 14.54 1.16.23 2.37.35 3.61.35 3.49 0 6.61-.85 9.37-2.56 2.75-1.71 5.18-3.99 7.27-6.87 2.09-3.03 3.76-6.01 5-8.96l-.35.7c.93-2.25 2.37-3.37 4.31-3.37 1.09 0 2.11.43 3.08 1.28s1.45 1.94 1.45 3.26c0 .39-.08.78-.23 1.16-2.72 7.45-7.37 14.06-13.96 19.84s-14.31 9.13-23.16 10.07c-2.25 6.52-5.35 12.68-9.31 18.5s-8.77 10.59-14.43 14.31-12.1 5.58-19.32 5.58zm8.26-35.02c3.03 0 5.7-.83 8.03-2.5s4.34-3.82 6.05-6.46c-4.42-3.1-6.63-6.98-6.63-11.64 0-3.8 1.4-6.94 4.19-9.43 2.79-2.48 6.17-3.84 10.12-4.07v.12l.12-3.96c0-3.88-.56-8.01-1.69-12.39s-3.24-7.27-6.34-8.67c-1.01-.23-2.02-.35-3.03-.35-2.09 0-4.15.54-6.17 1.63-3.72 2.17-6.69 5.29-8.9 9.37s-3.9 8.13-5.06 12.16c-.78 2.33-1.51 5.24-2.21 8.73s-1.05 7.02-1.05 10.59c0 4.27.81 8.03 2.44 11.29s4.65 5.12 9.08 5.59h1.05z" fill="#1d1d1b"/><path d="m757.22 601.98c-3.49 0-6.94-.62-10.36-1.86-3.41-1.24-6.32-3.18-8.73-5.82-1.86-2.17-3.16-4.65-3.9-7.45-.74-2.79-1.11-5.62-1.11-8.49.23-6.52 1.3-12.92 3.2-19.2s3.9-12.49 5.99-18.62c9.54-29.4 19.62-58.34 30.25-86.81 1.78-4.81 3.76-9.58 5.93-14.31 1.55-3.26 4.01-5.8 7.39-7.62 3.37-1.82 7.74-2.73 13.09-2.73 2.25 0 4.46.27 6.63.81s3.99 1.47 5.47 2.79c1.47 1.32 2.21 3.1 2.21 5.35 0 .85-.23 1.67-.7 2.44l-1.63 1.98c-1.16 2.02-2.25 4.11-3.26 6.28-6.83 15.59-12.72 31.57-17.69 47.94-2.72 8.15-5.28 16.37-7.68 24.67-2.41 8.3-4.27 16.72-5.59 25.25-.54 2.33-.81 4.93-.81 7.8 0 2.25.35 4.35 1.05 6.28.85 2.09 2.19 3.55 4.01 4.36s3.78 1.22 5.88 1.22c5.12 0 9.7-1.49 13.73-4.48s7.58-6.55 10.65-10.71c3.06-4.15 5.6-8.16 7.62-12.04 1.63-3.18 3.03-6.13 4.19-8.84.85-1.63 1.94-2.44 3.26-2.44 1.16 0 2.27.49 3.32 1.45 1.05.97 1.57 2.15 1.57 3.55 0 .62-.12 1.24-.35 1.86-1.32 3.03-2.75 5.97-4.31 8.84l-.58 1.28c-5.04 9.54-11.05 18.46-18.04 26.76-6.98 8.3-15.01 15.36-24.09 21.18-4.03 2.64-8.3 4.85-12.8 6.63-4.5 1.79-9.12 2.68-13.85 2.68z" fill="#936037"/><path d="m834.6 601.98c-3.49 0-6.94-.62-10.36-1.86-3.41-1.24-6.32-3.18-8.73-5.82-1.86-2.17-3.16-4.65-3.9-7.45-.74-2.79-1.11-5.62-1.11-8.49.23-6.52 1.3-12.92 3.2-19.2s3.9-12.49 5.99-18.62c9.54-29.4 19.62-58.34 30.25-86.81 1.78-4.81 3.76-9.58 5.93-14.31 1.55-3.26 4.01-5.8 7.39-7.62 3.37-1.82 7.74-2.73 13.09-2.73 2.25 0 4.46.27 6.63.81s3.99 1.47 5.47 2.79c1.47 1.32 2.21 3.1 2.21 5.35 0 .85-.23 1.67-.7 2.44l-1.63 1.98c-1.16 2.02-2.25 4.11-3.26 6.28-6.83 15.59-12.72 31.57-17.69 47.94-2.72 8.15-5.28 16.37-7.68 24.67-2.41 8.3-4.27 16.72-5.59 25.25-.54 2.33-.81 4.93-.81 7.8 0 2.25.35 4.35 1.05 6.28.85 2.09 2.19 3.55 4.01 4.36s3.78 1.22 5.88 1.22c5.12 0 9.7-1.49 13.73-4.48s7.58-6.55 10.65-10.71c3.06-4.15 5.6-8.16 7.62-12.04 1.63-3.18 3.03-6.13 4.19-8.84.85-1.63 1.94-2.44 3.26-2.44 1.16 0 2.27.49 3.32 1.45 1.05.97 1.57 2.15 1.57 3.55 0 .62-.12 1.24-.35 1.86-1.32 3.03-2.75 5.97-4.31 8.84l-.58 1.28c-5.04 9.54-11.05 18.46-18.04 26.76-6.98 8.3-15.01 15.36-24.09 21.18-4.03 2.64-8.3 4.85-12.8 6.63-4.5 1.79-9.12 2.68-13.85 2.68z" fill="#936037"/><path d="m919.54 601.05c-4.58 0-8.98-.89-13.21-2.68-4.23-1.78-7.93-4.61-11.11-8.49-2.71-3.33-4.61-6.96-5.7-10.88s-1.63-7.97-1.63-12.16c0-5.74.74-11.48 2.21-17.22 1.55-6.67 3.57-13.27 6.05-19.78 2.79-8.3 5.78-16.48 8.96-24.55.7-2.02 1.55-4.09 2.56-6.23 1.01-2.13 2.37-3.86 4.07-5.18 2.56-1.63 5.39-2.48 8.49-2.56h1.63c2.56 0 5.33.43 8.32 1.28s5.1 2.44 6.34 4.77c.39.85.58 1.67.58 2.44 0 1.09-.39 2.09-1.16 3.03-1.4 1.55-2.37 3.41-2.91 5.59-.54 2.17-1.01 4.27-1.4 6.28-.62 2.41-1.2 4.85-1.75 7.33-1.55 7.06-2.52 14.2-2.91 21.41-.16 1.63-.23 3.37-.23 5.24 0 2.33.23 4.67.7 7.04s1.4 4.4 2.79 6.11c1.55 1.71 3.26 2.97 5.12 3.78s3.8 1.22 5.82 1.22c4.89 0 9.35-1.98 13.38-5.93 3.72-4.03 6.71-8.65 8.96-13.85s4.07-10.43 5.47-15.71v-.35c.31-1.09.83-1.88 1.57-2.39.74-.5 1.53-.76 2.39-.76.47 0 .93.08 1.4.23 2.33.54 3.49 1.86 3.49 3.96 0 .47-.04.93-.12 1.4 0 .08-.04.19-.12.35-3.1 12.03-7.76 23.39-13.96 34.09-2.56 4.81-5.55 9.43-8.96 13.85s-7.29 8.26-11.64 11.52c-7.45 5.2-15.28 7.8-23.5 7.8zm7.45-119.74c-2.79 0-5.39-.85-7.8-2.56-3.72-2.56-5.59-6.01-5.59-10.36.23-3.8 1.12-7.41 2.68-10.82 1.24-3.57 3.33-6.48 6.28-8.73 1.78-1.01 3.65-1.51 5.59-1.51.7 0 1.43.04 2.21.12 1.78.31 3.41.93 4.89 1.86 2.33 1.55 3.8 3.72 4.42 6.52.39 1.55.58 3.14.58 4.77s-.12 3.37-.35 5c-.47 3.72-1.63 7.18-3.49 10.36-1.86 2.95-4.54 4.69-8.03 5.24-.47.08-.93.12-1.4.12z" fill="#1d1d1b"/><path d="m840.53 736.14h-.35c-11.4.08-22.65-1.22-33.75-3.9-11.09-2.68-21.53-7-31.3-12.97-8.15-4.89-14.91-11.02-20.31-18.38-5.39-7.37-8.44-15.94-9.13-25.72v-2.09c0-11.87 4.19-22.65 12.57-32.35 5.2-5.51 11.23-9.52 18.09-12.04 6.87-2.52 14.02-4.17 21.47-4.95 6.98-.85 14-1.28 21.06-1.28 12.41 0 24.83 1.01 37.24 3.03s24.63 4.5 36.65 7.45c13.96 3.33 27.85 7.14 41.66 11.4h.12c.78 0 1.84-1.67 3.2-5 1.36-3.34 2.79-7.51 4.31-12.51 1.51-5 2.99-10.07 4.42-15.18 1.44-5.12 2.64-9.58 3.61-13.38s1.57-6.21 1.8-7.21c4.27-15.75 8.57-31.53 12.92-47.36 2.17-7.91 4.38-15.83 6.63-23.74 1.47-6.52 3.49-12.84 6.05-18.97 1.63-3.57 3.9-6.15 6.81-7.74s6.03-2.39 9.37-2.39c4.42 0 8.73 1.16 12.92 3.49 1.47 1.09 2.21 2.37 2.21 3.84 0 1.16-.43 2.25-1.28 3.26l-.12.12c-.08.16-.19.31-.35.47-.31.54-.62 1.09-.93 1.63-.7 1.4-1.32 2.83-1.86 4.31-.47 1.4-.93 2.75-1.4 4.07l1.16-1.4c4.11-4.96 9.04-9.31 14.78-13.03s11.71-5.59 17.92-5.59c5.35 0 10.59 1.94 15.71 5.82 4.19 3.49 7.19 7.76 9.02 12.8 1.82 5.04 2.89 10.28 3.2 15.71.08 1.47.12 2.95.12 4.42 0 10.86-1.98 21.61-5.93 32.23-1.79 5.12-4.11 10.05-6.98 14.78 7.29-3.02 13.75-7.27 19.37-12.74s10.41-11.65 14.37-18.56c1.47-2.56 2.87-5.16 4.19-7.8 1.01-2.02 1.94-4.03 2.79-6.05l.12-.12.47-1.16c.47-1.09 1.11-1.86 1.92-2.33s1.65-.7 2.5-.7c1.16 0 2.21.33 3.14.99s1.4 1.57 1.4 2.73c0 .54-.12 1.09-.35 1.63-5.2 12.96-12.1 24.9-20.71 35.84-6.28 8.3-13.67 15.38-22.17 21.24-8.49 5.86-18.02 9.45-28.57 10.76-3.34.39-6.91.58-10.71.58-1.79 0-3.57-.08-5.35-.23h-.7c-4.65-.39-8.79-2.08-12.39-5.06-3.61-2.99-6.07-6.77-7.39-11.34-.47-1.94-.7-4-.7-6.17 0-2.79.41-5.58 1.22-8.38.81-2.79 2.07-5.16 3.78-7.1.93-.85 1.94-1.28 3.03-1.28.77 0 1.59.16 2.44.47 2.48 1.09 4.81 1.63 6.98 1.63 4.11 0 7.78-1.4 11-4.19s5.95-6.17 8.2-10.12c2.25-3.96 3.99-7.76 5.24-11.4.77-2.25 1.43-4.61 1.98-7.1.54-2.48.81-5 .81-7.56 0-3.8-.89-7.37-2.68-10.71-2.02-3.03-4.62-4.54-7.8-4.54-1.55 0-3.14.27-4.77.81-6.13 2.33-11.29 6.13-15.48 11.4-1.47 2.09-2.83 4.11-4.07 6.05-3.57 5.82-6.71 11.91-9.43 18.27-3.96 16.45-7.76 32.93-11.4 49.45-1.63 7.76-3.18 15.32-4.65 22.69-2.95 12.64-6.87 24.94-11.75 36.89 5.74 1.94 11.52 3.96 17.34 6.05 9 3.26 18.19 5.95 27.58 8.09 9.39 2.13 18.85 3.2 28.39 3.2 3.72 0 7.41-.19 11.05-.58 4.96-.46 9.87-1.53 14.72-3.2s9.13-4.17 12.86-7.51c3.49-3.26 6.09-7.1 7.8-11.52 1.09-3.18 1.9-6.4 2.44-9.66.15-2.02 1.05-3.61 2.68-4.77 2.48-1.16 5.24-1.75 8.26-1.75 2.33 0 4.46.15 6.4.47 4.73.77 9.11 2.56 13.15 5.35 8.3 5.97 14.08 13.81 17.34 23.5 1.71 5.2 2.56 10.39 2.56 15.59 0 8.07-2.06 15.59-6.17 22.57s-10.09 12.37-17.92 16.17c-5.59 2.56-11.4 4.4-17.45 5.53-6.05 1.12-12.14 1.69-18.27 1.69-2.72 0-5.39-.12-8.03-.35-8.15-.7-15.98-2.21-23.51-4.54s-15.05-4.97-22.57-7.91c-10.55-4.03-20.97-8.36-31.24-12.97-10.28-4.62-20.62-9.17-31.01-13.67-3.1-1.24-6.17-2.48-9.19-3.72-5.97 10.63-13.61 19.97-22.92 28.04-12.1 9.85-25.72 16.79-40.84 20.83-7.99 2.02-16.04 3.62-24.15 4.83-8.11 1.2-16.27 1.8-24.49 1.8zm9.19-36.19c4.97 0 9.89-.47 14.78-1.4 16.29-3.57 31.07-10.43 44.33-20.6 3.96-2.95 7.53-6.21 10.71-9.77-6.52-2.25-13.03-4.35-19.55-6.28-9.85-3.03-19.94-5.66-30.25-7.91-10.32-2.25-20.63-3.37-30.95-3.37-1.71 0-3.41.04-5.12.12-4.42.15-8.9.79-13.44 1.92-4.54 1.12-8.4 3.28-11.58 6.46-2.95 3.57-4.42 7.56-4.42 11.99 0 5.74 2.06 10.94 6.17 15.59 5.12 4.73 11.33 8.15 18.62 10.24 6.83 2.02 13.73 3.03 20.71 3.03z" fill="#1d1d1b"/><path d="m1120.03 601.74c-8.46 0-16.27-2.31-23.45-6.92-7.18-4.62-12.12-11.27-14.84-19.96-1.32-4.89-1.98-9.93-1.98-15.13 0-7.91 1.3-15.86 3.9-23.85s6.19-15.28 10.76-21.88c4.58-6.59 9.97-11.91 16.17-15.94 6.21-4.03 12.92-6.05 20.13-6.05 5.89 0 11.52 1.63 16.87 4.89s8.8 8.19 10.36 14.78c.39 1.86.58 3.72.58 5.59 0 4.81-1.03 9.45-3.08 13.91-2.06 4.46-4.71 8.51-7.97 12.16-3.41 3.96-7.68 7.45-12.8 10.47-5.12 3.03-10.36 4.54-15.71 4.54-1.63 0-3.22-.19-4.77-.58 2.95 3.88 6.81 6.89 11.58 9.02s9.6 3.2 14.49 3.2 9.02-.99 12.86-2.97 7.33-4.54 10.47-7.68 6.03-6.61 8.67-10.41c3.8-5.43 6.83-11.29 9.08-17.57.39-1.01.99-1.76 1.8-2.27.81-.5 1.65-.76 2.5-.76 1.16 0 2.21.35 3.14 1.05s1.4 1.63 1.4 2.79c0 .47-.08 1.01-.23 1.63-5.12 14.51-12.3 27.75-21.53 39.74s-20.4 20.54-33.51 25.66c-4.89 1.71-9.85 2.56-14.89 2.56zm-9.77-59.46c8.53-.7 15.71-4.31 21.53-10.82 2.17-2.48 4.07-5.29 5.7-8.44 1.63-3.14 2.44-6.34 2.44-9.6-.31-3.88-2.6-5.82-6.87-5.82-1.86 0-3.69.41-5.47 1.22-1.79.81-3.34 1.8-4.65 2.97-4.35 3.57-7.53 8.11-9.54 13.61-2.02 5.51-3.07 11.13-3.14 16.87z" fill="#1d1d1b"/><g fill="#ec661c"><path d="m461.65 624.09c-5.59 0-11.05-.89-16.41-2.68-5.35-1.79-10.2-4.42-14.55-7.91-8.77-7.76-13.77-17.41-15.01-28.97-.15-1.4-.23-2.79-.23-4.19 0-5.27 1.05-10.43 3.14-15.48 2.09-5.04 5.27-9.27 9.54-12.68 2.48-2.02 5.27-3.7 8.38-5.06 3.1-1.36 6.28-2.04 9.54-2.04h.23c2.4 0 4.73.58 6.98 1.75 2.25 1.16 3.37 2.87 3.37 5.12 0 .7-.16 1.44-.47 2.21-.16.39-.35.78-.58 1.16-1.4 2.17-2.09 4.5-2.09 6.98 0 2.64.7 5.12 2.09 7.45 1.55 2.41 3.63 4.19 6.23 5.35s5.29 1.75 8.09 1.75c.62 0 1.2-.04 1.75-.12 6.59-.93 11.67-4.27 15.24-10.01 3.96-5.97 7.27-12.35 9.95-19.14s5.06-13.56 7.16-20.31c4.81-15.36 9.08-30.84 12.8-46.43 2.17-9.23 4.89-18.23 8.15-27-3.65.16-7.25.27-10.82.35-7.21-.15-14.7.17-22.46.99-7.76.81-14.47 3.71-20.13 8.67-4.5 4.65-6.75 9.77-6.75 15.36 0 2.95.7 5.76 2.09 8.44 1.4 2.68 3.53 4.91 6.4 6.69 1.47.7 2.85 1.4 4.13 2.09 1.28.7 2.07 1.98 2.39 3.84v.7c0 .85-.08 1.67-.23 2.44-.54 5.43-2.37 10.36-5.47 14.78-2.95 3.88-6.57 6.69-10.88 8.44s-8.83 2.62-13.56 2.62-9.5-.77-14.08-2.33c-7.76-2.71-13.36-7.31-16.81-13.79s-5.18-13.48-5.18-21c0-8.3 1.75-16.21 5.24-23.74 5.82-11.71 14.82-19.94 27-24.67 6.28-2.25 12.76-3.7 19.43-4.36s13.34-.99 20.01-.99h6.75c6.59.16 13.15.51 19.67 1.05s13.03.89 19.55 1.05c1.86-3.18 4.01-6.17 6.46-8.96 2.44-2.79 5.24-5.06 8.38-6.81s6.65-2.62 10.53-2.62h.12c1.32 0 2.81.12 4.48.35s3.12.74 4.36 1.51c2.09 1.01 3.72 2.6 4.89 4.77 1.16 2.17 1.75 4.42 1.75 6.75 0 1.01-.12 2.02-.35 3.03-.62 2.25-1.79 4.13-3.49 5.64-1.71 1.51-3.61 2.73-5.7 3.67-2.72 1.16-5.55 2.06-8.49 2.68v.81l.23 1.63c.08.47.12.78.12.93l.23 1.51c.15 1.01.31 2.02.47 3.03.93 5.28 1.98 10.51 3.14 15.71 5.43 25.91 12.61 51.32 21.53 76.22 1.78 5.04 3.68 10.01 5.7 14.89.15-2.95.31-5.89.47-8.84.85-14.2 2.52-28.28 5-42.24 2.09-12.64 5.24-25.02 9.43-37.12 2.17-6.21 4.85-12.29 8.03-18.27 3.18-5.97 7.17-11.21 11.99-15.71 6.83-5.97 14.43-8.96 22.81-8.96 3.65 0 7.14.78 10.47 2.33 1.94.93 3.7 2.27 5.29 4.01 1.59 1.75 2.39 3.51 2.39 5.29 0 1.94-1.32 3.61-3.96 5-9 4.42-15.98 11.05-20.95 19.9-7.45 13.03-13.11 26.8-16.99 41.31-4.5 16.06-7.95 32.35-10.36 48.87-1.09 6.28-1.63 12.65-1.63 19.08 0 7.37 1.12 14.59 3.37 21.64.23.47.39.93.47 1.4 0 .15.04.27.12.35.23.62.35 1.16.35 1.63 0 1.86-1.01 3.06-3.03 3.61-2.64 2.33-5.63 3.92-8.96 4.77-2.72.7-5.47 1.05-8.26 1.05-4.11 0-8.11-.78-11.99-2.33-6.75-3.26-11.95-8.15-15.59-14.66-3.65-6.52-6.52-13.19-8.61-20.01-4.81-14.74-8.19-29.83-10.12-45.27-1.79-12.49-2.95-25.06-3.49-37.7-3.34 15.44-6.79 30.8-10.36 46.08-1.94 8.3-4.11 16.7-6.52 25.19s-5.66 16.51-9.77 24.03c-5.35 9.31-12.37 17.14-21.06 23.51-8.69 6.36-18.46 9.97-29.32 10.82-1.09.08-2.13.12-3.14.12z"/><path d="m673.78 601.74c-1.55 0-3.14-.08-4.77-.23-7.76-1.16-13.98-4.07-18.68-8.73-4.69-4.65-8.11-10.34-10.24-17.05s-3.2-13.56-3.2-20.54c0-7.91 1.24-15.65 3.72-23.21s5.95-14.39 10.41-20.48 9.77-10.96 15.94-14.6c6.17-3.65 12.9-5.47 20.19-5.47 4.73 0 9.23.91 13.5 2.73s8.03 4.6 11.29 8.32c2.17 2.33 4.27 5.86 6.28 10.59 2.25 6.67 3.37 13.61 3.37 20.83 0 4.89-.39 9.74-1.16 14.54 1.16.23 2.37.35 3.61.35 3.49 0 6.61-.85 9.37-2.56 2.75-1.71 5.18-3.99 7.27-6.87 2.09-3.03 3.76-6.01 5-8.96l-.35.7c.93-2.25 2.37-3.37 4.31-3.37 1.09 0 2.11.43 3.08 1.28s1.45 1.94 1.45 3.26c0 .39-.08.78-.23 1.16-2.72 7.45-7.37 14.06-13.96 19.84s-14.31 9.13-23.16 10.07c-2.25 6.52-5.35 12.68-9.31 18.5s-8.77 10.59-14.43 14.31-12.1 5.58-19.32 5.58zm8.26-35.02c3.03 0 5.7-.83 8.03-2.5s4.34-3.82 6.05-6.46c-4.42-3.1-6.63-6.98-6.63-11.64 0-3.8 1.4-6.94 4.19-9.43 2.79-2.48 6.17-3.84 10.12-4.07v.12l.12-3.96c0-3.88-.56-8.01-1.69-12.39s-3.24-7.27-6.34-8.67c-1.01-.23-2.02-.35-3.03-.35-2.09 0-4.15.54-6.17 1.63-3.72 2.17-6.69 5.29-8.9 9.37s-3.9 8.13-5.06 12.16c-.78 2.33-1.51 5.24-2.21 8.73s-1.05 7.02-1.05 10.59c0 4.27.81 8.03 2.44 11.29s4.65 5.12 9.08 5.59h1.05z"/><path d="m757.22 601.98c-3.49 0-6.94-.62-10.36-1.86-3.41-1.24-6.32-3.18-8.73-5.82-1.86-2.17-3.16-4.65-3.9-7.45-.74-2.79-1.11-5.62-1.11-8.49.23-6.52 1.3-12.92 3.2-19.2s3.9-12.49 5.99-18.62c9.54-29.4 19.62-58.34 30.25-86.81 1.78-4.81 3.76-9.58 5.93-14.31 1.55-3.26 4.01-5.8 7.39-7.62 3.37-1.82 7.74-2.73 13.09-2.73 2.25 0 4.46.27 6.63.81s3.99 1.47 5.47 2.79c1.47 1.32 2.21 3.1 2.21 5.35 0 .85-.23 1.67-.7 2.44l-1.63 1.98c-1.16 2.02-2.25 4.11-3.26 6.28-6.83 15.59-12.72 31.57-17.69 47.94-2.72 8.15-5.28 16.37-7.68 24.67-2.41 8.3-4.27 16.72-5.59 25.25-.54 2.33-.81 4.93-.81 7.8 0 2.25.35 4.35 1.05 6.28.85 2.09 2.19 3.55 4.01 4.36s3.78 1.22 5.88 1.22c5.12 0 9.7-1.49 13.73-4.48s7.58-6.55 10.65-10.71c3.06-4.15 5.6-8.16 7.62-12.04 1.63-3.18 3.03-6.13 4.19-8.84.85-1.63 1.94-2.44 3.26-2.44 1.16 0 2.27.49 3.32 1.45 1.05.97 1.57 2.15 1.57 3.55 0 .62-.12 1.24-.35 1.86-1.32 3.03-2.75 5.97-4.31 8.84l-.58 1.28c-5.04 9.54-11.05 18.46-18.04 26.76-6.98 8.3-15.01 15.36-24.09 21.18-4.03 2.64-8.3 4.85-12.8 6.63-4.5 1.79-9.12 2.68-13.85 2.68z"/><path d="m834.6 601.98c-3.49 0-6.94-.62-10.36-1.86-3.41-1.24-6.32-3.18-8.73-5.82-1.86-2.17-3.16-4.65-3.9-7.45-.74-2.79-1.11-5.62-1.11-8.49.23-6.52 1.3-12.92 3.2-19.2s3.9-12.49 5.99-18.62c9.54-29.4 19.62-58.34 30.25-86.81 1.78-4.81 3.76-9.58 5.93-14.31 1.55-3.26 4.01-5.8 7.39-7.62 3.37-1.82 7.74-2.73 13.09-2.73 2.25 0 4.46.27 6.63.81s3.99 1.47 5.47 2.79c1.47 1.32 2.21 3.1 2.21 5.35 0 .85-.23 1.67-.7 2.44l-1.63 1.98c-1.16 2.02-2.25 4.11-3.26 6.28-6.83 15.59-12.72 31.57-17.69 47.94-2.72 8.15-5.28 16.37-7.68 24.67-2.41 8.3-4.27 16.72-5.59 25.25-.54 2.33-.81 4.93-.81 7.8 0 2.25.35 4.35 1.05 6.28.85 2.09 2.19 3.55 4.01 4.36s3.78 1.22 5.88 1.22c5.12 0 9.7-1.49 13.73-4.48s7.58-6.55 10.65-10.71c3.06-4.15 5.6-8.16 7.62-12.04 1.63-3.18 3.03-6.13 4.19-8.84.85-1.63 1.94-2.44 3.26-2.44 1.16 0 2.27.49 3.32 1.45 1.05.97 1.57 2.15 1.57 3.55 0 .62-.12 1.24-.35 1.86-1.32 3.03-2.75 5.97-4.31 8.84l-.58 1.28c-5.04 9.54-11.05 18.46-18.04 26.76-6.98 8.3-15.01 15.36-24.09 21.18-4.03 2.64-8.3 4.85-12.8 6.63-4.5 1.79-9.12 2.68-13.85 2.68z"/><path d="m919.54 601.05c-4.58 0-8.98-.89-13.21-2.68-4.23-1.78-7.93-4.61-11.11-8.49-2.71-3.33-4.61-6.96-5.7-10.88s-1.63-7.97-1.63-12.16c0-5.74.74-11.48 2.21-17.22 1.55-6.67 3.57-13.27 6.05-19.78 2.79-8.3 5.78-16.48 8.96-24.55.7-2.02 1.55-4.09 2.56-6.23 1.01-2.13 2.37-3.86 4.07-5.18 2.56-1.63 5.39-2.48 8.49-2.56h1.63c2.56 0 5.33.43 8.32 1.28s5.1 2.44 6.34 4.77c.39.85.58 1.67.58 2.44 0 1.09-.39 2.09-1.16 3.03-1.4 1.55-2.37 3.41-2.91 5.59-.54 2.17-1.01 4.27-1.4 6.28-.62 2.41-1.2 4.85-1.75 7.33-1.55 7.06-2.52 14.2-2.91 21.41-.16 1.63-.23 3.37-.23 5.24 0 2.33.23 4.67.7 7.04s1.4 4.4 2.79 6.11c1.55 1.71 3.26 2.97 5.12 3.78s3.8 1.22 5.82 1.22c4.89 0 9.35-1.98 13.38-5.93 3.72-4.03 6.71-8.65 8.96-13.85s4.07-10.43 5.47-15.71v-.35c.31-1.09.83-1.88 1.57-2.39.74-.5 1.53-.76 2.39-.76.47 0 .93.08 1.4.23 2.33.54 3.49 1.86 3.49 3.96 0 .47-.04.93-.12 1.4 0 .08-.04.19-.12.35-3.1 12.03-7.76 23.39-13.96 34.09-2.56 4.81-5.55 9.43-8.96 13.85s-7.29 8.26-11.64 11.52c-7.45 5.2-15.28 7.8-23.5 7.8zm7.45-119.74c-2.79 0-5.39-.85-7.8-2.56-3.72-2.56-5.59-6.01-5.59-10.36.23-3.8 1.12-7.41 2.68-10.82 1.24-3.57 3.33-6.48 6.28-8.73 1.78-1.01 3.65-1.51 5.59-1.51.7 0 1.43.04 2.21.12 1.78.31 3.41.93 4.89 1.86 2.33 1.55 3.8 3.72 4.42 6.52.39 1.55.58 3.14.58 4.77s-.12 3.37-.35 5c-.47 3.72-1.63 7.18-3.49 10.36-1.86 2.95-4.54 4.69-8.03 5.24-.47.08-.93.12-1.4.12z"/><path d="m840.53 736.14h-.35c-11.4.08-22.65-1.22-33.75-3.9-11.09-2.68-21.53-7-31.3-12.97-8.15-4.89-14.91-11.02-20.31-18.38-5.39-7.37-8.44-15.94-9.13-25.72v-2.09c0-11.87 4.19-22.65 12.57-32.35 5.2-5.51 11.23-9.52 18.09-12.04 6.87-2.52 14.02-4.17 21.47-4.95 6.98-.85 14-1.28 21.06-1.28 12.41 0 24.83 1.01 37.24 3.03s24.63 4.5 36.65 7.45c13.96 3.33 27.85 7.14 41.66 11.4h.12c.78 0 1.84-1.67 3.2-5 1.36-3.34 2.79-7.51 4.31-12.51 1.51-5 2.99-10.07 4.42-15.18 1.44-5.12 2.64-9.58 3.61-13.38s1.57-6.21 1.8-7.21c4.27-15.75 8.57-31.53 12.92-47.36 2.17-7.91 4.38-15.83 6.63-23.74 1.47-6.52 3.49-12.84 6.05-18.97 1.63-3.57 3.9-6.15 6.81-7.74s6.03-2.39 9.37-2.39c4.42 0 8.73 1.16 12.92 3.49 1.47 1.09 2.21 2.37 2.21 3.84 0 1.16-.43 2.25-1.28 3.26l-.12.12c-.08.16-.19.31-.35.47-.31.54-.62 1.09-.93 1.63-.7 1.4-1.32 2.83-1.86 4.31-.47 1.4-.93 2.75-1.4 4.07l1.16-1.4c4.11-4.96 9.04-9.31 14.78-13.03s11.71-5.59 17.92-5.59c5.35 0 10.59 1.94 15.71 5.82 4.19 3.49 7.19 7.76 9.02 12.8 1.82 5.04 2.89 10.28 3.2 15.71.08 1.47.12 2.95.12 4.42 0 10.86-1.98 21.61-5.93 32.23-1.79 5.12-4.11 10.05-6.98 14.78 7.29-3.02 13.75-7.27 19.37-12.74s10.41-11.65 14.37-18.56c1.47-2.56 2.87-5.16 4.19-7.8 1.01-2.02 1.94-4.03 2.79-6.05l.12-.12.47-1.16c.47-1.09 1.11-1.86 1.92-2.33s1.65-.7 2.5-.7c1.16 0 2.21.33 3.14.99s1.4 1.57 1.4 2.73c0 .54-.12 1.09-.35 1.63-5.2 12.96-12.1 24.9-20.71 35.84-6.28 8.3-13.67 15.38-22.17 21.24-8.49 5.86-18.02 9.45-28.57 10.76-3.34.39-6.91.58-10.71.58-1.79 0-3.57-.08-5.35-.23h-.7c-4.65-.39-8.79-2.08-12.39-5.06-3.61-2.99-6.07-6.77-7.39-11.34-.47-1.94-.7-4-.7-6.17 0-2.79.41-5.58 1.22-8.38.81-2.79 2.07-5.16 3.78-7.1.93-.85 1.94-1.28 3.03-1.28.77 0 1.59.16 2.44.47 2.48 1.09 4.81 1.63 6.98 1.63 4.11 0 7.78-1.4 11-4.19s5.95-6.17 8.2-10.12c2.25-3.96 3.99-7.76 5.24-11.4.77-2.25 1.43-4.61 1.98-7.1.54-2.48.81-5 .81-7.56 0-3.8-.89-7.37-2.68-10.71-2.02-3.03-4.62-4.54-7.8-4.54-1.55 0-3.14.27-4.77.81-6.13 2.33-11.29 6.13-15.48 11.4-1.47 2.09-2.83 4.11-4.07 6.05-3.57 5.82-6.71 11.91-9.43 18.27-3.96 16.45-7.76 32.93-11.4 49.45-1.63 7.76-3.18 15.32-4.65 22.69-2.95 12.64-6.87 24.94-11.75 36.89 5.74 1.94 11.52 3.96 17.34 6.05 9 3.26 18.19 5.95 27.58 8.09 9.39 2.13 18.85 3.2 28.39 3.2 3.72 0 7.41-.19 11.05-.58 4.96-.46 9.87-1.53 14.72-3.2s9.13-4.17 12.86-7.51c3.49-3.26 6.09-7.1 7.8-11.52 1.09-3.18 1.9-6.4 2.44-9.66.15-2.02 1.05-3.61 2.68-4.77 2.48-1.16 5.24-1.75 8.26-1.75 2.33 0 4.46.15 6.4.47 4.73.77 9.11 2.56 13.15 5.35 8.3 5.97 14.08 13.81 17.34 23.5 1.71 5.2 2.56 10.39 2.56 15.59 0 8.07-2.06 15.59-6.17 22.57s-10.09 12.37-17.92 16.17c-5.59 2.56-11.4 4.4-17.45 5.53-6.05 1.12-12.14 1.69-18.27 1.69-2.72 0-5.39-.12-8.03-.35-8.15-.7-15.98-2.21-23.51-4.54s-15.05-4.97-22.57-7.91c-10.55-4.03-20.97-8.36-31.24-12.97-10.28-4.62-20.62-9.17-31.01-13.67-3.1-1.24-6.17-2.48-9.19-3.72-5.97 10.63-13.61 19.97-22.92 28.04-12.1 9.85-25.72 16.79-40.84 20.83-7.99 2.02-16.04 3.62-24.15 4.83-8.11 1.2-16.27 1.8-24.49 1.8zm9.19-36.19c4.97 0 9.89-.47 14.78-1.4 16.29-3.57 31.07-10.43 44.33-20.6 3.96-2.95 7.53-6.21 10.71-9.77-6.52-2.25-13.03-4.35-19.55-6.28-9.85-3.03-19.94-5.66-30.25-7.91-10.32-2.25-20.63-3.37-30.95-3.37-1.71 0-3.41.04-5.12.12-4.42.15-8.9.79-13.44 1.92-4.54 1.12-8.4 3.28-11.58 6.46-2.95 3.57-4.42 7.56-4.42 11.99 0 5.74 2.06 10.94 6.17 15.59 5.12 4.73 11.33 8.15 18.62 10.24 6.83 2.02 13.73 3.03 20.71 3.03z"/><path d="m1120.03 601.74c-8.46 0-16.27-2.31-23.45-6.92-7.18-4.62-12.12-11.27-14.84-19.96-1.32-4.89-1.98-9.93-1.98-15.13 0-7.91 1.3-15.86 3.9-23.85s6.19-15.28 10.76-21.88c4.58-6.59 9.97-11.91 16.17-15.94 6.21-4.03 12.92-6.05 20.13-6.05 5.89 0 11.52 1.63 16.87 4.89s8.8 8.19 10.36 14.78c.39 1.86.58 3.72.58 5.59 0 4.81-1.03 9.45-3.08 13.91-2.06 4.46-4.71 8.51-7.97 12.16-3.41 3.96-7.68 7.45-12.8 10.47-5.12 3.03-10.36 4.54-15.71 4.54-1.63 0-3.22-.19-4.77-.58 2.95 3.88 6.81 6.89 11.58 9.02s9.6 3.2 14.49 3.2 9.02-.99 12.86-2.97 7.33-4.54 10.47-7.68 6.03-6.61 8.67-10.41c3.8-5.43 6.83-11.29 9.08-17.57.39-1.01.99-1.76 1.8-2.27.81-.5 1.65-.76 2.5-.76 1.16 0 2.21.35 3.14 1.05s1.4 1.63 1.4 2.79c0 .47-.08 1.01-.23 1.63-5.12 14.51-12.3 27.75-21.53 39.74s-20.4 20.54-33.51 25.66c-4.89 1.71-9.85 2.56-14.89 2.56zm-9.77-59.46c8.53-.7 15.71-4.31 21.53-10.82 2.17-2.48 4.07-5.29 5.7-8.44 1.63-3.14 2.44-6.34 2.44-9.6-.31-3.88-2.6-5.82-6.87-5.82-1.86 0-3.69.41-5.47 1.22-1.79.81-3.34 1.8-4.65 2.97-4.35 3.57-7.53 8.11-9.54 13.61-2.02 5.51-3.07 11.13-3.14 16.87z"/></g><path d="m461.65 624.09c-5.59 0-11.05-.89-16.41-2.68-5.35-1.79-10.2-4.42-14.55-7.91-8.77-7.76-13.77-17.41-15.01-28.97-.15-1.4-.23-2.79-.23-4.19 0-5.27 1.05-10.43 3.14-15.48 2.09-5.04 5.27-9.27 9.54-12.68 2.48-2.02 5.27-3.7 8.38-5.06 3.1-1.36 6.28-2.04 9.54-2.04h.23c2.4 0 4.73.58 6.98 1.75 2.25 1.16 3.37 2.87 3.37 5.12 0 .7-.16 1.44-.47 2.21-.16.39-.35.78-.58 1.16-1.4 2.17-2.09 4.5-2.09 6.98 0 2.64.7 5.12 2.09 7.45 1.55 2.41 3.63 4.19 6.23 5.35s5.29 1.75 8.09 1.75c.62 0 1.2-.04 1.75-.12 6.59-.93 11.67-4.27 15.24-10.01 3.96-5.97 7.27-12.35 9.95-19.14s5.06-13.56 7.16-20.31c4.81-15.36 9.08-30.84 12.8-46.43 2.17-9.23 4.89-18.23 8.15-27-3.65.16-7.25.27-10.82.35-7.21-.15-14.7.17-22.46.99-7.76.81-14.47 3.71-20.13 8.67-4.5 4.65-6.75 9.77-6.75 15.36 0 2.95.7 5.76 2.09 8.44 1.4 2.68 3.53 4.91 6.4 6.69 1.47.7 2.85 1.4 4.13 2.09 1.28.7 2.07 1.98 2.39 3.84v.7c0 .85-.08 1.67-.23 2.44-.54 5.43-2.37 10.36-5.47 14.78-2.95 3.88-6.57 6.69-10.88 8.44s-8.83 2.62-13.56 2.62-9.5-.77-14.08-2.33c-7.76-2.71-13.36-7.31-16.81-13.79s-5.18-13.48-5.18-21c0-8.3 1.75-16.21 5.24-23.74 5.82-11.71 14.82-19.94 27-24.67 6.28-2.25 12.76-3.7 19.43-4.36s13.34-.99 20.01-.99h6.75c6.59.16 13.15.51 19.67 1.05s13.03.89 19.55 1.05c1.86-3.18 4.01-6.17 6.46-8.96 2.44-2.79 5.24-5.06 8.38-6.81s6.65-2.62 10.53-2.62h.12c1.32 0 2.81.12 4.48.35s3.12.74 4.36 1.51c2.09 1.01 3.72 2.6 4.89 4.77 1.16 2.17 1.75 4.42 1.75 6.75 0 1.01-.12 2.02-.35 3.03-.62 2.25-1.79 4.13-3.49 5.64-1.71 1.51-3.61 2.73-5.7 3.67-2.72 1.16-5.55 2.06-8.49 2.68v.81l.23 1.63c.08.47.12.78.12.93l.23 1.51c.15 1.01.31 2.02.47 3.03.93 5.28 1.98 10.51 3.14 15.71 5.43 25.91 12.61 51.32 21.53 76.22 1.78 5.04 3.68 10.01 5.7 14.89.15-2.95.31-5.89.47-8.84.85-14.2 2.52-28.28 5-42.24 2.09-12.64 5.24-25.02 9.43-37.12 2.17-6.21 4.85-12.29 8.03-18.27 3.18-5.97 7.17-11.21 11.99-15.71 6.83-5.97 14.43-8.96 22.81-8.96 3.65 0 7.14.78 10.47 2.33 1.94.93 3.7 2.27 5.29 4.01 1.59 1.75 2.39 3.51 2.39 5.29 0 1.94-1.32 3.61-3.96 5-9 4.42-15.98 11.05-20.95 19.9-7.45 13.03-13.11 26.8-16.99 41.31-4.5 16.06-7.95 32.35-10.36 48.87-1.09 6.28-1.63 12.65-1.63 19.08 0 7.37 1.12 14.59 3.37 21.64.23.47.39.93.47 1.4 0 .15.04.27.12.35.23.62.35 1.16.35 1.63 0 1.86-1.01 3.06-3.03 3.61-2.64 2.33-5.63 3.92-8.96 4.77-2.72.7-5.47 1.05-8.26 1.05-4.11 0-8.11-.78-11.99-2.33-6.75-3.26-11.95-8.15-15.59-14.66-3.65-6.52-6.52-13.19-8.61-20.01-4.81-14.74-8.19-29.83-10.12-45.27-1.79-12.49-2.95-25.06-3.49-37.7-3.34 15.44-6.79 30.8-10.36 46.08-1.94 8.3-4.11 16.7-6.52 25.19s-5.66 16.51-9.77 24.03c-5.35 9.31-12.37 17.14-21.06 23.51-8.69 6.36-18.46 9.97-29.32 10.82-1.09.08-2.13.12-3.14.12z" fill="none" stroke="#fff3aa" stroke-width="46.85"/><path d="m673.78 601.74c-1.55 0-3.14-.08-4.77-.23-7.76-1.16-13.98-4.07-18.68-8.73-4.69-4.65-8.11-10.34-10.24-17.05s-3.2-13.56-3.2-20.54c0-7.91 1.24-15.65 3.72-23.21s5.95-14.39 10.41-20.48 9.77-10.96 15.94-14.6c6.17-3.65 12.9-5.47 20.19-5.47 4.73 0 9.23.91 13.5 2.73s8.03 4.6 11.29 8.32c2.17 2.33 4.27 5.86 6.28 10.59 2.25 6.67 3.37 13.61 3.37 20.83 0 4.89-.39 9.74-1.16 14.54 1.16.23 2.37.35 3.61.35 3.49 0 6.61-.85 9.37-2.56 2.75-1.71 5.18-3.99 7.27-6.87 2.09-3.03 3.76-6.01 5-8.96l-.35.7c.93-2.25 2.37-3.37 4.31-3.37 1.09 0 2.11.43 3.08 1.28s1.45 1.94 1.45 3.26c0 .39-.08.78-.23 1.16-2.72 7.45-7.37 14.06-13.96 19.84s-14.31 9.13-23.16 10.07c-2.25 6.52-5.35 12.68-9.31 18.5s-8.77 10.59-14.43 14.31-12.1 5.58-19.32 5.58zm8.26-35.02c3.03 0 5.7-.83 8.03-2.5s4.34-3.82 6.05-6.46c-4.42-3.1-6.63-6.98-6.63-11.64 0-3.8 1.4-6.94 4.19-9.43 2.79-2.48 6.17-3.84 10.12-4.07v.12l.12-3.96c0-3.88-.56-8.01-1.69-12.39s-3.24-7.27-6.34-8.67c-1.01-.23-2.02-.35-3.03-.35-2.09 0-4.15.54-6.17 1.63-3.72 2.17-6.69 5.29-8.9 9.37s-3.9 8.13-5.06 12.16c-.78 2.33-1.51 5.24-2.21 8.73s-1.05 7.02-1.05 10.59c0 4.27.81 8.03 2.44 11.29s4.65 5.12 9.08 5.59h1.05z" fill="none" stroke="#fff3aa" stroke-width="46.85"/><path d="m757.22 601.98c-3.49 0-6.94-.62-10.36-1.86-3.41-1.24-6.32-3.18-8.73-5.82-1.86-2.17-3.16-4.65-3.9-7.45-.74-2.79-1.11-5.62-1.11-8.49.23-6.52 1.3-12.92 3.2-19.2s3.9-12.49 5.99-18.62c9.54-29.4 19.62-58.34 30.25-86.81 1.78-4.81 3.76-9.58 5.93-14.31 1.55-3.26 4.01-5.8 7.39-7.62 3.37-1.82 7.74-2.73 13.09-2.73 2.25 0 4.46.27 6.63.81s3.99 1.47 5.47 2.79c1.47 1.32 2.21 3.1 2.21 5.35 0 .85-.23 1.67-.7 2.44l-1.63 1.98c-1.16 2.02-2.25 4.11-3.26 6.28-6.83 15.59-12.72 31.57-17.69 47.94-2.72 8.15-5.28 16.37-7.68 24.67-2.41 8.3-4.27 16.72-5.59 25.25-.54 2.33-.81 4.93-.81 7.8 0 2.25.35 4.35 1.05 6.28.85 2.09 2.19 3.55 4.01 4.36s3.78 1.22 5.88 1.22c5.12 0 9.7-1.49 13.73-4.48s7.58-6.55 10.65-10.71c3.06-4.15 5.6-8.16 7.62-12.04 1.63-3.18 3.03-6.13 4.19-8.84.85-1.63 1.94-2.44 3.26-2.44 1.16 0 2.27.49 3.32 1.45 1.05.97 1.57 2.15 1.57 3.55 0 .62-.12 1.24-.35 1.86-1.32 3.03-2.75 5.97-4.31 8.84l-.58 1.28c-5.04 9.54-11.05 18.46-18.04 26.76-6.98 8.3-15.01 15.36-24.09 21.18-4.03 2.64-8.3 4.85-12.8 6.63-4.5 1.79-9.12 2.68-13.85 2.68z" fill="none" stroke="#fff3aa" stroke-width="46.85"/><path d="m834.6 601.98c-3.49 0-6.94-.62-10.36-1.86-3.41-1.24-6.32-3.18-8.73-5.82-1.86-2.17-3.16-4.65-3.9-7.45-.74-2.79-1.11-5.62-1.11-8.49.23-6.52 1.3-12.92 3.2-19.2s3.9-12.49 5.99-18.62c9.54-29.4 19.62-58.34 30.25-86.81 1.78-4.81 3.76-9.58 5.93-14.31 1.55-3.26 4.01-5.8 7.39-7.62 3.37-1.82 7.74-2.73 13.09-2.73 2.25 0 4.46.27 6.63.81s3.99 1.47 5.47 2.79c1.47 1.32 2.21 3.1 2.21 5.35 0 .85-.23 1.67-.7 2.44l-1.63 1.98c-1.16 2.02-2.25 4.11-3.26 6.28-6.83 15.59-12.72 31.57-17.69 47.94-2.72 8.15-5.28 16.37-7.68 24.67-2.41 8.3-4.27 16.72-5.59 25.25-.54 2.33-.81 4.93-.81 7.8 0 2.25.35 4.35 1.05 6.28.85 2.09 2.19 3.55 4.01 4.36s3.78 1.22 5.88 1.22c5.12 0 9.7-1.49 13.73-4.48s7.58-6.55 10.65-10.71c3.06-4.15 5.6-8.16 7.62-12.04 1.63-3.18 3.03-6.13 4.19-8.84.85-1.63 1.94-2.44 3.26-2.44 1.16 0 2.27.49 3.32 1.45 1.05.97 1.57 2.15 1.57 3.55 0 .62-.12 1.24-.35 1.86-1.32 3.03-2.75 5.97-4.31 8.84l-.58 1.28c-5.04 9.54-11.05 18.46-18.04 26.76-6.98 8.3-15.01 15.36-24.09 21.18-4.03 2.64-8.3 4.85-12.8 6.63-4.5 1.79-9.12 2.68-13.85 2.68z" fill="none" stroke="#fff3aa" stroke-width="46.85"/><path d="m919.54 601.05c-4.58 0-8.98-.89-13.21-2.68-4.23-1.78-7.93-4.61-11.11-8.49-2.71-3.33-4.61-6.96-5.7-10.88s-1.63-7.97-1.63-12.16c0-5.74.74-11.48 2.21-17.22 1.55-6.67 3.57-13.27 6.05-19.78 2.79-8.3 5.78-16.48 8.96-24.55.7-2.02 1.55-4.09 2.56-6.23 1.01-2.13 2.37-3.86 4.07-5.18 2.56-1.63 5.39-2.48 8.49-2.56h1.63c2.56 0 5.33.43 8.32 1.28s5.1 2.44 6.34 4.77c.39.85.58 1.67.58 2.44 0 1.09-.39 2.09-1.16 3.03-1.4 1.55-2.37 3.41-2.91 5.59-.54 2.17-1.01 4.27-1.4 6.28-.62 2.41-1.2 4.85-1.75 7.33-1.55 7.06-2.52 14.2-2.91 21.41-.16 1.63-.23 3.37-.23 5.24 0 2.33.23 4.67.7 7.04s1.4 4.4 2.79 6.11c1.55 1.71 3.26 2.97 5.12 3.78s3.8 1.22 5.82 1.22c4.89 0 9.35-1.98 13.38-5.93 3.72-4.03 6.71-8.65 8.96-13.85s4.07-10.43 5.47-15.71v-.35c.31-1.09.83-1.88 1.57-2.39.74-.5 1.53-.76 2.39-.76.47 0 .93.08 1.4.23 2.33.54 3.49 1.86 3.49 3.96 0 .47-.04.93-.12 1.4 0 .08-.04.19-.12.35-3.1 12.03-7.76 23.39-13.96 34.09-2.56 4.81-5.55 9.43-8.96 13.85s-7.29 8.26-11.64 11.52c-7.45 5.2-15.28 7.8-23.5 7.8zm7.45-119.74c-2.79 0-5.39-.85-7.8-2.56-3.72-2.56-5.59-6.01-5.59-10.36.23-3.8 1.12-7.41 2.68-10.82 1.24-3.57 3.33-6.48 6.28-8.73 1.78-1.01 3.65-1.51 5.59-1.51.7 0 1.43.04 2.21.12 1.78.31 3.41.93 4.89 1.86 2.33 1.55 3.8 3.72 4.42 6.52.39 1.55.58 3.14.58 4.77s-.12 3.37-.35 5c-.47 3.72-1.63 7.18-3.49 10.36-1.86 2.95-4.54 4.69-8.03 5.24-.47.08-.93.12-1.4.12z" fill="none" stroke="#fff3aa" stroke-width="46.85"/><path d="m840.53 736.14h-.35c-11.4.08-22.65-1.22-33.75-3.9-11.09-2.68-21.53-7-31.3-12.97-8.15-4.89-14.91-11.02-20.31-18.38-5.39-7.37-8.44-15.94-9.13-25.72v-2.09c0-11.87 4.19-22.65 12.57-32.35 5.2-5.51 11.23-9.52 18.09-12.04 6.87-2.52 14.02-4.17 21.47-4.95 6.98-.85 14-1.28 21.06-1.28 12.41 0 24.83 1.01 37.24 3.03s24.63 4.5 36.65 7.45c13.96 3.33 27.85 7.14 41.66 11.4h.12c.78 0 1.84-1.67 3.2-5 1.36-3.34 2.79-7.51 4.31-12.51 1.51-5 2.99-10.07 4.42-15.18 1.44-5.12 2.64-9.58 3.61-13.38s1.57-6.21 1.8-7.21c4.27-15.75 8.57-31.53 12.92-47.36 2.17-7.91 4.38-15.83 6.63-23.74 1.47-6.52 3.49-12.84 6.05-18.97 1.63-3.57 3.9-6.15 6.81-7.74s6.03-2.39 9.37-2.39c4.42 0 8.73 1.16 12.92 3.49 1.47 1.09 2.21 2.37 2.21 3.84 0 1.16-.43 2.25-1.28 3.26l-.12.12c-.08.16-.19.31-.35.47-.31.54-.62 1.09-.93 1.63-.7 1.4-1.32 2.83-1.86 4.31-.47 1.4-.93 2.75-1.4 4.07l1.16-1.4c4.11-4.96 9.04-9.31 14.78-13.03s11.71-5.59 17.92-5.59c5.35 0 10.59 1.94 15.71 5.82 4.19 3.49 7.19 7.76 9.02 12.8 1.82 5.04 2.89 10.28 3.2 15.71.08 1.47.12 2.95.12 4.42 0 10.86-1.98 21.61-5.93 32.23-1.79 5.12-4.11 10.05-6.98 14.78 7.29-3.02 13.75-7.27 19.37-12.74s10.41-11.65 14.37-18.56c1.47-2.56 2.87-5.16 4.19-7.8 1.01-2.02 1.94-4.03 2.79-6.05l.12-.12.47-1.16c.47-1.09 1.11-1.86 1.92-2.33s1.65-.7 2.5-.7c1.16 0 2.21.33 3.14.99s1.4 1.57 1.4 2.73c0 .54-.12 1.09-.35 1.63-5.2 12.96-12.1 24.9-20.71 35.84-6.28 8.3-13.67 15.38-22.17 21.24-8.49 5.86-18.02 9.45-28.57 10.76-3.34.39-6.91.58-10.71.58-1.79 0-3.57-.08-5.35-.23h-.7c-4.65-.39-8.79-2.08-12.39-5.06-3.61-2.99-6.07-6.77-7.39-11.34-.47-1.94-.7-4-.7-6.17 0-2.79.41-5.58 1.22-8.38.81-2.79 2.07-5.16 3.78-7.1.93-.85 1.94-1.28 3.03-1.28.77 0 1.59.16 2.44.47 2.48 1.09 4.81 1.63 6.98 1.63 4.11 0 7.78-1.4 11-4.19s5.95-6.17 8.2-10.12c2.25-3.96 3.99-7.76 5.24-11.4.77-2.25 1.43-4.61 1.98-7.1.54-2.48.81-5 .81-7.56 0-3.8-.89-7.37-2.68-10.71-2.02-3.03-4.62-4.54-7.8-4.54-1.55 0-3.14.27-4.77.81-6.13 2.33-11.29 6.13-15.48 11.4-1.47 2.09-2.83 4.11-4.07 6.05-3.57 5.82-6.71 11.91-9.43 18.27-3.96 16.45-7.76 32.93-11.4 49.45-1.63 7.76-3.18 15.32-4.65 22.69-2.95 12.64-6.87 24.94-11.75 36.89 5.74 1.94 11.52 3.96 17.34 6.05 9 3.26 18.19 5.95 27.58 8.09 9.39 2.13 18.85 3.2 28.39 3.2 3.72 0 7.41-.19 11.05-.58 4.96-.46 9.87-1.53 14.72-3.2s9.13-4.17 12.86-7.51c3.49-3.26 6.09-7.1 7.8-11.52 1.09-3.18 1.9-6.4 2.44-9.66.15-2.02 1.05-3.61 2.68-4.77 2.48-1.16 5.24-1.75 8.26-1.75 2.33 0 4.46.15 6.4.47 4.73.77 9.11 2.56 13.15 5.35 8.3 5.97 14.08 13.81 17.34 23.5 1.71 5.2 2.56 10.39 2.56 15.59 0 8.07-2.06 15.59-6.17 22.57s-10.09 12.37-17.92 16.17c-5.59 2.56-11.4 4.4-17.45 5.53-6.05 1.12-12.14 1.69-18.27 1.69-2.72 0-5.39-.12-8.03-.35-8.15-.7-15.98-2.21-23.51-4.54s-15.05-4.97-22.57-7.91c-10.55-4.03-20.97-8.36-31.24-12.97-10.28-4.62-20.62-9.17-31.01-13.67-3.1-1.24-6.17-2.48-9.19-3.72-5.97 10.63-13.61 19.97-22.92 28.04-12.1 9.85-25.72 16.79-40.84 20.83-7.99 2.02-16.04 3.62-24.15 4.83-8.11 1.2-16.27 1.8-24.49 1.8zm9.19-36.19c4.97 0 9.89-.47 14.78-1.4 16.29-3.57 31.07-10.43 44.33-20.6 3.96-2.95 7.53-6.21 10.71-9.77-6.52-2.25-13.03-4.35-19.55-6.28-9.85-3.03-19.94-5.66-30.25-7.91-10.32-2.25-20.63-3.37-30.95-3.37-1.71 0-3.41.04-5.12.12-4.42.15-8.9.79-13.44 1.92-4.54 1.12-8.4 3.28-11.58 6.46-2.95 3.57-4.42 7.56-4.42 11.99 0 5.74 2.06 10.94 6.17 15.59 5.12 4.73 11.33 8.15 18.62 10.24 6.83 2.02 13.73 3.03 20.71 3.03z" fill="none" stroke="#fff3aa" stroke-width="46.85"/><path d="m1120.03 601.74c-8.46 0-16.27-2.31-23.45-6.92-7.18-4.62-12.12-11.27-14.84-19.96-1.32-4.89-1.98-9.93-1.98-15.13 0-7.91 1.3-15.86 3.9-23.85s6.19-15.28 10.76-21.88c4.58-6.59 9.97-11.91 16.17-15.94 6.21-4.03 12.92-6.05 20.13-6.05 5.89 0 11.52 1.63 16.87 4.89s8.8 8.19 10.36 14.78c.39 1.86.58 3.72.58 5.59 0 4.81-1.03 9.45-3.08 13.91-2.06 4.46-4.71 8.51-7.97 12.16-3.41 3.96-7.68 7.45-12.8 10.47-5.12 3.03-10.36 4.54-15.71 4.54-1.63 0-3.22-.19-4.77-.58 2.95 3.88 6.81 6.89 11.58 9.02s9.6 3.2 14.49 3.2 9.02-.99 12.86-2.97 7.33-4.54 10.47-7.68 6.03-6.61 8.67-10.41c3.8-5.43 6.83-11.29 9.08-17.57.39-1.01.99-1.76 1.8-2.27.81-.5 1.65-.76 2.5-.76 1.16 0 2.21.35 3.14 1.05s1.4 1.63 1.4 2.79c0 .47-.08 1.01-.23 1.63-5.12 14.51-12.3 27.75-21.53 39.74s-20.4 20.54-33.51 25.66c-4.89 1.71-9.85 2.56-14.89 2.56zm-9.77-59.46c8.53-.7 15.71-4.31 21.53-10.82 2.17-2.48 4.07-5.29 5.7-8.44 1.63-3.14 2.44-6.34 2.44-9.6-.31-3.88-2.6-5.82-6.87-5.82-1.86 0-3.69.41-5.47 1.22-1.79.81-3.34 1.8-4.65 2.97-4.35 3.57-7.53 8.11-9.54 13.61-2.02 5.51-3.07 11.13-3.14 16.87z" fill="none" stroke="#fff3aa" stroke-width="46.85"/><path d="m461.65 624.09c-5.59 0-11.05-.89-16.41-2.68-5.35-1.79-10.2-4.42-14.55-7.91-8.77-7.76-13.77-17.41-15.01-28.97-.15-1.4-.23-2.79-.23-4.19 0-5.27 1.05-10.43 3.14-15.48 2.09-5.04 5.27-9.27 9.54-12.68 2.48-2.02 5.27-3.7 8.38-5.06 3.1-1.36 6.28-2.04 9.54-2.04h.23c2.4 0 4.73.58 6.98 1.75 2.25 1.16 3.37 2.87 3.37 5.12 0 .7-.16 1.44-.47 2.21-.16.39-.35.78-.58 1.16-1.4 2.17-2.09 4.5-2.09 6.98 0 2.64.7 5.12 2.09 7.45 1.55 2.41 3.63 4.19 6.23 5.35s5.29 1.75 8.09 1.75c.62 0 1.2-.04 1.75-.12 6.59-.93 11.67-4.27 15.24-10.01 3.96-5.97 7.27-12.35 9.95-19.14s5.06-13.56 7.16-20.31c4.81-15.36 9.08-30.84 12.8-46.43 2.17-9.23 4.89-18.23 8.15-27-3.65.16-7.25.27-10.82.35-7.21-.15-14.7.17-22.46.99-7.76.81-14.47 3.71-20.13 8.67-4.5 4.65-6.75 9.77-6.75 15.36 0 2.95.7 5.76 2.09 8.44 1.4 2.68 3.53 4.91 6.4 6.69 1.47.7 2.85 1.4 4.13 2.09 1.28.7 2.07 1.98 2.39 3.84v.7c0 .85-.08 1.67-.23 2.44-.54 5.43-2.37 10.36-5.47 14.78-2.95 3.88-6.57 6.69-10.88 8.44s-8.83 2.62-13.56 2.62-9.5-.77-14.08-2.33c-7.76-2.71-13.36-7.31-16.81-13.79s-5.18-13.48-5.18-21c0-8.3 1.75-16.21 5.24-23.74 5.82-11.71 14.82-19.94 27-24.67 6.28-2.25 12.76-3.7 19.43-4.36s13.34-.99 20.01-.99h6.75c6.59.16 13.15.51 19.67 1.05s13.03.89 19.55 1.05c1.86-3.18 4.01-6.17 6.46-8.96 2.44-2.79 5.24-5.06 8.38-6.81s6.65-2.62 10.53-2.62h.12c1.32 0 2.81.12 4.48.35s3.12.74 4.36 1.51c2.09 1.01 3.72 2.6 4.89 4.77 1.16 2.17 1.75 4.42 1.75 6.75 0 1.01-.12 2.02-.35 3.03-.62 2.25-1.79 4.13-3.49 5.64-1.71 1.51-3.61 2.73-5.7 3.67-2.72 1.16-5.55 2.06-8.49 2.68v.81l.23 1.63c.08.47.12.78.12.93l.23 1.51c.15 1.01.31 2.02.47 3.03.93 5.28 1.98 10.51 3.14 15.71 5.43 25.91 12.61 51.32 21.53 76.22 1.78 5.04 3.68 10.01 5.7 14.89.15-2.95.31-5.89.47-8.84.85-14.2 2.52-28.28 5-42.24 2.09-12.64 5.24-25.02 9.43-37.12 2.17-6.21 4.85-12.29 8.03-18.27 3.18-5.97 7.17-11.21 11.99-15.71 6.83-5.97 14.43-8.96 22.81-8.96 3.65 0 7.14.78 10.47 2.33 1.94.93 3.7 2.27 5.29 4.01 1.59 1.75 2.39 3.51 2.39 5.29 0 1.94-1.32 3.61-3.96 5-9 4.42-15.98 11.05-20.95 19.9-7.45 13.03-13.11 26.8-16.99 41.31-4.5 16.06-7.95 32.35-10.36 48.87-1.09 6.28-1.63 12.65-1.63 19.08 0 7.37 1.12 14.59 3.37 21.64.23.47.39.93.47 1.4 0 .15.04.27.12.35.23.62.35 1.16.35 1.63 0 1.86-1.01 3.06-3.03 3.61-2.64 2.33-5.63 3.92-8.96 4.77-2.72.7-5.47 1.05-8.26 1.05-4.11 0-8.11-.78-11.99-2.33-6.75-3.26-11.95-8.15-15.59-14.66-3.65-6.52-6.52-13.19-8.61-20.01-4.81-14.74-8.19-29.83-10.12-45.27-1.79-12.49-2.95-25.06-3.49-37.7-3.34 15.44-6.79 30.8-10.36 46.08-1.94 8.3-4.11 16.7-6.52 25.19s-5.66 16.51-9.77 24.03c-5.35 9.31-12.37 17.14-21.06 23.51-8.69 6.36-18.46 9.97-29.32 10.82-1.09.08-2.13.12-3.14.12z" fill="#ec661c"/><path d="m673.78 601.74c-1.55 0-3.14-.08-4.77-.23-7.76-1.16-13.98-4.07-18.68-8.73-4.69-4.65-8.11-10.34-10.24-17.05s-3.2-13.56-3.2-20.54c0-7.91 1.24-15.65 3.72-23.21s5.95-14.39 10.41-20.48 9.77-10.96 15.94-14.6c6.17-3.65 12.9-5.47 20.19-5.47 4.73 0 9.23.91 13.5 2.73s8.03 4.6 11.29 8.32c2.17 2.33 4.27 5.86 6.28 10.59 2.25 6.67 3.37 13.61 3.37 20.83 0 4.89-.39 9.74-1.16 14.54 1.16.23 2.37.35 3.61.35 3.49 0 6.61-.85 9.37-2.56 2.75-1.71 5.18-3.99 7.27-6.87 2.09-3.03 3.76-6.01 5-8.96l-.35.7c.93-2.25 2.37-3.37 4.31-3.37 1.09 0 2.11.43 3.08 1.28s1.45 1.94 1.45 3.26c0 .39-.08.78-.23 1.16-2.72 7.45-7.37 14.06-13.96 19.84s-14.31 9.13-23.16 10.07c-2.25 6.52-5.35 12.68-9.31 18.5s-8.77 10.59-14.43 14.31-12.1 5.58-19.32 5.58zm8.26-35.02c3.03 0 5.7-.83 8.03-2.5s4.34-3.82 6.05-6.46c-4.42-3.1-6.63-6.98-6.63-11.64 0-3.8 1.4-6.94 4.19-9.43 2.79-2.48 6.17-3.84 10.12-4.07v.12l.12-3.96c0-3.88-.56-8.01-1.69-12.39s-3.24-7.27-6.34-8.67c-1.01-.23-2.02-.35-3.03-.35-2.09 0-4.15.54-6.17 1.63-3.72 2.17-6.69 5.29-8.9 9.37s-3.9 8.13-5.06 12.16c-.78 2.33-1.51 5.24-2.21 8.73s-1.05 7.02-1.05 10.59c0 4.27.81 8.03 2.44 11.29s4.65 5.12 9.08 5.59h1.05z" fill="#ec661c"/><path d="m757.22 601.98c-3.49 0-6.94-.62-10.36-1.86-3.41-1.24-6.32-3.18-8.73-5.82-1.86-2.17-3.16-4.65-3.9-7.45-.74-2.79-1.11-5.62-1.11-8.49.23-6.52 1.3-12.92 3.2-19.2s3.9-12.49 5.99-18.62c9.54-29.4 19.62-58.34 30.25-86.81 1.78-4.81 3.76-9.58 5.93-14.31 1.55-3.26 4.01-5.8 7.39-7.62 3.37-1.82 7.74-2.73 13.09-2.73 2.25 0 4.46.27 6.63.81s3.99 1.47 5.47 2.79c1.47 1.32 2.21 3.1 2.21 5.35 0 .85-.23 1.67-.7 2.44l-1.63 1.98c-1.16 2.02-2.25 4.11-3.26 6.28-6.83 15.59-12.72 31.57-17.69 47.94-2.72 8.15-5.28 16.37-7.68 24.67-2.41 8.3-4.27 16.72-5.59 25.25-.54 2.33-.81 4.93-.81 7.8 0 2.25.35 4.35 1.05 6.28.85 2.09 2.19 3.55 4.01 4.36s3.78 1.22 5.88 1.22c5.12 0 9.7-1.49 13.73-4.48s7.58-6.55 10.65-10.71c3.06-4.15 5.6-8.16 7.62-12.04 1.63-3.18 3.03-6.13 4.19-8.84.85-1.63 1.94-2.44 3.26-2.44 1.16 0 2.27.49 3.32 1.45 1.05.97 1.57 2.15 1.57 3.55 0 .62-.12 1.24-.35 1.86-1.32 3.03-2.75 5.97-4.31 8.84l-.58 1.28c-5.04 9.54-11.05 18.46-18.04 26.76-6.98 8.3-15.01 15.36-24.09 21.18-4.03 2.64-8.3 4.85-12.8 6.63-4.5 1.79-9.12 2.68-13.85 2.68z" fill="#ec661c"/><path d="m834.6 601.98c-3.49 0-6.94-.62-10.36-1.86-3.41-1.24-6.32-3.18-8.73-5.82-1.86-2.17-3.16-4.65-3.9-7.45-.74-2.79-1.11-5.62-1.11-8.49.23-6.52 1.3-12.92 3.2-19.2s3.9-12.49 5.99-18.62c9.54-29.4 19.62-58.34 30.25-86.81 1.78-4.81 3.76-9.58 5.93-14.31 1.55-3.26 4.01-5.8 7.39-7.62 3.37-1.82 7.74-2.73 13.09-2.73 2.25 0 4.46.27 6.63.81s3.99 1.47 5.47 2.79c1.47 1.32 2.21 3.1 2.21 5.35 0 .85-.23 1.67-.7 2.44l-1.63 1.98c-1.16 2.02-2.25 4.11-3.26 6.28-6.83 15.59-12.72 31.57-17.69 47.94-2.72 8.15-5.28 16.37-7.68 24.67-2.41 8.3-4.27 16.72-5.59 25.25-.54 2.33-.81 4.93-.81 7.8 0 2.25.35 4.35 1.05 6.28.85 2.09 2.19 3.55 4.01 4.36s3.78 1.22 5.88 1.22c5.12 0 9.7-1.49 13.73-4.48s7.58-6.55 10.65-10.71c3.06-4.15 5.6-8.16 7.62-12.04 1.63-3.18 3.03-6.13 4.19-8.84.85-1.63 1.94-2.44 3.26-2.44 1.16 0 2.27.49 3.32 1.45 1.05.97 1.57 2.15 1.57 3.55 0 .62-.12 1.24-.35 1.86-1.32 3.03-2.75 5.97-4.31 8.84l-.58 1.28c-5.04 9.54-11.05 18.46-18.04 26.76-6.98 8.3-15.01 15.36-24.09 21.18-4.03 2.64-8.3 4.85-12.8 6.63-4.5 1.79-9.12 2.68-13.85 2.68z" fill="#ec661c"/><path d="m919.54 601.05c-4.58 0-8.98-.89-13.21-2.68-4.23-1.78-7.93-4.61-11.11-8.49-2.71-3.33-4.61-6.96-5.7-10.88s-1.63-7.97-1.63-12.16c0-5.74.74-11.48 2.21-17.22 1.55-6.67 3.57-13.27 6.05-19.78 2.79-8.3 5.78-16.48 8.96-24.55.7-2.02 1.55-4.09 2.56-6.23 1.01-2.13 2.37-3.86 4.07-5.18 2.56-1.63 5.39-2.48 8.49-2.56h1.63c2.56 0 5.33.43 8.32 1.28s5.1 2.44 6.34 4.77c.39.85.58 1.67.58 2.44 0 1.09-.39 2.09-1.16 3.03-1.4 1.55-2.37 3.41-2.91 5.59-.54 2.17-1.01 4.27-1.4 6.28-.62 2.41-1.2 4.85-1.75 7.33-1.55 7.06-2.52 14.2-2.91 21.41-.16 1.63-.23 3.37-.23 5.24 0 2.33.23 4.67.7 7.04s1.4 4.4 2.79 6.11c1.55 1.71 3.26 2.97 5.12 3.78s3.8 1.22 5.82 1.22c4.89 0 9.35-1.98 13.38-5.93 3.72-4.03 6.71-8.65 8.96-13.85s4.07-10.43 5.47-15.71v-.35c.31-1.09.83-1.88 1.57-2.39.74-.5 1.53-.76 2.39-.76.47 0 .93.08 1.4.23 2.33.54 3.49 1.86 3.49 3.96 0 .47-.04.93-.12 1.4 0 .08-.04.19-.12.35-3.1 12.03-7.76 23.39-13.96 34.09-2.56 4.81-5.55 9.43-8.96 13.85s-7.29 8.26-11.64 11.52c-7.45 5.2-15.28 7.8-23.5 7.8zm7.45-119.74c-2.79 0-5.39-.85-7.8-2.56-3.72-2.56-5.59-6.01-5.59-10.36.23-3.8 1.12-7.41 2.68-10.82 1.24-3.57 3.33-6.48 6.28-8.73 1.78-1.01 3.65-1.51 5.59-1.51.7 0 1.43.04 2.21.12 1.78.31 3.41.93 4.89 1.86 2.33 1.55 3.8 3.72 4.42 6.52.39 1.55.58 3.14.58 4.77s-.12 3.37-.35 5c-.47 3.72-1.63 7.18-3.49 10.36-1.86 2.95-4.54 4.69-8.03 5.24-.47.08-.93.12-1.4.12z" fill="#ec661c"/><path d="m840.53 736.14h-.35c-11.4.08-22.65-1.22-33.75-3.9-11.09-2.68-21.53-7-31.3-12.97-8.15-4.89-14.91-11.02-20.31-18.38-5.39-7.37-8.44-15.94-9.13-25.72v-2.09c0-11.87 4.19-22.65 12.57-32.35 5.2-5.51 11.23-9.52 18.09-12.04 6.87-2.52 14.02-4.17 21.47-4.95 6.98-.85 14-1.28 21.06-1.28 12.41 0 24.83 1.01 37.24 3.03s24.63 4.5 36.65 7.45c13.96 3.33 27.85 7.14 41.66 11.4h.12c.78 0 1.84-1.67 3.2-5 1.36-3.34 2.79-7.51 4.31-12.51 1.51-5 2.99-10.07 4.42-15.18 1.44-5.12 2.64-9.58 3.61-13.38s1.57-6.21 1.8-7.21c4.27-15.75 8.57-31.53 12.92-47.36 2.17-7.91 4.38-15.83 6.63-23.74 1.47-6.52 3.49-12.84 6.05-18.97 1.63-3.57 3.9-6.15 6.81-7.74s6.03-2.39 9.37-2.39c4.42 0 8.73 1.16 12.92 3.49 1.47 1.09 2.21 2.37 2.21 3.84 0 1.16-.43 2.25-1.28 3.26l-.12.12c-.08.16-.19.31-.35.47-.31.54-.62 1.09-.93 1.63-.7 1.4-1.32 2.83-1.86 4.31-.47 1.4-.93 2.75-1.4 4.07l1.16-1.4c4.11-4.96 9.04-9.31 14.78-13.03s11.71-5.59 17.92-5.59c5.35 0 10.59 1.94 15.71 5.82 4.19 3.49 7.19 7.76 9.02 12.8 1.82 5.04 2.89 10.28 3.2 15.71.08 1.47.12 2.95.12 4.42 0 10.86-1.98 21.61-5.93 32.23-1.79 5.12-4.11 10.05-6.98 14.78 7.29-3.02 13.75-7.27 19.37-12.74s10.41-11.65 14.37-18.56c1.47-2.56 2.87-5.16 4.19-7.8 1.01-2.02 1.94-4.03 2.79-6.05l.12-.12.47-1.16c.47-1.09 1.11-1.86 1.92-2.33s1.65-.7 2.5-.7c1.16 0 2.21.33 3.14.99s1.4 1.57 1.4 2.73c0 .54-.12 1.09-.35 1.63-5.2 12.96-12.1 24.9-20.71 35.84-6.28 8.3-13.67 15.38-22.17 21.24-8.49 5.86-18.02 9.45-28.57 10.76-3.34.39-6.91.58-10.71.58-1.79 0-3.57-.08-5.35-.23h-.7c-4.65-.39-8.79-2.08-12.39-5.06-3.61-2.99-6.07-6.77-7.39-11.34-.47-1.94-.7-4-.7-6.17 0-2.79.41-5.58 1.22-8.38.81-2.79 2.07-5.16 3.78-7.1.93-.85 1.94-1.28 3.03-1.28.77 0 1.59.16 2.44.47 2.48 1.09 4.81 1.63 6.98 1.63 4.11 0 7.78-1.4 11-4.19s5.95-6.17 8.2-10.12c2.25-3.96 3.99-7.76 5.24-11.4.77-2.25 1.43-4.61 1.98-7.1.54-2.48.81-5 .81-7.56 0-3.8-.89-7.37-2.68-10.71-2.02-3.03-4.62-4.54-7.8-4.54-1.55 0-3.14.27-4.77.81-6.13 2.33-11.29 6.13-15.48 11.4-1.47 2.09-2.83 4.11-4.07 6.05-3.57 5.82-6.71 11.91-9.43 18.27-3.96 16.45-7.76 32.93-11.4 49.45-1.63 7.76-3.18 15.32-4.65 22.69-2.95 12.64-6.87 24.94-11.75 36.89 5.74 1.94 11.52 3.96 17.34 6.05 9 3.26 18.19 5.95 27.58 8.09 9.39 2.13 18.85 3.2 28.39 3.2 3.72 0 7.41-.19 11.05-.58 4.96-.46 9.87-1.53 14.72-3.2s9.13-4.17 12.86-7.51c3.49-3.26 6.09-7.1 7.8-11.52 1.09-3.18 1.9-6.4 2.44-9.66.15-2.02 1.05-3.61 2.68-4.77 2.48-1.16 5.24-1.75 8.26-1.75 2.33 0 4.46.15 6.4.47 4.73.77 9.11 2.56 13.15 5.35 8.3 5.97 14.08 13.81 17.34 23.5 1.71 5.2 2.56 10.39 2.56 15.59 0 8.07-2.06 15.59-6.17 22.57s-10.09 12.37-17.92 16.17c-5.59 2.56-11.4 4.4-17.45 5.53-6.05 1.12-12.14 1.69-18.27 1.69-2.72 0-5.39-.12-8.03-.35-8.15-.7-15.98-2.21-23.51-4.54s-15.05-4.97-22.57-7.91c-10.55-4.03-20.97-8.36-31.24-12.97-10.28-4.62-20.62-9.17-31.01-13.67-3.1-1.24-6.17-2.48-9.19-3.72-5.97 10.63-13.61 19.97-22.92 28.04-12.1 9.85-25.72 16.79-40.84 20.83-7.99 2.02-16.04 3.62-24.15 4.83-8.11 1.2-16.27 1.8-24.49 1.8zm9.19-36.19c4.97 0 9.89-.47 14.78-1.4 16.29-3.57 31.07-10.43 44.33-20.6 3.96-2.95 7.53-6.21 10.71-9.77-6.52-2.25-13.03-4.35-19.55-6.28-9.85-3.03-19.94-5.66-30.25-7.91-10.32-2.25-20.63-3.37-30.95-3.37-1.71 0-3.41.04-5.12.12-4.42.15-8.9.79-13.44 1.92-4.54 1.12-8.4 3.28-11.58 6.46-2.95 3.57-4.42 7.56-4.42 11.99 0 5.74 2.06 10.94 6.17 15.59 5.12 4.73 11.33 8.15 18.62 10.24 6.83 2.02 13.73 3.03 20.71 3.03z" fill="#ec661c"/><path d="m1120.03 601.74c-8.46 0-16.27-2.31-23.45-6.92-7.18-4.62-12.12-11.27-14.84-19.96-1.32-4.89-1.98-9.93-1.98-15.13 0-7.91 1.3-15.86 3.9-23.85s6.19-15.28 10.76-21.88c4.58-6.59 9.97-11.91 16.17-15.94 6.21-4.03 12.92-6.05 20.13-6.05 5.89 0 11.52 1.63 16.87 4.89s8.8 8.19 10.36 14.78c.39 1.86.58 3.72.58 5.59 0 4.81-1.03 9.45-3.08 13.91-2.06 4.46-4.71 8.51-7.97 12.16-3.41 3.96-7.68 7.45-12.8 10.47-5.12 3.03-10.36 4.54-15.71 4.54-1.63 0-3.22-.19-4.77-.58 2.95 3.88 6.81 6.89 11.58 9.02s9.6 3.2 14.49 3.2 9.02-.99 12.86-2.97 7.33-4.54 10.47-7.68 6.03-6.61 8.67-10.41c3.8-5.43 6.83-11.29 9.08-17.57.39-1.01.99-1.76 1.8-2.27.81-.5 1.65-.76 2.5-.76 1.16 0 2.21.35 3.14 1.05s1.4 1.63 1.4 2.79c0 .47-.08 1.01-.23 1.63-5.12 14.51-12.3 27.75-21.53 39.74s-20.4 20.54-33.51 25.66c-4.89 1.71-9.85 2.56-14.89 2.56zm-9.77-59.46c8.53-.7 15.71-4.31 21.53-10.82 2.17-2.48 4.07-5.29 5.7-8.44 1.63-3.14 2.44-6.34 2.44-9.6-.31-3.88-2.6-5.82-6.87-5.82-1.86 0-3.69.41-5.47 1.22-1.79.81-3.34 1.8-4.65 2.97-4.35 3.57-7.53 8.11-9.54 13.61-2.02 5.51-3.07 11.13-3.14 16.87z" fill="#ec661c"/><path d="m1305.77 671.46s9.18 6.31 21.54 8.27c5.58.88 10.57 4.21 13.22 9.2.03.06.06.12.1.18 1.18 2.29-.22 5.06-2.75 5.53-13.29 2.47-54 9.99-57.96 8.53 0 0-3.39-11.76-2.64-14.29s.35-8.19.35-8.19l28.15-9.23z" fill="#f8b133"/><path d="m1297.87 670.48s-12.73 17.73-7.59 25.67c3.91 6.05-13.87 0-13.87 0s.8-15.22 1.6-16.09c.69-.76 1.78-6.95 1.78-6.95l18.09-2.62z" fill="#f29100"/><path d="m1278.18 696.72s61.38-7.84 62.34-7.79.92 5.05-2.65 5.71-53.74 10.25-57.96 8.53z" fill="#ececec"/><path d="m1233.85 687.13 5.07-88.56 22.18 4.29 14.07 77.93z" fill="#ece19f"/><path d="m1175.28 485.5 58.34 135.14 29.68 62.8 52.6-17.11-41.19-95.71-5.58-75.74-11.81-38.11" fill="#fff3ab"/><g clip-path="url(#a)"><path d="m1247.98 485.58-3.45 1.14-6.29 2.06 36.47 81.84 17.64-4.54" fill="#ece19f"/></g><path d="m1155.32 344.02c-.7 0-1.68.09-2.77.47-1.93.67-3.13 1.88-3.69 2.53l-1.97 1.98c-5.07 4.53-7.28 11.46-5.75 18.09l23.3 101.23 14.23 25.06c1.23 1.97 4.25 1.28 6.37.34l78.27-34.7c-25.98-38.85-51.95-77.71-77.93-116.56.14 1.77.61 9.82-3.94 13.1-5.43 3.91-17.48.67-26.13-11.55z" fill="#e1793b"/><g clip-path="url(#b)" fill="#d35c18"><path d="m1160.08 382.04 13.18 6.98 16.99 98.92-12.43 15.91-39.15-3.49-11.55-71.58z"/><path d="m1225.57 357.54-22.4 18.17s21.97 35.92 22.82 37.18 21.97 38.03 21.97 38.03l4.68 12.03 3.77 4.45 45.21-12.68-76.06-97.19z"/></g><path d="m1164.42 293.6h11.96c9.71 0 17.6 7.89 17.6 17.6v10.11c0 9.75-7.92 17.67-17.67 17.67h-10.55c-9.47 0-17.17-7.69-17.17-17.17v-12.39c0-8.74 7.09-15.83 15.83-15.83z" fill="#f7b570" transform="matrix(.99986827 -.01623085 .01623085 .99986827 -5 19.13)"/><path d="m1159.98 290.57h22.28c7.09 0 12.85 5.76 12.85 12.85v4.69c0 1.94-1.58 3.52-3.52 3.52h-40.94c-1.94 0-3.52-1.58-3.52-3.52v-4.69c0-7.09 5.76-12.85 12.85-12.85z" fill="#e5332a" transform="matrix(.99986827 -.01623085 .01623085 .99986827 -4.75 19.13)"/><path d="m1150.62 304.79h40.98c2.05 0 3.71 1.66 3.71 3.71v1.59c0 1.02-.82 1.84-1.84 1.84h-44.29c-1.02 0-1.84-.82-1.84-1.84v-2.02c0-1.81 1.47-3.28 3.28-3.28z" fill="#c32f22" transform="matrix(.99986827 -.01623085 .01623085 .99986827 -4.87 19.13)"/><circle cx="1177.24" cy="289.89" fill="#e5332a" r="9.27"/><path d="m1267.21 460.69h4.89c4.71 0 8.54 3.83 8.54 8.54v9.16c0 4.7-3.82 8.52-8.52 8.52h-4.91c-4.7 0-8.52-3.82-8.52-8.52v-9.18c0-4.7 3.82-8.52 8.52-8.52z" fill="#f7b570" transform="matrix(.97249202 -.2329362 .2329362 .97249202 -75.45 308.84)"/><path d="m1185.39 342.47 16.97 5.38c9.36 3.61 18.65 9.19 23.68 17.87l18.59 30.21 31.33 50.22c4.16 5.77-1.67 11.72-6.34 12.57l-11.09 2.02c-2.5.45-3.24-1.05-4.48-3.27l-33-59.25-10.56-17.75" fill="#e1793b"/><path d="m1265.09 682.18s7.4 7.39 18.47 11.3c5 1.77 9.04 5.68 10.63 10.74.02.06.04.12.06.18.7 2.31-1.06 4.63-3.48 4.63-12.69.02-51.54.02-54.95-1.99 0 0-1.12-11.43 0-13.64s1.71-7.5 1.71-7.5l27.55-3.72z" fill="#f8b133"/><path d="m1254.51 683.44s-12.36 10.81-9.6 18c2.42 6.31-9.59-.64-9.59-.64s-.21-7.55.54-8.37c.65-.71 1.67-6.53 1.67-6.53z" fill="#f29100"/><path d="m1247.88 688.54s16.48.85 18.17 2.22-.61 11.73-.61 11.73l28.74 1.73c-1.37-4.57-3.62-6.8-5.1-7.92-.63-.48-1.37-.93-5.53-2.82-2.77-1.26-5.09-2.27-6.73-2.97-1.47-.76-3.63-1.99-6.04-3.81-3.2-2.43-4.75-7.44-6.59-8.28-1.27-.59-7.17-.19-9.69.29-1.42.27-2.04 3.48-2.64 4.74" fill="#f29100"/><path d="m1235.32 700.79s57.99 3.21 58.87 3.42 0 4.81-3.42 4.82c-3.41 0-51.35.31-54.95-1.99z" fill="#ececec"/><path d="m1256.73 686.41-.95-5.39s6.78-2.01 8.66.18 4.18 4.52 4.18 4.52l-3.76 2.17z" fill="#f8b133"/><path d="m1288.98 681.45s17.43-2.3 19.47-1.19 1.63 12.4 1.63 12.4l30.45-3.74c-2.32-4.52-5.1-6.43-6.88-7.31-.76-.38-1.61-.71-6.34-1.89-3.15-.79-5.78-1.39-7.62-1.81-1.69-.51-4.19-1.38-7.06-2.83-3.82-1.92-6.42-6.87-8.5-7.41-1.44-.37-7.55 1.18-10.1 2.18-1.43.56-1.46 4.04-1.85 5.48" fill="#f29100"/><path d="m1297.73 675.37-.95-5.39s6.78-2.01 8.66.18 4.18 4.52 4.18 4.52l-3.76 2.17z" fill="#f8b133"/><path d="m1170.57 503.77h5.14c4.96 0 8.98 4.02 8.98 8.98v11.09c0 4.94-4.01 8.96-8.96 8.96h-5.17c-4.94 0-8.96-4.01-8.96-8.96v-11.12c0-4.94 4.01-8.96 8.96-8.96z" fill="#f7b570" transform="matrix(.97249202 -.2329362 .2329362 .97249202 -88.47 287.58)"/><path d="m1151.4 345.06-4.84 3.53c-5.02 4.41-7.9 10.76-7.9 17.44v71.51c0 5.01.77 9.99 2.27 14.77l14.08 44.73c1.51 4.8 6.44 7.65 11.35 6.57l6.9-1.52c3.08-.68 5.06-3.69 4.45-6.79l-7.2-36.56c-1.51-7.66-2.16-15.47-1.94-23.27l1.36-48.26" fill="#e1793b"/></svg>