<svg viewBox="0 0 1770.66 1113.13" xmlns="http://www.w3.org/2000/svg"><path d="m227.53 484.74h73.23v40.59h44.57l-64.07-89.34h214.7v48.75h-93.92l63.67 87.15h-238.18z" fill="#fff"/><path d="m183.02 515.98h73.23v40.59h44.57l-64.07-89.34h214.7v48.75h-93.92l63.67 87.15h-238.18z" fill="none" opacity=".44" stroke="#e6e6e6" stroke-miterlimit="10" stroke-width="2.44"/><path d="m751.45 435.99v135.9h-73.23v-46.56l-33.63 46.56h-187.24l97.9-135.9zm-73.23 89.35v-42.38h-74.82l-30.64 42.38z" fill="#fff"/><path d="m751.45 399.28v135.9h-73.23v-46.56l-33.63 46.56h-187.24l97.9-135.9zm-73.23 89.34v-42.38h-74.82l-30.64 42.38z" fill="none" opacity=".44" stroke="#e6e6e6" stroke-miterlimit="10" stroke-width="2.44"/><path d="m845.36 571.9h-73.03v-135.9h279.97l-61.49 87.15h53.13v48.75h-162.37l63.87-87.15h-100.09v87.15z" fill="#fff"/><path d="m845.36 620.49h-73.03v-135.9h279.97l-61.49 87.15h53.13v48.75h-162.37l63.87-87.15h-100.09v87.15z" fill="none" opacity=".44" stroke="#e6e6e6" stroke-miterlimit="10" stroke-width="2.44"/><path d="m1136.87 571.9h-77.2v-135.9h77.2z" fill="#fff"/><path d="m1253.27 485.54-101.68-.8v-48.75h131.13l22.88 32.04 113.22-49.35v65.66l-101.68 38.01 101.68.8v48.75h-131.13l-22.88-32.04-113.22 49.35v-65.66z" fill="#fff"/><path d="m1270.51 449.02-101.68-.8v-48.75h131.13l22.88 32.04 113.22-49.35v65.66l-101.68 38.01 101.68.8v48.75h-131.13l-22.88-32.04-113.22 49.35v-65.66z" fill="none" opacity=".44" stroke="#e6e6e6" stroke-miterlimit="10" stroke-width="2.44"/><g fill="#fff"><path d="m1450.91 533.14c15.93-.47 25.71 17.76 16.28 30.74-7.76 10.68-23.66 10.68-31.42 0-9.11-12.54-.29-30.29 15.14-30.74zm-1.28 2.13c-13.36 1.3-20.03 17.02-11.95 27.77 7.44 9.9 22.76 8.8 28.88-1.91 7.03-12.31-2.93-27.23-16.93-25.86z"/><path d="m1455.1 545.84 2.45 8.93c.32-.03.33-.32.41-.54.94-2.52 1.31-5.77 2.14-8.39h4.04v13.39h-2.34v-10.21l-2.74 10.08-2.78.11-2.56-10.2v10.21h-2.55v-13.39h3.93z"/><path d="m1449.47 545.84v2.13h-3.72l-.32.31v10.95h-2.77v-11.26h-3.82v-2.13z"/></g></svg>