<svg viewBox="0 0 867.97 421.65" xmlns="http://www.w3.org/2000/svg"><path d="m480.71 87.06c-.46-.69-.2-1.8-1.48-1.79.63 8.1-6.35 14.06-12.3 18.39-12.55 9.12-29.16 15.02-38.87 27.82-1.77 2.33-3.18 4.81-4.28 7.38-1.1-2.57-2.51-5.05-4.28-7.38-9.71-12.8-26.32-18.7-38.87-27.82-5.96-4.33-12.93-10.29-12.3-18.39-1.28 0-1.02 1.1-1.48 1.79-11.65 17.6-18.69 42.94-3.99 60.89 10.32 12.61 41.51 23.88 45.93 36.12.96 2.67 1.06 5.5 1.66 8.21 8.07-13.22 9.07-27.1-3.41-38.01-9.25-8.09-33.64-16.4-33.23-30.82.02-.73.37-1.2 1.17-.61 1.2.89 2.39 3.2 3.62 4.36 10.77 10.18 28.23 12.91 37.79 25.19 2.29 2.94 4.06 6.29 5.23 9.84.67-.19 1.41-.31 2.21-.31s1.48.11 2.12.28c1.17-3.54 2.94-6.88 5.22-9.81 9.56-12.28 27.02-15.02 37.79-25.19 1.24-1.17 2.42-3.48 3.62-4.36.8-.59 1.15-.12 1.17.61.4 14.42-23.99 22.74-33.23 30.82-12.48 10.92-11.48 24.8-3.41 38.01.6-2.71.7-5.54 1.66-8.21 4.42-12.24 35.61-23.51 45.93-36.12 14.69-17.95 7.65-43.29-3.99-60.89z"/><path d="m442.05 84.54-33.65 21.58c-1.83-3.02-2.89-6.56-2.89-10.34 0-11.04 8.96-19.99 20-19.99 6.86 0 12.94 3.47 16.53 8.75z"/><path d="m442.34 100.67c0 11.05-8.96 20-20 20-7.25 0-13.62-3.87-17.11-9.66l33.65-21.58c2.18 3.19 3.47 7.06 3.47 11.24z"/><g fill="#1d1d1b"><path d="m188.35 280.74v-8.37h10.47v4.96l4.74 4.85h25.23l4.85-4.96v-15.87l-4.85-4.74h-29.53l-10.69-10.8v-20.83l10.69-10.69h33.28l10.69 10.69v8.48h-10.36v-5.07l-4.85-4.85h-24.13l-4.85 4.85v14.1l4.85 4.85h29.53l10.69 10.69v22.48l-10.91 10.91h-34.16l-10.69-10.69z"/><path d="m272.97 214.3h10.58v34.05h37.46v-34.05h10.58v77.13h-10.58v-33.83h-37.46v33.83h-10.58z"/><path d="m363.21 214.3h10.58v77.13h-10.58z"/><path d="m405.41 214.3h9.92l38.24 59.72h.22v-59.72h10.14v77.13h-9.92l-38.24-59.72h-.22v59.72h-10.14z"/><path d="m495 214.3h10.58v34.05h15.87l19.5-34.05h11.68l-22.15 38.46 23.8 38.68h-11.9l-20.94-33.83h-15.87v33.83h-10.58v-77.13z"/><path d="m599.78 214.3h10.58l27.77 77.13h-10.91l-6.83-19.61h-30.52l-6.83 19.61h-10.91l27.66-77.13zm17.85 48.59-12.45-36.03h-.22l-12.23 36.03z"/><path d="m663.14 214.3h10.58v77.13h-10.58z"/></g></svg>