<svg viewBox="0 0 1770.66 1113.13" xmlns="http://www.w3.org/2000/svg"><g fill="#fff"><path d="m1012.48 298.22c-1.16-1.75-.51-4.53-3.73-4.52 1.59 20.45-16.02 35.5-31.06 46.44-31.69 23.03-73.62 37.92-98.12 70.23-4.46 5.88-8.04 12.14-10.81 18.63-2.77-6.49-6.35-12.74-10.81-18.63-24.51-32.31-66.43-47.2-98.12-70.23-15.04-10.93-32.65-25.99-31.06-46.44-3.22 0-2.57 2.78-3.73 4.52-29.4 44.42-47.18 108.4-10.08 153.71 26.05 31.83 104.78 60.28 115.94 91.18 2.43 6.73 2.68 13.88 4.19 20.72 20.37-33.37 22.9-68.41-8.61-95.97-23.34-20.42-84.91-41.41-83.89-77.81.05-1.85.95-3.03 2.95-1.55 3.03 2.24 6.03 8.07 9.15 11.02 27.18 25.69 71.27 32.59 95.4 63.6 5.78 7.43 10.26 15.88 13.2 24.83 1.7-.49 3.55-.78 5.59-.78s3.72.27 5.36.71c2.95-8.93 7.41-17.36 13.18-24.77 24.14-31.01 68.22-37.91 95.4-63.6 3.12-2.95 6.12-8.78 9.15-11.02 2.01-1.48 2.9-.3 2.95 1.55 1.02 36.4-60.55 57.4-83.89 77.81-31.51 27.56-28.98 62.6-8.61 95.97 1.51-6.84 1.76-13.99 4.19-20.72 11.16-30.91 89.89-59.35 115.94-91.18 37.09-45.32 19.32-109.29-10.08-153.71z" opacity=".9"/><path d="m917.43 291.86-84.95 54.48c-4.61-7.62-7.29-16.55-7.29-26.11 0-27.86 22.63-50.46 50.49-50.46 17.32 0 32.66 8.75 41.74 22.08z" opacity=".9"/><path d="m913.79 332.56c0 27.9-22.63 50.49-50.49 50.49-18.31 0-34.38-9.78-43.21-24.39l84.95-54.48c5.49 8.06 8.75 17.83 8.75 28.38z" opacity=".9"/><path d="m346.74 742.73v-17.56h21.95v10.4l9.93 10.16h52.9l10.17-10.4v-33.27l-10.17-9.93h-61.91l-22.41-22.64v-43.66l22.41-22.41h69.77l22.41 22.41v17.79h-21.72v-10.63l-10.16-10.17h-50.6l-10.17 10.17v29.57l10.17 10.17h61.91l22.41 22.41v47.13l-22.87 22.87h-71.62l-22.41-22.41z"/><path d="m524.16 603.43h22.18v71.39h78.55v-71.39h22.18v161.72h-22.18v-70.92h-78.55v70.92h-22.18z"/><path d="m713.37 603.43h22.18v161.72h-22.18z"/><path d="m801.85 603.43h20.79l80.17 125.21h.46v-125.21h21.25v161.72h-20.79l-80.17-125.21h-.46v125.21h-21.26v-161.72z"/><path d="m989.67 603.43h22.18v71.39h33.27l40.89-71.39h24.49l-46.44 80.63 49.9 81.09h-24.95l-43.89-70.92h-33.27v70.92h-22.18z"/><path d="m1209.37 603.43h22.18l58.22 161.72h-22.87l-14.32-41.12h-63.99l-14.32 41.12h-22.87l57.99-161.72zm37.43 101.88-26.1-75.54h-.46l-25.64 75.54h52.21z"/><path d="m1342.22 603.43h22.18v161.72h-22.18z"/></g></svg>