<svg viewBox="0 0 1770.66 1113.13" xmlns="http://www.w3.org/2000/svg"><g fill="#edc"><path d="m553.32 540.09-7.08-8.54-4.16-1.87-16.03-14.78-9.99-9.78-.21-13.12 10.2-14.57 10.62-12.28-.42-2.29 5.41-7.29 4.16-2.71c.42-.83-.42-1.87-.21-2.5l5-8.33 6.25.62 12.28 9.78-5.62 8.33-5.41 5.41-1.87 3.75-11.87 13.95-2.08 2.91-.42 1.46-6.25 8.33 3.96 4.79 3.96 5.62 3.33 2.08 19.36 18.11 5.62 4.16.42 16.24-7.49 12.28-11.24 13.74-8.33 11.24c-.83 1.46-1.46 3.12-2.08 4.37l.21-.83-2.29 6.66-5.62 6.87-17.07-10.62 3.12-7.7 3.96-3.54c2.08-2.91 3.54-5.21 5.41-8.12 1.25-2.08 2.29-3.96 3.54-6.04l5.83-2.71-.42-2.29 13.53-20.82z"/><path d="m659.91 591.3-2.71 7.08-11.45.21-7.08-.42.21-16.24-.21-19.78.21-19.99.62-1.04-.62-3.96-.21-21.65-3.33-5.62-2.92-3.12-2.91-4.58-6.04-7.29-8.53-11.87-5.41-7.49v11.24l-2.91 7.49.21.42 2.5 2.71-.42 47.46-1.04 7.49 1.87 7.91-.21 21.65.62 2.91-.42 13.32-12.28.42-8.95-1.67 1.46-16.65-.62-1.87v-3.54l1.25-29.56 1.67-6.04-1.87-4.16.83-43.3-.83-11.87-.83-21.65v-10.82l16.45-4.58 18.74 25.81 5.21 8.33 1.67.83 6.87 11.24v-17.9l2.08-6.45-2.08-2.91v-16.65l12.07-.21 8.53 1.46-.42 14.16-2.08 51.21-1.67 8.74 2.29 6.87 1.46 45.59v6.66l1.25 11.66z"/><path d="m725.06 444.12 4.16 11.45 10.62 26.02 1.04 5.62h2.08l5.62 12.49 7.08 15.41-.63 11.45-10.2 20.61-1.67 2.08-.21 3.33-4.79 9.99-11.24 26.65-2.5 6.66-.42 2.29-18.94-.21-.21-6.87-7.29-18.11.62-3.54h-2.29l-6.25-12.91-7.49-17.7-5-10.62-.42-13.11 1.66-1.04 11.24-27.27 3.75-2.71-1.04-2.29 11.24-28.1.83-1.25 1.25-6.25.42-1.46h7.7l1.87-.21 9.37-.42zm-8.12 129.69 6.66-21.86 2.5-2.5h-.21l-.21-3.75 10.2-24.98-1.67-5.21-2.5-7.08-8.12-21.03 1.87-2.5-3.75-2.29-4.79-12.7-1.25-3.96-11.45 30.19-2.91.83 1.46 3.33-6.87 17.9.21 2.5 2.71 6.87 1.87 6.04-2.08 2.5 4.16 2.91 4.16 8.53 9.16 23.94.83 2.29z"/><path d="m792.51 600.87-8.74-2.71-11.45-2.08 1.67-28.31-.83-9.78v-31.23l1.25-9.58-.83-22.28-.21-23.94 2.29-6.25-2.08-2.08-.62-3.12-.42-11.87 17.49-5 27.48 24.36 14.16 11.24.83 4.16-1.46 12.28-12.28 13.32-10.41 12.07 1.46 1.25 3.12 2.71 2.29 2.08 21.86 20.82.21 4.37-.21 9.58-8.12 8.33-8.54 6.04-6.04 7.49-7.29 5.83-14.57 12.28zm-.21-74.31v36.85l-1.87 1.67 2.08 2.08-.21 12.7 10.62-11.24 5.62-4.79 2.5-1.67 7.91-8.74-7.49-9.37-2.91-2.71-5-5.2-9.37-8.33-1.87-1.25zm-.83-12.91 1.67-1.25 10.2-11.03 3.12-.42.83-5.2 7.29-7.91h.21l-6.45-5.83-1.04-2.5-1.67-.21-14.16-12.49.21 18.32-.63 10.82z"/><path d="m897.22 553.62-2.91.42h-.21l-4.16 2.91-13.95 3.33-1.87.83-4.16 1.67-2.29 14.78-1.87 2.29 1.46 5.83-2.29 13.95-12.91-1.25-7.29-4.58 5.62-25.4 2.08-13.12 2.29-2.29-.21-4.16 4.16-25.61.63-3.96 1.25-4.37v-3.75l6.25-27.9 3.75-4.37-2.29-3.12 1.46-8.33 1.87-8.74 2.08-13.12 17.07-.83 3.54 1.67-.21 7.29.62 1.67.83 2.08 6.66 31.85-1.46 3.75 2.5 1.87 9.99 50.17v2.91l5.2 19.36 2.08 13.12-1.25 1.66 3.12 3.33 2.29 8.95-15.4 5h-2.71l-3.54-1.87-2.71-26.23-.83-5.83 1.67-2.08-1.87-1.25-1.67-6.87-.42-1.67zm-21.44-25.81.21-.21-2.5 13.53-.21 1.46 13.53-4.16 5.83-1.46-4.16-22.48-.83-10.83-.83-3.75-3.12-22.07-4.16 25.4-2.08 1.04 1.04 3.33-2.71 20.19z"/><path d="m955.51 443.91 7.91 2.71-2.08 51.63.42 9.99v6.25l.62-1.67 3.12-8.12 3.54-5.62 8.33-19.99 3.54-8.95 5.83-5.83-.83-5.2 6.45-15.2 12.7 5 6.45 5-6.04 11.03-12.7 21.03-.62 1.04.62.62-14.99 28.52 1.04 1.67 12.28 28.1 7.29 16.03 7.08 11.87-1.04 2.91 2.91.62 6.04 13.53-14.99 8.33-5.21-.21-6.04-15.41-11.03-24.77 1.04-2.71-7.08-11.45.21-.42-8.33-17.28v34.14l.83 9.99.21 10.2.21 2.29.83 3.96-.21 10.62-11.03.42-11.03-.21.21-21.65.62-.21-.21-.83 3.54-8.33-2.5-2.91.42-3.33v-1.25l1.25-44.97-1.88-11.24-1.04-26.23.42-16.65-2.29-14.78 15.2-2.08z"/><path d="m1071.68 464.52-5-1.67-.63.21-3.33.62-11.45-.42h-1.87v2.29l-.42 5.21v20.61l-1.04 6.25-2.29 3.75 2.08 1.67.42 8.12 7.7.42 8.12-.42 10.62-1.04 2.71 5.2-1.25 6.25-.42 8.54-10.2-.42-13.12-.42h-3.33l-.83 21.44 1.25 6.04-.62 1.87.21.42.42 20.19 1.87.42 1.66.42 16.65-.21 5.2-1.67 10.41.21-.42 10.41-.83 7.7-4.79 2.08-13.74-.21-11.87-1.25h-7.29l-1.66 1.04-15.61-.21-1.04-8.53 1.25-14.16-.21-2.29.21-9.58 2.5-5.41-1.87-2.5v-4.79l-.21-11.24.83-1.67-1.66-20.61.62-7.7v-15.41l.21-16.24-.21-10.62 2.29-3.54-2.29-2.71-1.04-14.78 9.79-1.25h11.87l2.91 1.67 8.12-1.67 20.61-.21.21 8.12-.42 11.66h-9.78z"/><path d="m1123.72 532.59.21 22.69.62 20.82.62 1.87.21 17.28-8.33 3.33-13.74-1.25 1.25-33.1 3.12-8.12-1.87-2.71v-8.12l-.83-24.36-.42-10.82 1.66-4.16-1.04-39.76-.83-17.9 16.45-6.66 33.1 28.73 1.25 5.2c.21.21 3.54-.83 3.75-.83l9.99 9.16-1.46 12.49-9.58 11.66-6.66 7.91-3.54 4.37-5.83 7.91c1.46 2.92 3.96 6.45 5.2 8.95v3.54c1.66 1.87 2.92 2.91 4.37 5l8.33 14.16v2.71l1.25.62 2.92 6.04v-.21l3.75 7.91 6.87 7.29-.21 6.04-16.86 9.37-5-8.12-7.29-16.65.21-3.54-2.5-1.25-7.7-14.57-1.87-4.79-8.33-16.86-1.25-1.25zm0-10.61 1.46-.83 10.41-12.91c2.92-3.54 7.91-9.99 10.62-13.74l2.29-2.92-4.16-5.2-1.46-1.04-19.15-18.94-.42 16.03v2.08l-1.67 3.96.83 3.75.42 1.25.42 2.29.83 18.53-.42 7.7z"/><path d="m1191.38 502.2-.62-41.63 1.67-3.75-1.88-1.04-1.04-10.41 9.78-.62 13.53.83-1.04 15.2-1.04 5.2-.62 27.27-.62 10.62.83 8.12.42 5.21-1.87 4.37 2.29 1.46v57.67l.42 3.12.42 3.96-.21 7.7-9.16 2.92-4.37-.21-9.58-.21 2.92-18.53 2.5-4.16-2.5-3.54v-46.42l.62-6.45.62-11.45-1.46-5.21z"/><path d="m1282.56 464.52-5-1.67-.62.21-3.33.62-11.45-.42h-1.88v2.29l-.42 5.21v20.61l-1.04 6.25-2.29 3.75 2.08 1.67.42 8.12 7.7.42 8.12-.42 10.62-1.04 2.71 5.2-1.25 6.25-.42 8.54-10.2-.42-13.11-.42h-3.33l-.83 21.44 1.25 6.04-.62 1.87.21.42.42 20.19 1.88.42 1.66.42 16.65-.21 5.2-1.67 10.41.21-.42 10.41-.83 7.7-4.79 2.08-13.74-.21-11.87-1.25h-7.29l-1.66 1.04-15.61-.21-1.04-8.53 1.25-14.16-.21-2.29.21-9.58 2.5-5.41-1.87-2.5v-4.79l-.21-11.24.83-1.67-1.67-20.61.62-7.7v-15.41l.21-16.24-.21-10.62 2.29-3.54-2.29-2.71-1.04-14.78 9.78-1.25h11.87l2.91 1.67 8.12-1.67 20.61-.21.21 8.12-.42 11.66h-9.78z"/><path d="m689.08 570.42-7.98-8.21 61.65-93.53 6.91 9.84z"/><path d="m430.21 527.31c0 .25.22.42.27.65.22 1.04-1.02 1.77-.69 3.11.67 2.74 6.49 6.17 3.62 9.19-.86.9-3 1.69-3.52 2.6-.59 1.04-.11 3.18-.07 4.38.09 3.03-.31 6.1 0 9.12.31 2.97 6 7.73 8.04 10.21 1.55 1.88 3.24 5.38 5.18 6.57 1.3.8 2.81.73 4.17 1.65s3.23 3.88 3.36 5.47c.5 5.72-8.18 7.54-12.18 8.97-1.99.71-3.99 1.76-6.06 2.19-3.52.72-7-.14-10.53.04-2.73.14-5.05 1.16-7.81.64-2.62-.5-5.1-1.25-7.82-1.59-1.8-.22-3.65-.08-5.41-.32-2.04-.27-7.42-2.58-8.99-3.92-3.06-2.6-.72-7.57 1.41-10.05 1.88-2.19 4.43-3.16 6.07-5.58 1.13-1.68 1.9-3.29 3.34-4.81 1.86-1.95 4.37-3.35 6.26-5.19 1.25-1.22 1.72-3.29 2.01-4.98.5-2.91.93-6.77.41-9.67-.23-1.28-1.15-1.55-1.93-2.44-1.74-1.97-2.43-4.9-1.35-7.36.59-1.35 2.01-2.5 2.35-3.86.41-1.64-.18-3.29-.13-4.94-.57.05-1.12.25-1.69.3-2.76.2-6.5 0-9.32-.1-7.01-.24-15.93-2.75-21.77-6.66-2.91-1.95-5.88-3.9-8.77-5.88-3.13-2.14-9.05-6.81-9.39-10.8-.42-4.91 5.69-8.63 10.05-8.3 2.53.19 3.12 2.48 5.03 3.61 3.12 1.85 9.88 1.19 13.5 1.05 6.31-.24 12.62-.78 18.93-.96 1.19-.03 2.3-.36 3.44.23.66.34.72.62.78 1.36.12 1.61-.13 3.52 0 5.24.06.78.18 1.69.78 2.23 1.45 1.29 5.06.78 6.93.73 11.74-.32 26.05-1.41 37.34-4.49 5.1-1.39 8.57-2.5 10.22-7.93.21-.7.34-1.84.58-2.43.17-.42.86-.54 1.27-.58 1.99-.18 7.4 1.52 9.24 2.5 4.85 2.59 4.31 8.23.61 11.62-2.63 2.41-6.7 4.84-9.77 6.73-1.35.83-2.97 1.54-4.24 2.46-.87.64-1.52 1.54-2.4 2.16-1.12.79-1.94 1.32-3.05 2.19-6.2 4.85-15.64 3.51-23.06 4.69-1.74.28-3.48.68-5.22.94zm-59.2-15.05c1.1 1.12 2.68 2.03 4.07 2.77 5.82 3.06 14.92 2.86 21.5 3.54 2.56.27 5.11.75 7.67.97 6.39.54 12.66-.23 19.02-.68 5.63-.39 10.76-.6 16.4-.39 3.94.15 8.11.53 12.03.1 3.08-.34 7.77-3.19 10.43-4.91 1.77-1.14 3.42-2.63 5.35-3.48 3.01-1.33 7.59-3.34 8.56-6.87.13-.46.42-1.57-.07-1.82-.54 0-1.71 2.84-2.05 3.39-1.32 2.19-4.94 4.3-7.25 5.36-4.69 2.14-10.8 1.85-15.87 3.06-1.03.25-2.37 1.17-3.08 1.29-.96.16-1.93-.56-2.92-.66-1.63-.17-4.03.59-5.73.85-9.81 1.49-20.14 2.81-30.07 2.25-1.62-.09-3.23-.39-4.67-1.15-1.54-.82-2.88-2.33-4.65-2.63-2.31-.38-4.83 1-7.17 1.15-4.33.29-7.23-2.36-11.09-3.66-3.34-1.13-3.87.73-6.6 1.4-1.35.33-2.45.14-3.8.13zm61.04 10.1c-.36-.07-.75-.17-1.11-.2-3.99-.27-8.24.69-12.23.97-6.37.44-13.16.05-19.5-.68-2.88-.33-5.83-1.09-8.74-1.26-1.14-.07-1.94.29-2.91.3-.57 0-.88-.25-1.36-.3-.43-.04-.79.09-1.21.1-.25.19.7.4.79.42 2.22.55 4.56.5 6.82.75 4.81.52 9.94 1.37 14.75 1.56 4.44.17 8.87-.25 13.3-.39 2.98-.09 7.03.17 9.85-.54.5-.13 1.19-.35 1.55-.73zm-3 5.04-2.51.2c-.25 1.05.15 2.25-.73 3.1-.82.78-2.2.29-3.11.77s-.61 1.3-.97 2.04c-.58 1.22-2.55.97-3.44 1.89.51.4 1.36.37 1.99.34 1.77-.09 3.5-.66 5.28-.23 1.92.46 1.68 1.85-.03 2.47-1 .36-2.14.52-3.18.89-1.11.4-2.61 1.34-3.71 1.44-.78.07-3.64-.24-4.04.36-.16.3.02.52.26.69 1.86 1.34 6.39-.44 8.79.14 1.47.35 1.54 1.61.12 2.11-2.12.75-6.16-.41-6.46 2.86-.16 1.7.15 3.44.2 5.14s.08 5.82-.57 7.3c-.82 1.88-2.04-.8-2.53-.45-.59 1.19-1.29 2.52-2.15 3.53-.46.55-3.48 3.33-3.39 3.79.05.28.71-.03.86-.1.86-.42 1.36-1.3 2.05-1.93.86-.81 2.57-2.34 3.67-2.64 2.52-.68 1.02 2.23 1.09 3.21.08 1.08 1.85 1.89.14 3.07l.11.19c1.55-.13 3.1-.25 4.63-.5 2.54-.41 6.13-1.74 8.61-1.11 1.1.28 1.41 1.37.67 2.24-1.76 2.04-8.2 2.01-10.89 2.8-1.82.53-4.93 2.5-4.22 4.75.25.79.7.74 1.14 1.19.17.18.91 1.19.95 1.38.13.62-.21 1.06-.66 1.43-2.21 1.88-5.65 1.01-8.3 1.21-.89.07-.79.26-.07.56 2.15.91 5.72.71 8.03.7 4.12-.02 9.11.38 13.08-.61 2.47-.61 4.65-1.91 7.31-2.11.84-.06 2.33-.07 1.78 1.2s-3.68 2.18-4.92 2.46c-5.7 1.29-12.57 2.1-18.41 2.36-4.58.2-9.74-.47-14.23-1.39-2.19-.45-4.36-1.2-6.58-1.33.37.53 1.19.74 1.79.97 2.97 1.12 5.19 1.09 8.25 1.36 8.19.71 18.71 1.47 26.76-.03 4.06-.75 7.58-2.76 11.2-4.52.47-.23 3.19-1.21 3.29-1.37.09-.15.04-.23-.05-.35-.58-.84-4.11-1.62-5.3-2.37-2.1-1.33-2.54-4.42-3.37-6.63s-1.5-2.99-3.13-4.73c-2.27-2.42-5.79-5.15-6.16-8.69-.31-3.02.1-6.09 0-9.13-.09-2.75-.97-4.83 1.62-6.72.63-.46 2.71-1.43 2.76-2.2.02-.26-.09-.46-.2-.68-1.19-2.41-4.73-4.75-4.25-7.84.14-.86.89-1.69 1.14-2.5z"/><path d="m414.1 454.02c-.68.25-1.4.12-2.07.21-10 1.24-22.76 9.27-28.52 17.49-5.12 7.31-6.86 16.52-8.55 25.13-.04.18-.17.78-.25.89s-.22.06-.33.04c-.74-.18-3.09-3.03-3.18-3.81-.27-2.26 1.28-7.62 2.04-9.91 3.68-11.17 11.51-23.21 22.03-28.92 4.07-2.21 10.57-4.93 15.11-5.57 9.22-1.28 21.42-.5 29.99 3.27 12.72 5.6 22.87 17.21 24.48 31.33.42 3.69.95 10.36-.43 13.72-1.79 4.37-6.75 5.34-10.91 6.17-6.59 1.31-13.74 2.09-20.44 2.85-5.32.61-11.58 1.51-16.88 1.18-1.05-.06-2.93-.21-3.14-1.51-.13-.8-.02-2.41 0-3.3.18-13.29.25-26.6.59-39.88.08-3.13-.06-6.28.48-9.37z"/><path d="m407.77 491.42c.78-.02 2.3-.19 2.93.22.99.66.98 2.91.88 3.97-.12 1.23-.68 1.34-1.79 1.41-1.45.1-2.93-.09-4.37-.11-4.12-.03-8.22.02-12.33.19-2.02.08-4.09.4-6.11.4-.25 0-1.31-.11-1.48-.18-.68-.29-.68-2.78-.6-3.46.05-.45.24-.97.74-1.11 7.37-.35 14.75-1.14 22.13-1.35z"/><path d="m408.84 484.24c2.02-.1 2.5 0 2.64 2.15.07 1.01.18 2.82-.97 3.21-.69.23-2.52.28-3.35.34-5.1.35-10.32.48-15.43.58-1.47.03-2.98.2-4.46.11-.91-.06-2.15-.12-2.26-1.25-.04-.38.21-2.18.35-2.51.38-.91 1.91-.93 2.79-1 6.81-.56 13.9-1.29 20.7-1.62z"/><path d="m410.87 459.87c.32-.04 1.36-.12 1.53.17.08 1.82-.3 3.66-.44 5.49-.17 2.19-.15 4.42-.39 6.6-.07.61-.48.58-1.02.63-1.37.11-2.8-.15-4.17-.2-1.84-.06-3.81.02-5.64-.09-.5-.03-1.58-.05-1.69-.64-.28-1.47 2.12-4.72 3.1-5.82 1.61-1.82 6.35-5.84 8.71-6.14z"/></g><ellipse cx="420.05" cy="520.34" fill="none" rx="76.72" ry="107.41" stroke="#edc" stroke-miterlimit="10" stroke-width="2.36"/><ellipse cx="420.21" cy="520.43" fill="none" rx="71.05" ry="101.74" stroke="#edc" stroke-miterlimit="10" stroke-width="2.36"/><text fill="#edc" font-family="'MinionConceptItalic_598.000wght_1ital', 'Minion Variable Concept'" font-size="63.73" transform="translate(695.92 649.3)"><tspan letter-spacing=".01em" x="0" y="0">B</tspan><tspan letter-spacing="0em" x="39.13" y="0">o</tspan><tspan x="70.61" y="0">ula</tspan><tspan letter-spacing="-.02em" x="155.74" y="0">n</tspan><tspan x="189.39" y="0">g</tspan><tspan letter-spacing="0em" x="218.06" y="0">e</tspan><tspan letter-spacing=".03em" x="245.66" y="0">r</tspan><tspan x="272.55" y="0">ie d</tspan><tspan letter-spacing="0em" x="366.29" y="0">e</tspan><tspan x="393.3" y="0">s</tspan><tspan letter-spacing="-.01em" x="430.14" y="0">N</tspan><tspan letter-spacing="0em" x="474.62" y="0">e</tspan><tspan letter-spacing="0em" x="502.21" y="0">i</tspan><tspan x="519.8" y="0">g</tspan><tspan letter-spacing="0em" x="548.47" y="0">e</tspan><tspan x="575.49" y="0">s</tspan></text></svg>