<svg viewBox="0 0 1770.66 1113.13" xmlns="http://www.w3.org/2000/svg"><g fill="#1d1d1b"><path d="m534.18 543.96-8.46-10.2-4.98-2.24-19.16-17.67-11.94-11.69-.25-15.68 12.19-17.42 12.69-14.68-.5-2.74 6.47-8.71 4.98-3.23c.5-1-.5-2.24-.25-2.99l5.97-9.95 7.46.75 14.68 11.7-6.72 9.95-6.47 6.47-2.24 4.48-14.18 16.67-2.49 3.48-.5 1.74-7.46 9.95 4.73 5.72 4.73 6.72 3.98 2.49 23.14 21.65 6.72 4.98.5 19.41-8.96 14.68-13.44 16.42-9.95 13.44c-.99 1.74-1.74 3.73-2.49 5.23l.25-.99-2.74 7.96-6.72 8.21-20.41-12.69 3.73-9.21 4.73-4.23c2.49-3.48 4.23-6.22 6.47-9.71 1.49-2.49 2.74-4.73 4.23-7.22l6.97-3.24-.5-2.74 16.17-24.88z"/><path d="m661.58 605.17-3.24 8.46-13.69.25-8.46-.5.25-19.41-.25-23.64.25-23.89.75-1.24-.75-4.73-.25-25.88-3.98-6.72-3.48-3.73-3.48-5.48-7.22-8.71-10.2-14.18-6.47-8.96v13.44l-3.48 8.96.25.5 2.99 3.24-.5 56.73-1.24 8.96 2.24 9.46-.25 25.88.75 3.48-.5 15.93-14.68.5-10.7-1.99 1.74-19.91-.75-2.24v-4.23l1.49-35.33 1.99-7.22-2.24-4.98.99-51.76-.99-14.18-1-25.88v-12.94l19.66-5.47 22.39 30.86 6.22 9.95 1.99 1 8.21 13.44v-21.4l2.49-7.71-2.49-3.48v-19.91l14.43-.25 10.2 1.74-.5 16.92-2.49 61.21-1.99 10.45 2.74 8.21 1.74 54.5v7.96l1.49 13.93z"/><path d="m739.46 429.24 4.98 13.69 12.69 31.1 1.24 6.72h2.49l6.72 14.93 8.46 18.41-.75 13.69-12.19 24.64-1.99 2.49-.25 3.98-5.72 11.94-13.44 31.85-2.99 7.96-.5 2.74-22.65-.25-.25-8.21-8.71-21.65.75-4.23h-2.74l-7.46-15.43-8.96-21.15-5.97-12.69-.5-15.68 1.99-1.24 13.44-32.6 4.48-3.24-1.24-2.74 13.44-33.59.99-1.49 1.49-7.46.5-1.74h9.21l2.24-.25zm-9.7 155.03 7.96-26.13 2.99-2.99h-.25l-.25-4.48 12.19-29.86-1.99-6.22-2.99-8.46-9.7-25.13 2.24-2.99-4.48-2.74-5.72-15.18-1.49-4.73-13.69 36.08-3.48.99 1.74 3.98-8.21 21.4.25 2.99 3.24 8.21 2.24 7.22-2.49 2.99 4.98 3.48 4.98 10.2 10.95 28.62 1 2.74z"/><path d="m820.08 616.62-10.45-3.24-13.69-2.49 1.99-33.84-1-11.7v-37.33l1.49-11.45-.99-26.63-.25-28.62 2.74-7.46-2.49-2.49-.75-3.73-.5-14.18 20.9-5.97 32.85 29.11 16.92 13.44.99 4.98-1.74 14.68-14.68 15.93-12.44 14.43 1.74 1.49 3.73 3.24 2.74 2.49 26.13 24.88.25 5.23-.25 11.45-9.7 9.95-10.2 7.22-7.22 8.96-8.71 6.97-17.42 14.68zm-.25-88.84v44.05l-2.24 1.99 2.49 2.49-.25 15.18 12.69-13.44 6.72-5.72 2.99-1.99 9.46-10.45-8.96-11.2-3.48-3.24-5.97-6.22-11.2-9.95-2.24-1.49zm-.99-15.43 1.99-1.49 12.19-13.19 3.73-.5 1-6.22 8.71-9.46h.25l-7.71-6.97-1.24-2.99-1.99-.25-16.92-14.93.25 21.9-.75 12.94.5 21.15z"/><path d="m945.25 560.13-3.48.5h-.25l-4.98 3.48-16.67 3.98-2.24 1-4.98 1.99-2.74 17.67-2.24 2.74 1.74 6.97-2.74 16.67-15.43-1.49-8.71-5.47 6.72-30.36 2.49-15.68 2.74-2.74-.25-4.98 4.98-30.61.75-4.73 1.49-5.23v-4.48l7.46-33.35 4.48-5.23-2.74-3.73 1.74-9.95 2.24-10.45 2.49-15.68 20.4-.99 4.23 1.99-.25 8.71.75 1.99 1 2.49 7.96 38.07-1.74 4.48 2.99 2.24 11.94 59.97v3.48l6.22 23.14 2.49 15.68-1.49 1.99 3.73 3.98 2.74 10.7-18.41 5.97h-3.24l-4.23-2.24-3.23-31.35-1-6.97 1.99-2.49-2.24-1.49-1.99-8.21-.5-1.99zm-25.63-30.86.25-.25-2.99 16.18-.25 1.74 16.17-4.98 6.97-1.74-4.98-26.87-.99-12.94-1-4.48-3.73-26.38-4.98 30.36-2.49 1.24 1.24 3.98-3.24 24.14z"/><path d="m1014.92 428.99 9.46 3.23-2.49 61.71.5 11.94v7.47l.75-1.99 3.73-9.71 4.23-6.72 9.95-23.89 4.23-10.7 6.97-6.97-1-6.22 7.72-18.16 15.18 5.97 7.71 5.97-7.22 13.19-15.18 25.13-.75 1.24.75.75-17.92 34.09 1.24 1.99 14.68 33.59 8.71 19.16 8.46 14.18-1.24 3.48 3.48.75 7.22 16.17-17.92 9.95-6.22-.25-7.22-18.41-13.19-29.61 1.24-3.23-8.46-13.69.25-.5-9.95-20.65v40.81l1 11.94.25 12.19.25 2.74 1 4.73-.25 12.69-13.19.5-13.19-.25.25-25.88.75-.25-.25-.99 4.23-9.95-2.99-3.48.5-3.98v-1.49l1.49-53.75-2.24-13.44-1.24-31.35.5-19.91-2.74-17.67 18.16-2.49z"/><path d="m1153.77 453.63-5.97-1.99-.75.25-3.98.75-13.69-.5h-2.24v2.74l-.5 6.22v24.63l-1.24 7.46-2.74 4.48 2.49 1.99.5 9.71 9.21.5 9.71-.5 12.69-1.24 3.24 6.22-1.49 7.46-.5 10.2-12.19-.5-15.68-.5h-3.98l-.99 25.63 1.49 7.22-.75 2.24.25.5.5 24.14 2.24.5 1.99.5 19.91-.25 6.22-1.99 12.44.25-.5 12.44-.99 9.21-5.72 2.49-16.42-.25-14.19-1.49h-8.71l-1.99 1.24-18.66-.25-1.24-10.2 1.49-16.92-.25-2.74.25-11.45 2.99-6.47-2.24-2.99v-5.72l-.25-13.44 1-1.99-1.99-24.63.75-9.21v-18.41l.25-19.41-.25-12.69 2.74-4.23-2.74-3.24-1.25-17.67 11.7-1.49h14.18l3.48 1.99 9.71-1.99 24.63-.25.25 9.71-.5 13.93h-11.69z"/><path d="m1215.98 535 .25 27.12.75 24.88.75 2.24.25 20.65-9.95 3.98-16.42-1.49 1.49-39.57 3.73-9.7-2.24-3.24v-9.71l-1-29.11-.5-12.94 1.99-4.98-1.24-47.53-1-21.4 19.66-7.96 39.57 34.34 1.49 6.22c.25.25 4.23-.99 4.48-.99l11.94 10.95-1.74 14.93-11.45 13.93-7.96 9.46-4.23 5.23-6.97 9.46c1.74 3.48 4.73 7.71 6.22 10.7v4.23c1.99 2.24 3.48 3.48 5.22 5.97l9.95 16.92v3.24l1.49.75 3.48 7.22v-.25l4.48 9.46 8.21 8.71-.25 7.22-20.16 11.2-5.97-9.71-8.71-19.91.25-4.23-2.99-1.49-9.21-17.42-2.24-5.72-9.95-20.16-1.49-1.49zm0-12.69 1.74-.99 12.44-15.43c3.48-4.23 9.46-11.94 12.69-16.42l2.74-3.48-4.98-6.22-1.74-1.24-22.89-22.64-.5 19.16v2.49l-1.99 4.73 1 4.48.5 1.49.5 2.74.99 22.15-.5 9.21z"/><path d="m1296.85 498.67-.75-49.77 1.99-4.48-2.24-1.24-1.24-12.44 11.69-.75 16.18.99-1.24 18.17-1.25 6.22-.75 32.6-.75 12.69 1 9.7.5 6.22-2.24 5.22 2.74 1.74v68.93l.5 3.73.5 4.73-.25 9.21-10.95 3.48-5.22-.25-11.45-.25 3.48-22.15 2.99-4.98-2.99-4.23v-55.49l.75-7.71.75-13.69-1.74-6.22z"/><path d="m1405.84 453.63-5.97-1.99-.75.25-3.98.75-13.68-.5h-2.24v2.74l-.5 6.22v24.63l-1.24 7.46-2.74 4.48 2.49 1.99.5 9.71 9.21.5 9.71-.5 12.69-1.24 3.24 6.22-1.49 7.46-.5 10.2-12.19-.5-15.68-.5h-3.98l-1 25.63 1.49 7.22-.75 2.24.25.5.5 24.14 2.24.5 1.99.5 19.91-.25 6.22-1.99 12.44.25-.5 12.44-.99 9.21-5.72 2.49-16.42-.25-14.18-1.49h-8.71l-1.99 1.24-18.66-.25-1.24-10.2 1.49-16.92-.25-2.74.25-11.45 2.99-6.47-2.24-2.99v-5.72l-.25-13.44 1-1.99-1.99-24.63.75-9.21v-18.41l.25-19.41-.25-12.69 2.74-4.23-2.74-3.24-1.24-17.67 11.69-1.49h14.19l3.48 1.99 9.71-1.99 24.63-.25.25 9.71-.5 13.93h-11.69z"/><path d="m696.45 580.21-9.54-9.81 73.69-111.8 8.26 11.76z"/><path d="m387.02 528.68c0 .3.27.51.32.78.26 1.24-1.22 2.12-.82 3.72.8 3.28 7.76 7.38 4.33 10.99-1.03 1.08-3.59 2.02-4.2 3.1-.7 1.24-.13 3.8-.09 5.24.11 3.63-.37 7.29 0 10.9.37 3.55 7.17 9.24 9.61 12.2 1.86 2.25 3.88 6.43 6.19 7.85 1.55.95 3.36.87 4.99 1.97 1.58 1.07 3.86 4.63 4.02 6.54.6 6.84-9.77 9.01-14.56 10.73-2.38.85-4.77 2.11-7.25 2.61-4.21.86-8.37-.17-12.59.05-3.27.17-6.04 1.39-9.34.76s-6.09-1.5-9.35-1.9c-2.15-.27-4.36-.1-6.47-.38-2.44-.32-8.87-3.09-10.75-4.68-3.66-3.11-.86-9.05 1.68-12.01 2.25-2.62 5.3-3.77 7.25-6.67 1.35-2 2.27-3.94 4-5.75 2.22-2.33 5.22-4 7.49-6.2 1.49-1.46 2.06-3.93 2.4-5.95.59-3.48 1.11-8.09.49-11.56-.28-1.53-1.37-1.86-2.3-2.92-2.08-2.36-2.91-5.85-1.61-8.8.71-1.61 2.4-2.99 2.81-4.62.49-1.96-.22-3.93-.16-5.9-.68.06-1.34.3-2.03.35-3.3.24-7.76 0-11.15-.12-8.38-.29-19.04-3.28-26.03-7.96-3.48-2.33-7.03-4.66-10.49-7.03-3.74-2.56-10.81-8.14-11.22-12.91-.5-5.87 6.81-10.32 12.01-9.92 3.03.23 3.73 2.96 6.01 4.31 3.73 2.21 11.81 1.42 16.14 1.25 7.55-.29 15.08-.94 22.63-1.15 1.42-.04 2.75-.43 4.12.28.79.41.86.74.93 1.62.14 1.92-.16 4.2 0 6.27.07.93.21 2.01.94 2.66 1.73 1.54 6.05.94 8.28.87 14.03-.39 31.13-1.68 44.63-5.37 6.1-1.66 10.24-2.99 12.21-9.48.26-.84.41-2.2.69-2.9.2-.51 1.03-.65 1.51-.69 2.38-.21 8.84 1.82 11.04 2.99 5.79 3.1 5.16 9.84.73 13.89-3.14 2.88-8.01 5.78-11.68 8.04-1.62.99-3.55 1.84-5.06 2.94-1.04.76-1.82 1.84-2.87 2.58-1.33.94-2.32 1.58-3.65 2.62-7.42 5.8-18.7 4.19-27.57 5.61-2.09.33-4.15.81-6.24 1.13zm-70.76-17.99c1.32 1.33 3.2 2.43 4.87 3.31 6.96 3.65 17.84 3.42 25.7 4.23 3.06.32 6.1.9 9.17 1.16 7.64.65 15.13-.28 22.73-.81 6.73-.47 12.86-.72 19.61-.46 4.71.18 9.7.63 14.38.12 3.69-.4 9.29-3.82 12.46-5.87 2.11-1.36 4.09-3.14 6.39-4.16 3.6-1.59 9.07-3.99 10.24-8.21.15-.55.5-1.87-.09-2.18-.64 0-2.05 3.4-2.45 4.06-1.57 2.61-5.9 5.14-8.67 6.41-5.6 2.56-12.91 2.21-18.97 3.65-1.24.3-2.83 1.4-3.68 1.54-1.15.19-2.31-.67-3.49-.79-1.95-.21-4.82.71-6.85 1.01-11.73 1.78-24.07 3.35-35.95 2.69-1.94-.11-3.86-.47-5.58-1.38-1.84-.98-3.45-2.79-5.56-3.14-2.76-.46-5.77 1.19-8.57 1.38-5.18.34-8.64-2.82-13.25-4.38-4-1.35-4.62.87-7.89 1.68-1.61.4-2.93.17-4.55.15zm72.96 12.07c-.43-.08-.89-.21-1.33-.24-4.77-.32-9.84.83-14.62 1.16-7.61.53-15.73.07-23.31-.81-3.45-.4-6.97-1.3-10.44-1.51-1.36-.08-2.32.34-3.48.36-.68 0-1.05-.3-1.63-.36-.52-.05-.95.11-1.45.12-.3.23.84.47.95.5 2.65.66 5.45.6 8.16.89 5.75.62 11.88 1.64 17.63 1.86 5.3.21 10.6-.3 15.9-.46 3.56-.11 8.41.2 11.77-.64.6-.15 1.42-.42 1.85-.87zm-3.59 6.03-3 .24c-.3 1.25.18 2.69-.88 3.7-.98.94-2.63.35-3.72.92-1.07.56-.73 1.55-1.16 2.44-.69 1.45-3.05 1.16-4.12 2.26.61.47 1.62.44 2.37.41 2.11-.1 4.18-.79 6.31-.27 2.29.55 2.01 2.21-.04 2.95-1.2.43-2.55.62-3.8 1.07-1.32.48-3.13 1.6-4.43 1.72-.93.08-4.35-.29-4.83.42-.2.36.02.62.32.83 2.22 1.6 7.64-.53 10.51.16 1.76.42 1.84 1.93.15 2.53-2.53.9-7.36-.49-7.72 3.42-.19 2.04.18 4.11.23 6.14s.1 6.96-.68 8.73c-.99 2.25-2.44-.96-3.03-.54-.71 1.42-1.55 3.01-2.56 4.22-.55.66-4.16 3.98-4.06 4.53.06.33.85-.04 1.03-.12 1.03-.51 1.63-1.55 2.45-2.31 1.03-.96 3.07-2.8 4.39-3.16 3.02-.81 1.22 2.66 1.3 3.84.09 1.29 2.21 2.26.17 3.67l.13.23c1.85-.16 3.7-.3 5.54-.59 3.03-.49 7.33-2.08 10.29-1.32 1.31.34 1.69 1.64.8 2.67-2.1 2.44-9.81 2.41-13.01 3.34-2.17.63-5.89 2.98-5.05 5.68.29.94.83.88 1.36 1.43.21.21 1.09 1.42 1.13 1.65.15.74-.25 1.26-.78 1.71-2.64 2.25-6.75 1.2-9.92 1.44-1.06.08-.94.31-.08.67 2.58 1.08 6.83.85 9.6.84 4.93-.02 10.89.46 15.63-.73 2.95-.73 5.56-2.28 8.74-2.52 1.01-.08 2.79-.09 2.13 1.43s-4.4 2.61-5.88 2.94c-6.81 1.54-15.03 2.52-22.01 2.82-5.48.24-11.65-.56-17.01-1.66-2.62-.54-5.21-1.44-7.87-1.59.44.63 1.43.89 2.14 1.16 3.55 1.34 6.2 1.31 9.86 1.62 9.79.85 22.36 1.75 31.98-.03 4.85-.9 9.06-3.3 13.39-5.41.56-.27 3.81-1.44 3.94-1.64.11-.18.05-.27-.06-.42-.7-1.01-4.91-1.93-6.33-2.83-2.51-1.59-3.03-5.29-4.03-7.92s-1.8-3.58-3.74-5.66c-2.71-2.9-6.93-6.16-7.37-10.38-.38-3.61.12-7.28 0-10.91-.11-3.29-1.16-5.77 1.93-8.04.75-.55 3.24-1.71 3.29-2.63.02-.31-.11-.55-.24-.82-1.42-2.88-5.66-5.68-5.08-9.37.16-1.03 1.07-2.02 1.36-2.99z"/><path d="m367.76 441.08c-.81.3-1.68.15-2.48.25-11.95 1.48-27.21 11.08-34.09 20.9-6.12 8.74-8.2 19.75-10.22 30.04-.04.22-.21.93-.3 1.07s-.26.07-.39.04c-.89-.22-3.69-3.62-3.8-4.55-.33-2.7 1.53-9.1 2.43-11.84 4.4-13.35 13.76-27.74 26.33-34.57 4.86-2.64 12.63-5.9 18.06-6.65 11.02-1.54 25.61-.6 35.85 3.91 15.21 6.7 27.34 20.57 29.26 37.45.5 4.41 1.14 12.38-.51 16.4-2.14 5.23-8.06 6.38-13.05 7.37-7.88 1.57-16.42 2.49-24.44 3.41-6.35.72-13.84 1.8-20.17 1.41-1.25-.08-3.5-.26-3.76-1.81-.16-.95-.02-2.88-.01-3.94.21-15.88.3-31.79.71-47.67.1-3.74-.07-7.5.57-11.2z"/><path d="m360.2 485.78c.93-.03 2.75-.23 3.5.26 1.19.79 1.18 3.47 1.05 4.75-.15 1.47-.82 1.6-2.14 1.69-1.73.12-3.51-.11-5.22-.13-4.92-.04-9.83.03-14.74.23-2.41.1-4.89.48-7.3.48-.3 0-1.56-.13-1.77-.21-.82-.35-.81-3.32-.71-4.13.06-.54.29-1.16.88-1.32 8.81-.42 17.63-1.36 26.46-1.62z"/><path d="m361.47 477.2c2.41-.12 2.99 0 3.16 2.57.08 1.21.21 3.38-1.16 3.84-.83.28-3.01.33-4.01.4-6.09.42-12.34.57-18.45.69-1.76.03-3.56.24-5.34.13-1.09-.07-2.57-.14-2.7-1.49-.04-.45.25-2.6.42-3 .46-1.08 2.28-1.11 3.33-1.19 8.14-.67 16.61-1.54 24.74-1.94z"/><path d="m363.91 448.07c.39-.05 1.63-.14 1.83.2.1 2.18-.36 4.38-.52 6.56-.2 2.62-.18 5.29-.46 7.89-.08.73-.57.7-1.22.75-1.63.13-3.35-.18-4.98-.24-2.2-.07-4.56.03-6.74-.11-.6-.04-1.89-.06-2.02-.76-.33-1.76 2.54-5.64 3.71-6.96 1.92-2.17 7.6-6.98 10.41-7.33z"/></g><ellipse cx="374.87" cy="520.36" fill="none" rx="91.71" ry="128.38" stroke="#1d1d1b" stroke-miterlimit="10" stroke-width="2.82"/><ellipse cx="375.07" cy="520.46" fill="none" rx="84.92" ry="121.61" stroke="#1d1d1b" stroke-miterlimit="10" stroke-width="2.82"/><text fill="#1d1d1b" font-family="'MinionConceptItalic_598.000wght_1ital', 'Minion Variable Concept'" font-size="76.17" transform="translate(704.62 674.5)"><tspan letter-spacing=".01em" x="0" y="0">B</tspan><tspan letter-spacing="0em" x="46.77" y="0">o</tspan><tspan x="84.4" y="0">ula</tspan><tspan letter-spacing="-.01em" x="186.16" y="0">n</tspan><tspan x="226.38" y="0">g</tspan><tspan letter-spacing="0em" x="260.66" y="0">e</tspan><tspan letter-spacing=".03em" x="293.64" y="0">r</tspan><tspan x="325.78" y="0">ie d</tspan><tspan letter-spacing="0em" x="437.82" y="0">e</tspan><tspan x="470.12" y="0">s</tspan><tspan letter-spacing="-.02em" x="514.15" y="0">N</tspan><tspan letter-spacing="0em" x="567.31" y="0">e</tspan><tspan letter-spacing="0em" x="600.29" y="0">i</tspan><tspan x="621.32" y="0">g</tspan><tspan letter-spacing="0em" x="655.6" y="0">e</tspan><tspan x="687.89" y="0">s</tspan></text></svg>