<svg viewBox="0 0 892.2 270.5" xmlns="http://www.w3.org/2000/svg"><g fill="#fff"><path d="m453.19 40.44c-5.97 6.31-8.37 10.93-6.58 17.35.38 1.36.94 2.79 1.7 4.34l-1.25 9.24c.1-1.76.12-3.3.04-4.67.11-1.4-.16-2.84-.49-4.21-.01-.03-.02-.06-.02-.09-.09-.46-.19-.9-.29-1.32-.84-3.43-2.05-5.72-2.3-9.38-.3-4.29-4.52-8.65-7.07-11.11-2.22-2.16-3.71-5-4.02-8.08-.32-3.22.69-7.09 4.35-7.91 6.07-1.37 7.15 3.09 7.16 6.39.65-3.79 2.69-9.27 9.09-7.17 4.42 1.45 6.92 8.99-.31 16.63z"/><path d="m461.92 63.86c-7.78 9.62-11.48 7.64-14.44 14.64-.15 1.78-.69 3-1.21 4.19-.54 1.23-1.06 2.4-1.16 4.23-.2 3.87.44 6.51.9 7.26l-1.18.71c-.67-1.11-1.3-4.1-1.1-8.05.11-2.08.71-3.42 1.28-4.71.49-1.09.95-2.14 1.08-3.64-1.05-2.12-3.32-4.48-7.73-6.83-13.48-7.18-18.9-14.77-12.55-29.81 0 0 14.08 3.54 20.65 21.87 0-.02 0-.03 0-.06.37 1.3.6 2.63.51 3.94.06-.3.1-.61.12-.91.11-1.41-.16-2.83-.49-4.21-.01-.03-.01-.06-.02-.09-.05-.17-.08-.34-.12-.51-.06-.19-.06-.4-.12-.59l-.04-.22c0-1.04.1-2.14.31-3.28.98-5.18 4.57-11.25 14.53-16.55.09 0 10.78 10.27.78 22.62z"/><path d="m446.1 95.67s.8-17.82-15.73-24.74-13.81-9.57-13.81-9.57-7.71 17.52 9.47 24.89c17.18 7.36 20.07 9.42 20.07 9.42z"/><path d="m446.11 95.67s-.8-17.82 15.73-24.74 13.81-9.57 13.81-9.57 7.71 17.52-9.47 24.89c-17.18 7.36-20.07 9.42-20.07 9.42z"/><path d="m446.1 137.36c-35.33 0-64.08-28.75-64.08-64.08s28.75-64.08 64.08-64.08 64.08 28.75 64.08 64.08-28.75 64.08-64.08 64.08zm0-126.78c-34.57 0-62.7 28.13-62.7 62.7s28.13 62.7 62.7 62.7 62.7-28.13 62.7-62.7-28.13-62.7-62.7-62.7z"/><path d="m446.1 146.55c-40.4 0-73.28-32.87-73.28-73.28s32.88-73.27 73.28-73.27 73.28 32.87 73.28 73.28-32.87 73.28-73.28 73.28zm0-141.29c-37.51 0-68.02 30.51-68.02 68.02s30.51 68.02 68.02 68.02 68.02-30.51 68.02-68.02-30.51-68.02-68.02-68.02z"/><path d="m494.41 74.86c0 3.85-.45 7.6-1.3 11.19-5.05 21.29-24.17 37.12-47 37.12s-40.15-14.38-46.2-34.15c-1.38-4.48-2.11-9.24-2.11-14.17 0-8.94 2.43-17.31 6.66-24.5.37-.63 1.34-.29 1.23.43-.41 2.53-.62 5.12-.62 7.77 0 2.09.13 4.16.39 6.18 6.34 49.6 79.91 44.97 80.63-5.02 0-.23 0-.47 0-.7 0-3.58-.39-7.07-1.13-10.43-.17-.79.87-1.23 1.32-.56 5.14 7.68 8.13 16.9 8.13 26.83z"/><path d="m444.52 93.15s1.52 6.63 1.65 12.79c0 0 1.54-11.06.1-12.32-.79-.69-1.75-.47-1.75-.47z"/><path d="m54.89 267.72v1.43h-34.16v-1.43h.26c5.61 0 9.26-6.39 9.26-16.17v-76.92h-7.04c-14.86 0-17.73 12.26-21.77 23.73h-1.44l7.82-25.16h59.98l7.82 25.16h-1.3c-4.17-11.47-7.04-23.73-21.77-23.73h-7.17v76.92c0 9.78 3.65 16.17 9.26 16.17h.26z"/><path d="m122.95 267.72c14.86 0 17.73-12.26 21.77-23.6h1.43l-7.82 25.03h-58.8v-1.43h.26c5.61 0 9.39-6.39 9.39-16.17v-60.76c0-9.78-3.78-16.17-9.39-16.17h-.26v-1.43h58.8l7.82 25.16h-1.43c-4.04-11.47-6.91-23.73-21.77-23.73h-9.39c-5.61 0-9.39 6.39-9.39 16.17v29.73h18.77c13.69 0 13.43-5.35 13.43-16.43h1.43v34.16h-1.43c0-11.08.26-16.43-13.43-16.43h-18.77v29.73c0 9.78 3.78 16.17 9.39 16.17z"/><path d="m176.8 221.83v29.73c0 9.78 3.78 16.17 9.39 16.17h.26v1.43h-34.29v-1.43h.26c5.61 0 9.39-6.39 9.39-16.17v-60.76c0-9.78-3.78-16.17-9.39-16.17h-.26v-1.43h47.98c14.34 0 24.12 9.65 24.12 24.51s-9.78 24.12-24.12 24.12h-1.17c2.74 1.3 5.22 3.52 6.65 6.39l11.47 23.34c4.82 9.78 11.73 16.17 17.34 16.17h.26v1.43h-25.68l-21.12-42.76c-1.3-2.74-4.17-4.56-7.17-4.56h-3.91zm0-31.03v29.73h9c13.56 0 22.69-9.13 22.69-23.21s-9.52-22.69-19.43-22.69c-8.61 0-12.26 6.65-12.26 16.17z"/><path d="m262.72 221.83v29.73c0 9.78 3.78 16.17 9.39 16.17h.26v1.43h-34.29v-1.43h.26c5.61 0 9.39-6.39 9.39-16.17v-60.76c0-9.78-3.78-16.17-9.39-16.17h-.26v-1.43h47.98c14.34 0 24.12 9.65 24.12 24.51s-9.78 24.12-24.12 24.12h-1.17c2.74 1.3 5.22 3.52 6.65 6.39l11.47 23.34c4.82 9.78 11.73 16.17 17.34 16.17h.26v1.43h-25.68l-21.12-42.76c-1.3-2.74-4.17-4.56-7.17-4.56h-3.91zm0-31.03v29.73h9c13.56 0 22.69-9.13 22.69-23.21s-9.52-22.69-19.43-22.69c-8.61 0-12.26 6.65-12.26 16.17z"/><path d="m368.33 173.2 28.55 78.36c3.52 9.78 9.52 16.17 15.12 16.17h.26v1.43h-35.2v-1.43h.26c5.74 0 7.04-6.39 3.52-16.17l-5.48-14.99c-1.96-.26-3.78-.39-5.74-.39-12.65 0-23.86 6.65-30.9 17.86-2.48 8.34-.78 13.69 4.3 13.69h.26v1.43h-20.73v-1.43h.26c5.61 0 11.6-6.39 15.25-16.17l28.42-78.36h1.83zm-8.22 21.77-19.69 54.5c8.34-10.69 20.73-16.17 34.29-14.47z"/><path d="m513.57 179.06c1.83 0 2.22-2.09 1.7-5.87h1.43l6.78 27.38h-1.3c-3.52-14.6-17.99-27.38-32.07-27.38-16.17 0-26.47 16.43-26.47 42.37 0 28.94 12.78 46.68 33.12 46.68 8.34 0 20.34-3 27.25-23.34l1.3.52c-3 13.04-14.08 31.03-37.03 31.03s-40.42-19.69-40.42-49.02 16.82-49.54 42.24-49.54c7.17 0 13.43 1.56 18.91 5.22 1.96 1.3 3.52 1.96 4.56 1.96z"/><path d="m584.06 172.72c26.54 4.9 40.39 28.27 35.16 56.61s-26.51 45.22-53.05 40.32-40.52-28.29-35.29-56.63 26.64-45.2 53.18-40.3zm-17.66 95.65c17.18 3.17 31.25-8.42 37.43-41.88s-2.83-49.31-20.01-52.48c-17.31-3.19-31.25 8.42-37.43 41.88s2.7 49.29 20.01 52.48z"/><path d="m656.34 267.72v1.43h-34.29v-1.43h.26c5.61 0 9.39-6.39 9.39-16.17v-60.76c0-9.78-3.78-16.17-9.39-16.17h-.26v-1.43h58.8l7.82 25.16h-1.43c-4.04-11.47-6.91-23.73-21.77-23.73h-9.39c-5.61 0-9.39 6.39-9.39 16.17v29.73h18.77c13.69 0 13.43-5.35 13.43-16.43h1.43v34.16h-1.43c0-11.08.26-16.43-13.43-16.43h-18.77v29.73c0 9.78 3.78 16.17 9.39 16.17z"/><path d="m723.49 267.72v1.43h-34.29v-1.43h.26c5.61 0 9.39-6.39 9.39-16.17v-60.76c0-9.78-3.78-16.17-9.39-16.17h-.26v-1.43h58.8l7.82 25.16h-1.43c-4.04-11.47-6.91-23.73-21.77-23.73h-9.39c-5.61 0-9.39 6.39-9.39 16.17v29.73h18.77c13.69 0 13.43-5.35 13.43-16.43h1.43v34.16h-1.43c0-11.08.26-16.43-13.43-16.43h-18.77v29.73c0 9.78 3.78 16.17 9.39 16.17z"/><path d="m799.76 267.72c14.86 0 17.73-12.26 21.77-23.6h1.43l-7.82 25.03h-58.8v-1.43h.26c5.61 0 9.39-6.39 9.39-16.17v-60.76c0-9.78-3.78-16.17-9.39-16.17h-.26v-1.43h58.8l7.82 25.16h-1.43c-4.04-11.47-6.91-23.73-21.77-23.73h-9.39c-5.61 0-9.39 6.39-9.39 16.17v29.73h18.77c13.69 0 13.43-5.35 13.43-16.43h1.43v34.16h-1.43c0-11.08.26-16.43-13.43-16.43h-18.77v29.73c0 9.78 3.78 16.17 9.39 16.17z"/><path d="m869 267.72c14.86 0 17.73-12.26 21.77-23.6h1.43l-7.82 25.03h-58.8v-1.43h.26c5.61 0 9.39-6.39 9.39-16.17v-60.76c0-9.78-3.78-16.17-9.39-16.17h-.26v-1.43h58.8l7.82 25.16h-1.43c-4.04-11.47-6.91-23.73-21.77-23.73h-9.39c-5.61 0-9.39 6.39-9.39 16.17v29.73h18.77c13.69 0 13.43-5.35 13.43-16.43h1.43v34.16h-1.43c0-11.08.26-16.43-13.43-16.43h-18.77v29.73c0 9.78 3.78 16.17 9.39 16.17z"/><path d="m591.82 175.57c-5.23 5.36-10.55 10.86-13.72 17.64-5.27 11.29-3.85 24.4-5.44 36.76-1.71 13.31-7.37 26.49-17.58 35.2" stroke="#fff" stroke-miterlimit="10" stroke-width="2.77"/></g></svg>