<svg viewBox="0 0 867.97 421.65" xmlns="http://www.w3.org/2000/svg"><g fill="#1d1d1b"><path d="m382.42 202.29v.98h-23.23v-.98h.18c3.81 0 6.3-4.34 6.3-11v-52.32h-4.79c-10.11 0-12.06 8.34-14.81 16.14h-.98l5.32-17.11h40.79l5.32 17.11h-.89c-2.84-7.8-4.79-16.14-14.81-16.14h-4.88v52.32c0 6.65 2.48 11 6.3 11z"/><path d="m428.7 202.29c10.11 0 12.06-8.34 14.81-16.05h.98l-5.32 17.02h-39.99v-.98h.18c3.81 0 6.38-4.34 6.38-11v-41.32c0-6.65-2.57-11-6.38-11h-.18v-.98h39.99l5.32 17.11h-.98c-2.75-7.8-4.7-16.14-14.81-16.14h-6.38c-3.81 0-6.38 4.34-6.38 11v20.22h12.77c9.31 0 9.13-3.64 9.13-11.17h.98v23.23h-.98c0-7.54.18-11.17-9.13-11.17h-12.77v20.22c0 6.65 2.57 11 6.38 11h6.38z"/><path d="m465.32 171.08v20.22c0 6.65 2.57 11 6.38 11h.18v.98h-23.32v-.98h.18c3.81 0 6.38-4.34 6.38-11v-41.32c0-6.65-2.57-11-6.38-11h-.18v-.98h32.63c9.75 0 16.4 6.56 16.4 16.67s-6.65 16.4-16.4 16.4h-.8c1.86.89 3.55 2.39 4.52 4.34l7.8 15.87c3.28 6.65 7.98 11 11.79 11h.18v.98h-17.47l-14.36-29.08c-.89-1.86-2.84-3.1-4.88-3.1h-2.66zm0-21.11v20.22h6.12c9.22 0 15.43-6.21 15.43-15.78s-6.47-15.43-13.21-15.43c-5.85 0-8.34 4.52-8.34 11z"/><path d="m523.76 171.08v20.22c0 6.65 2.57 11 6.38 11h.18v.98h-23.32v-.98h.18c3.81 0 6.38-4.34 6.38-11v-41.32c0-6.65-2.57-11-6.38-11h-.18v-.98h32.63c9.75 0 16.4 6.56 16.4 16.67s-6.65 16.4-16.4 16.4h-.8c1.86.89 3.55 2.39 4.52 4.34l7.8 15.87c3.28 6.65 7.98 11 11.79 11h.18v.98h-17.47l-14.36-29.08c-.89-1.86-2.84-3.1-4.88-3.1h-2.66zm0-21.11v20.22h6.12c9.22 0 15.43-6.21 15.43-15.78s-6.47-15.43-13.21-15.43c-5.85 0-8.34 4.52-8.34 11z"/><path d="m595.58 138 19.42 53.29c2.39 6.65 6.47 11 10.29 11h.18v.98h-23.94v-.98h.18c3.9 0 4.79-4.34 2.39-11l-3.72-10.2c-1.33-.18-2.57-.27-3.9-.27-8.6 0-16.23 4.52-21.01 12.15-1.68 5.67-.53 9.31 2.93 9.31h.18v.98h-14.1v-.98h.18c3.81 0 7.89-4.34 10.37-11l19.33-53.29h1.24zm-5.59 14.81-13.39 37.06c5.67-7.27 14.1-11 23.32-9.84z"/><path d="m389.97 218.05c1.24 0 1.51-1.42 1.15-3.99h.98l4.61 18.62h-.89c-2.39-9.93-12.24-18.62-21.81-18.62-10.99 0-18 11.17-18 28.82 0 19.68 8.69 31.74 22.52 31.74 5.67 0 13.83-2.04 18.53-15.87l.89.35c-2.04 8.87-9.58 21.1-25.18 21.1s-27.49-13.39-27.49-33.34 11.44-33.69 28.73-33.69c4.88 0 9.13 1.06 12.86 3.55 1.33.89 2.39 1.33 3.1 1.33z"/><path d="m437.91 213.75c-18.05-3.33-32.61 8.14-36.17 27.41s5.95 35.18 24 38.51 32.52-8.15 36.08-27.42-5.86-35.17-23.91-38.49zm-25.62 29.34c4.2-22.76 13.69-30.65 25.46-28.48 1.42.26 2.76.65 4.01 1.18-3.21 3.3-6.68 7.02-8.76 11.48-2.55 5.46-2.87 11.55-3.18 17.44-.13 2.59-.28 5.27-.6 7.83-1.21 9.43-5.14 17.51-11.09 22.86-6.41-5.01-8.98-15.32-5.84-32.32zm39.07 7.22c-4.2 22.76-13.78 30.63-25.46 28.48-2.29-.42-4.36-1.17-6.19-2.28 6.1-5.63 10.12-14 11.37-23.72.33-2.64.48-5.36.62-7.98.31-5.97.6-11.61 3-16.74 2.05-4.38 5.47-7.96 8.83-11.4 7.79 4.41 11.26 15 7.83 33.64z"/><path d="m487.07 278.35v.98h-23.32v-.98h.18c3.81 0 6.38-4.34 6.38-11v-41.32c0-6.65-2.57-11-6.38-11h-.18v-.98h39.99l5.32 17.11h-.98c-2.75-7.8-4.7-16.14-14.81-16.14h-6.38c-3.81 0-6.38 4.34-6.38 11v20.22h12.77c9.31 0 9.13-3.64 9.13-11.17h.98v23.23h-.98c0-7.54.18-11.17-9.13-11.17h-12.77v20.22c0 6.65 2.57 11 6.38 11z"/><path d="m532.73 278.35v.98h-23.32v-.98h.18c3.81 0 6.38-4.34 6.38-11v-41.32c0-6.65-2.57-11-6.38-11h-.18v-.98h39.99l5.32 17.11h-.98c-2.75-7.8-4.7-16.14-14.81-16.14h-6.38c-3.81 0-6.38 4.34-6.38 11v20.22h12.77c9.31 0 9.13-3.64 9.13-11.17h.98v23.23h-.98c0-7.54.18-11.17-9.13-11.17h-12.77v20.22c0 6.65 2.57 11 6.38 11z"/><path d="m584.61 278.35c10.11 0 12.06-8.34 14.81-16.05h.98l-5.32 17.02h-39.99v-.98h.18c3.81 0 6.38-4.34 6.38-11v-41.32c0-6.65-2.57-11-6.38-11h-.18v-.98h39.99l5.32 17.11h-.98c-2.75-7.8-4.7-16.14-14.81-16.14h-6.38c-3.81 0-6.38 4.34-6.38 11v20.22h12.77c9.31 0 9.13-3.64 9.13-11.17h.98v23.23h-.98c0-7.54.18-11.17-9.13-11.17h-12.77v20.22c0 6.65 2.57 11 6.38 11h6.38z"/><path d="m631.69 278.35c10.11 0 12.06-8.34 14.81-16.05h.98l-5.32 17.02h-39.99v-.98h.18c3.81 0 6.38-4.34 6.38-11v-41.32c0-6.65-2.57-11-6.38-11h-.18v-.98h39.99l5.32 17.11h-.98c-2.75-7.8-4.7-16.14-14.81-16.14h-6.38c-3.81 0-6.38 4.34-6.38 11v20.22h12.77c9.31 0 9.13-3.64 9.13-11.17h.98v23.23h-.98c0-7.54.18-11.17-9.13-11.17h-12.77v20.22c0 6.65 2.57 11 6.38 11h6.38z"/><path d="m248.58 195.76c-.04-.17-.08-.33-.12-.5-.05-.22-.07-.43-.13-.65.09.38.17.74.25 1.15z"/><path d="m215.75 194.74c-.03.07-.08.2-.14.38.01-.18.08-.31.14-.38z"/><path d="m280.39 194.74c.07.07.13.2.14.38-.07-.18-.12-.31-.14-.38z"/><path d="m248.07 277.76c-38.63 0-70.05-31.42-70.05-70.05s31.42-70.05 70.05-70.05 70.05 31.42 70.05 70.05-31.42 70.05-70.05 70.05zm0-138.59c-37.79 0-68.54 30.75-68.54 68.54s30.75 68.54 68.54 68.54 68.54-30.75 68.54-68.54-30.75-68.54-68.54-68.54z"/><path d="m248.07 287.81c-44.17 0-80.1-35.93-80.1-80.1s35.93-80.1 80.1-80.1 80.1 35.93 80.1 80.1-35.93 80.1-80.1 80.1zm0-154.46c-41 0-74.35 33.35-74.35 74.35s33.35 74.35 74.35 74.35 74.35-33.35 74.35-74.35-33.35-74.35-74.35-74.35z"/><path d="m300.88 209.44c0 4.21-.48 8.31-1.42 12.23-5.51 23.27-26.42 40.59-51.38 40.59s-43.88-15.72-50.5-37.33c-1.5-4.9-2.31-10.1-2.31-15.48 0-9.77 2.67-18.93 7.29-26.77.41-.69 1.46-.33 1.33.47-.44 2.76-.67 5.59-.67 8.49 0 2.29.14 4.53.42 6.76 3.35 26.16 23.81 38.52 44.17 38.16-.5-2.23-1.08-4.16-1.48-5.36-2.44-1.31-8.05-4.09-20.19-9.29-17.12-7.33-11.64-23.9-10.53-26.77-.13 1.05 1.12 4.1 15.26 10.04 8.44 3.53 12.74 9.66 14.94 15.18.27-1.12.68-2.04 1.07-2.94.54-1.2 1.05-2.35 1.19-3.99-1.15-2.31-3.63-4.9-8.45-7.47-14.73-7.84-20.66-16.15-13.72-32.58 0 0 15.41 3.87 22.58 23.91.42 1.39.65 2.84.55 4.23.08-.33.12-.65.14-.99.12-1.54-.18-3.11-.54-4.6-.01-.04-.01-.07-.03-.1 0-.01-.01-.04-.01-.05-.08-.41-.16-.77-.25-1.15l-.05-.24c-.91-3.75-2.23-6.25-2.51-10.24-.33-4.69-4.94-9.46-7.74-12.15-2.43-2.37-4.05-5.46-4.39-8.83-.35-3.51.74-7.76 4.74-8.65 6.64-1.5 7.81 3.37 7.83 6.98.71-4.13 2.94-10.13 9.94-7.84 4.83 1.59 7.55 9.83-.34 18.19-6.53 6.9-9.15 11.94-7.2 18.96 1.08-5.66 4.99-12.3 15.89-18.08.1 0 11.79 11.22.85 24.72-8.49 10.51-12.54 8.35-15.77 15.98-.16 1.96-.74 3.31-1.33 4.6-.6 1.36-1.16 2.63-1.27 4.63-.01.4-.03.81-.03 1.19.65 2.47.93 4.64 1.05 6.15.04.01.08.01.12.04.38-5.29 2.77-18.83 17.14-24.85 14.14-5.92 15.39-8.98 15.26-10.04 1.11 2.87 6.6 19.44-10.52 26.77-12.3 5.28-17.9 8.06-20.31 9.34.46 1.16.47 3.15.3 5.21 21.08-1.31 41.37-16.23 41.76-43.55.01-.26.01-.52.01-.77 0-3.92-.43-7.74-1.24-11.41-.18-.86.95-1.35 1.45-.61 5.61 8.39 8.89 18.48 8.89 29.34z"/></g></svg>