<svg fill="none" height="48" viewBox="0 0 48 48" width="48" xmlns="http://www.w3.org/2000/svg" xmlns:xlink="http://www.w3.org/1999/xlink"><clipPath id="a"><path d="m0 0h48v48h-48z"/></clipPath><mask id="b" height="48" maskUnits="userSpaceOnUse" width="48" x="0" y="0"><path d="m48 0h-48v48h48z" fill="#fff"/></mask><mask id="c" height="48" maskUnits="userSpaceOnUse" width="48" x="0" y="0"><path d="m48 0h-48v48h48z" fill="#fff"/></mask><g clip-path="url(#a)"><g mask="url(#b)"><g mask="url(#c)"><path d="m35.3843 22.2471c-.2068-.0991-.4168-.1945-.6296-.2858-.3705-6.8267-4.1007-10.7351-10.3642-10.7751-.0284-.0001-.0566-.0001-.085-.0001-3.7464 0-6.8622 1.5991-8.78 4.5091l3.4447 2.363c1.4327-2.1736 3.6811-2.637 5.3369-2.637.0192 0 .0384 0 .0573.0002 2.0624.0131 3.6186.6128 4.6258 1.7821.733.8513 1.2233 2.0278 1.466 3.5125-1.8285-.3108-3.806-.4064-5.92-.2852-5.955.343-9.7834 3.8162-9.5263 8.6422.1305 2.448 1.35 4.554 3.4339 5.9298 1.7618 1.1629 4.031 1.7317 6.3893 1.603 3.1144-.1708 5.5576-1.3591 7.2621-3.5318 1.2945-1.65 2.1133-3.7883 2.4748-6.4825 1.4842.8957 2.5843 2.0745 3.1917 3.4915 1.0331 2.4087 1.0933 6.367-2.1364 9.594-2.8298 2.827-6.2313 4.05-11.3719 4.0878-5.7024-.0423-10.015-1.8711-12.8189-5.4355-2.62563-3.3378-3.98258-8.1588-4.0332-14.3293.05062-6.1705 1.40757-10.9916 4.0332-14.32932 2.8039-3.56445 7.1165-5.39318 12.8188-5.43555 5.7437.04269 10.1315 1.88022 13.0427 5.46187 1.4275 1.7564 2.5038 3.9652 3.2133 6.5406l4.0367-1.077c-.86-3.17-2.2133-5.90167-4.0548-8.1671-3.7322-4.59183-9.1907-6.944713-16.2238-6.9935h-.0282c-7.0188.0486175-12.4162 2.41045-16.04213 7.01982-3.2266 4.10178-4.89097 9.80908-4.9469 16.96328l-.00017.0169.00017.0169c.05593 7.1541 1.7203 12.8616 4.9469 16.9634 3.62593 4.6092 9.02333 6.9712 16.04213 7.0197h.0282c6.2401-.0433 10.6386-1.677 14.2621-5.2972 4.7407-4.7363 4.598-10.673 3.0355-14.3175-1.121-2.6136-3.2582-4.7363-6.1807-6.1382zm-10.7742 10.1297c-2.61.147-5.3215-1.0245-5.4552-3.5338-.0991-1.8605 1.3241-3.9365 5.6154-4.1838.4914-.0284.9737-.0422 1.4475-.0422 1.5587 0 3.0169.1514 4.3427.4413-.4945 6.1754-3.395 7.1782-5.9504 7.3185z" fill="#000"/></g></g></g></svg>