<svg fill="none" height="48" viewBox="0 0 48 48" width="48" xmlns="http://www.w3.org/2000/svg" xmlns:xlink="http://www.w3.org/1999/xlink"><clipPath id="a"><path d="m0 0h48v48h-48z"/></clipPath><mask id="b" height="48" maskUnits="userSpaceOnUse" width="48" x="0" y="0"><path d="m48 0h-48v48h48z" fill="#fff"/></mask><g clip-path="url(#a)"><g mask="url(#b)"><path d="m0 48 3.374-12.326c-2.082-3.608-3.176-7.698-3.174-11.892.006-13.112 10.676-23.782 23.786-23.782 6.362.002 12.334 2.48 16.826 6.976 4.49 4.496 6.962 10.472 6.96 16.828-.006 13.114-10.676 23.784-23.786 23.784-3.98-.002-7.902-1-11.376-2.896zm13.194-7.614c3.352 1.99 6.552 3.182 10.784 3.184 10.896 0 19.772-8.868 19.778-19.77.004-10.924-8.83-19.78-19.762-19.784-10.904 0-19.774 8.868-19.778 19.768-.002 4.45 1.302 7.782 3.492 11.268l-1.998 7.296zm22.774-10.928c-.148-.248-.544-.396-1.14-.694-.594-.298-3.516-1.736-4.062-1.934-.544-.198-.94-.298-1.338.298-.396.594-1.536 1.934-1.882 2.33s-.694.446-1.288.148-2.51-.924-4.78-2.95c-1.766-1.576-2.96-3.522-3.306-4.118-.346-.594-.036-.916.26-1.212.268-.266.594-.694.892-1.042.302-.344.4-.592.6-.99.198-.396.1-.744-.05-1.042-.15-.296-1.338-3.222-1.832-4.412-.484-1.158-.974-1.002-1.338-1.02l-1.14-.02c-.396 0-1.04.148-1.584.744s-2.08 2.032-2.08 4.958 2.13 5.752 2.426 6.148c.298.396 4.19 6.4 10.152 8.974 1.418.612 2.526.978 3.388 1.252 1.424.452 2.72.388 3.744.236 1.142-.17 3.516-1.438 4.012-2.826.496-1.39.496-2.58.346-2.828z" fill="#000"/></g></g></svg>